M48
FMAT,1
METRIC
T01C000.30000
T02C000.40000
T03C000.60000
T04C003.10000
%
G81
M71
T01
X1390800Y946670
X1390800Y2626670
X1390800Y3186670
X1390800Y4306670
X1390800Y4866670
X1390800Y5986670
X1390800Y6546670
X1390800Y7106670
X1390800Y7666670
X1390800Y8226670
X1577306Y8754700
X1950800Y946300
X2137306Y8754700
X2144250Y7611625
X2210125Y7516375
X2289500Y7611625
X2469750Y2152250
X2565000Y2057000
X2697306Y8754700
X3070800Y946300
X3257306Y8754700
X3630800Y946300
X3817306Y8754700
X3892875Y5293875
X4190800Y946300
X4377306Y8754700
X4750800Y946300
X4937306Y8754700
X5310800Y946300
X5497306Y8754700
X5870800Y946300
X6057306Y8754700
X6430800Y946300
X6617306Y8754700
X6990800Y946300
X7177306Y8754700
X7550800Y946300
X7737306Y8754700
X8110800Y946300
X8297306Y8754700
X8670800Y946300
X8857306Y8754700
X9230800Y946300
X9417306Y8754700
X9790800Y946300
X9977306Y8754700
X10350800Y946300
X10537306Y8754700
X10910800Y946300
X11097306Y8754700
X11470800Y946300
X11657306Y8754700
X12030800Y946300
X12217306Y8754700
X12590800Y946300
X12777306Y8754700
X13150800Y946300
X13337306Y8754700
X13710800Y946300
X13897306Y8754700
X14270800Y946300
X14457306Y8754700
X14830800Y946300
X15017306Y8754700
X15390800Y946300
X15577306Y8754700
X15950800Y946300
X16137306Y8754700
X16510800Y946300
X16697306Y8754700
X17070800Y946300
X17257306Y8754700
X17630800Y946300
X17817306Y8754700
X18190800Y946300
X18377306Y8754700
X18750800Y946300
X18937306Y8754700
X19310800Y946300
X19497306Y8754700
X19870800Y946300
X20057306Y8754700
X20430800Y946300
X20617306Y8754700
X20990800Y946300
X21177306Y8754700
X21550800Y946300
X21737306Y8754700
X22110800Y946300
X22297306Y8754700
X22670800Y946300
X22857306Y8754700
X23230800Y946300
X23417306Y8754700
X23790800Y946300
X23977306Y8754700
X24350800Y946300
X24537306Y8754700
X24910800Y946300
X25097306Y8754700
X25470800Y946300
X25657306Y8754700
X26030800Y946300
X26217306Y8754700
X26590800Y946300
X26777306Y8754700
X27150800Y946300
X27337306Y8754700
X27710800Y946300
X27897306Y8754700
X28270800Y946300
X28457306Y8754700
X28830800Y946300
X29017306Y8754700
X29390800Y946300
X29577306Y8754700
X29950800Y946300
X30137306Y8754700
X30510800Y946300
X30697306Y8754700
X31199200Y1226300
X31199200Y1786300
X31199200Y2346300
X31199200Y2906300
X31199200Y3466300
X31199200Y4026300
X31199200Y4586300
X31199200Y5146300
X31199200Y5706300
X31199200Y6266300
X31199200Y6826300
X31199200Y7386300
X31199200Y7946300
X31199200Y8506300
T02
X1813250Y5095438
X1813250Y6333688
X2244250Y8214875
X9211000Y5436750
X9226875Y4484250
X9290564Y3595250
X9401500Y6198750
X10036500Y3150750
X10163500Y6516250
X10798500Y3484125
X10862000Y6055875
X10957250Y4309625
X10957250Y5246250
X12433625Y3230125
X12449500Y4071500
X12449500Y5801875
X12465375Y4992250
X12561875Y6675000
X13032948Y5468500
X13350448Y4722375
X13667948Y3976250
X14354500Y3039625
X14449750Y4055625
X14449750Y4960500
X14465625Y5786000
X14578000Y6675000
X17199622Y3225872
X17434250Y4055625
X17704125Y4865250
X17926375Y5659000
X18037500Y3817500
X18212125Y6165750
X18497875Y5436750
X18638747Y4674750
X18831250Y3849250
X19085250Y3055500
X20658125Y3261875
X20658125Y4119125
X20658125Y4976375
X20658125Y5817750
X20658125Y6643250
X21798625Y3119000
X21798625Y3944500
X21798625Y4833500
X21798625Y5659000
X21798625Y6500375
X22688875Y6725500
X22800000Y4721125
X23322767Y4166750
X23546125Y6627375
X23703767Y3293625
X23720750Y5024000
X23863625Y5610125
T04
X1695000Y1250500
X1695000Y8450500
X30895000Y1250500
X30895000Y8450500
T03
G00X1457625Y1631313
M15
G01X1407625Y1631313
M17
G00X1457625Y2495313
M15
G01X1407625Y2495313
M17
G00X1827625Y1631313
M15
G01X1777625Y1631313
M17
G00X1827625Y2495313
M15
G01X1777625Y2495313
M17
G00X2087688Y1009188
M15
G01X2087688Y959188
M17
G00X2087688Y1379188
M15
G01X2087688Y1329188
M17
G00X2951688Y1009188
M15
G01X2951688Y959188
M17
G00X2951688Y1379188
M15
G01X2951688Y1329188
M17
M30
