G04 GENERATED BY PULSONIX 12.5 GERBER.DLL 9449*
G04 #@! TF.GenerationSoftware,Pulsonix,Pulsonix,12.5.9449*
G04 #@! TF.CreationDate,2025-02-15T20:42:59--1:00*
G04 #@! TF.Part,Single*
%FSLAX35Y35*%
%LPD*%
%MOMM*%
G04 #@! TF.FileFunction,Soldermask,Bot*
G04 #@! TF.FilePolarity,Negative*
G04 #@! TA.AperFunction,ViaPad*
%ADD14C,0.95400*%
%ADD15C,0.85400*%
G04 #@! TA.AperFunction,SMDPad,CuDef*
%ADD16R,1.65400X1.15400*%
%ADD17R,0.95400X2.25400*%
G04 #@! TA.AperFunction,ComponentPad*
%ADD18O,1.10400X1.60400*%
G04 #@! TA.AperFunction,SMDPad,CuDef*
%ADD19R,2.05400X1.25400*%
%ADD70R,1.65400X3.85400*%
%ADD71R,1.15400X1.65400*%
%ADD20R,2.25400X0.95400*%
G04 #@! TA.AperFunction,ComponentPad*
%ADD21O,1.60400X1.10400*%
G04 #@! TA.AperFunction,SMDPad,CuDef*
%ADD22R,1.45400X1.35400*%
G04 #@! TD.AperFunction*
X0Y0D02*
D02*
D14*
X1813250Y5095438D03*
Y6333688D03*
X2244250Y8214875D03*
X9211000Y5436750D03*
X9226875Y4484250D03*
X9290564Y3595250D03*
X9401500Y6198750D03*
X10036500Y3150750D03*
X10163500Y6516250D03*
X10798500Y3484125D03*
X10862000Y6055875D03*
X10957250Y4309625D03*
Y5246250D03*
X12433625Y3230125D03*
X12449500Y4071500D03*
Y5801875D03*
X12465375Y4992250D03*
X12561875Y6675000D03*
X13032948Y5468500D03*
X13350448Y4722375D03*
X13667948Y3976250D03*
X14354500Y3039625D03*
X14449750Y4055625D03*
Y4960500D03*
X14465625Y5786000D03*
X14578000Y6675000D03*
X17199622Y3225872D03*
X17434250Y4055625D03*
X17704125Y4865250D03*
X17926375Y5659000D03*
X18037500Y3817500D03*
X18212125Y6165750D03*
X18497875Y5436750D03*
X18638747Y4674750D03*
X18831250Y3849250D03*
X19085250Y3055500D03*
X20658125Y3261875D03*
Y4119125D03*
Y4976375D03*
Y5817750D03*
Y6643250D03*
X21798625Y3119000D03*
Y3944500D03*
Y4833500D03*
Y5659000D03*
Y6500375D03*
X22688875Y6725500D03*
X22800000Y4721125D03*
X23322767Y4166750D03*
X23546125Y6627375D03*
X23703767Y3293625D03*
X23720750Y5024000D03*
X23863625Y5610125D03*
D02*
D15*
X1390800Y946670D03*
Y2626670D03*
Y3186670D03*
Y4306670D03*
Y4866670D03*
Y5986670D03*
Y6546670D03*
Y7106670D03*
Y7666670D03*
Y8226670D03*
X1577306Y8754700D03*
X1950800Y946300D03*
X2137306Y8754700D03*
X2144250Y7611625D03*
X2210125Y7516375D03*
X2289500Y7611625D03*
X2469750Y2152250D03*
X2565000Y2057000D03*
X2697306Y8754700D03*
X3070800Y946300D03*
X3257306Y8754700D03*
X3630800Y946300D03*
X3817306Y8754700D03*
X3892875Y5293875D03*
X4190800Y946300D03*
X4377306Y8754700D03*
X4750800Y946300D03*
X4937306Y8754700D03*
X5310800Y946300D03*
X5497306Y8754700D03*
X5870800Y946300D03*
X6057306Y8754700D03*
X6430800Y946300D03*
X6617306Y8754700D03*
X6990800Y946300D03*
X7177306Y8754700D03*
X7550800Y946300D03*
X7737306Y8754700D03*
X8110800Y946300D03*
X8297306Y8754700D03*
X8670800Y946300D03*
X8857306Y8754700D03*
X9230800Y946300D03*
X9417306Y8754700D03*
X9790800Y946300D03*
X9977306Y8754700D03*
X10350800Y946300D03*
X10537306Y8754700D03*
X10910800Y946300D03*
X11097306Y8754700D03*
X11470800Y946300D03*
X11657306Y8754700D03*
X12030800Y946300D03*
X12217306Y8754700D03*
X12590800Y946300D03*
X12777306Y8754700D03*
X13150800Y946300D03*
X13337306Y8754700D03*
X13710800Y946300D03*
X13897306Y8754700D03*
X14270800Y946300D03*
X14457306Y8754700D03*
X14830800Y946300D03*
X15017306Y8754700D03*
X15390800Y946300D03*
X15577306Y8754700D03*
X15950800Y946300D03*
X16137306Y8754700D03*
X16510800Y946300D03*
X16697306Y8754700D03*
X17070800Y946300D03*
X17257306Y8754700D03*
X17630800Y946300D03*
X17817306Y8754700D03*
X18190800Y946300D03*
X18377306Y8754700D03*
X18750800Y946300D03*
X18937306Y8754700D03*
X19310800Y946300D03*
X19497306Y8754700D03*
X19870800Y946300D03*
X20057306Y8754700D03*
X20430800Y946300D03*
X20617306Y8754700D03*
X20990800Y946300D03*
X21177306Y8754700D03*
X21550800Y946300D03*
X21737306Y8754700D03*
X22110800Y946300D03*
X22297306Y8754700D03*
X22670800Y946300D03*
X22857306Y8754700D03*
X23230800Y946300D03*
X23417306Y8754700D03*
X23790800Y946300D03*
X23977306Y8754700D03*
X24350800Y946300D03*
X24537306Y8754700D03*
X24910800Y946300D03*
X25097306Y8754700D03*
X25470800Y946300D03*
X25657306Y8754700D03*
X26030800Y946300D03*
X26217306Y8754700D03*
X26590800Y946300D03*
X26777306Y8754700D03*
X27150800Y946300D03*
X27337306Y8754700D03*
X27710800Y946300D03*
X27897306Y8754700D03*
X28270800Y946300D03*
X28457306Y8754700D03*
X28830800Y946300D03*
X29017306Y8754700D03*
X29390800Y946300D03*
X29577306Y8754700D03*
X29950800Y946300D03*
X30137306Y8754700D03*
X30510800Y946300D03*
X30697306Y8754700D03*
X31199200Y1226300D03*
Y1786300D03*
Y2346300D03*
Y2906300D03*
Y3466300D03*
Y4026300D03*
Y4586300D03*
Y5146300D03*
Y5706300D03*
Y6266300D03*
Y6826300D03*
Y7386300D03*
Y7946300D03*
Y8506300D03*
D02*
D16*
X2416500Y1690250D03*
Y1880750D03*
X2591125Y1690250D03*
Y1880750D03*
X2797500Y1690250D03*
Y1880750D03*
X9211000Y5103375D03*
Y5293875D03*
X9226875Y4150875D03*
Y4341375D03*
X9290375Y3261875D03*
Y3452375D03*
X9385625Y5833625D03*
Y6024125D03*
X10036500Y2801500D03*
Y2992000D03*
X10163500Y6198750D03*
Y6389250D03*
X10798500Y3166625D03*
Y3357125D03*
X10862000Y5738375D03*
Y5928875D03*
X10957250Y3992125D03*
Y4182625D03*
Y4912875D03*
Y5103375D03*
X12433625Y2912625D03*
Y3103125D03*
X12449500Y3769875D03*
Y3960375D03*
Y5500250D03*
Y5690750D03*
X12465375Y4690625D03*
Y4881125D03*
X12560625Y6373375D03*
Y6563875D03*
X13036875Y5166875D03*
Y5357375D03*
X13354375Y4420750D03*
Y4611250D03*
X13656000Y3658750D03*
Y3849250D03*
X14354500Y2738000D03*
Y2928500D03*
X14449750Y3738125D03*
Y3928625D03*
Y4658875D03*
Y4849375D03*
X14465625Y5484375D03*
Y5674875D03*
X14576750Y6357500D03*
Y6548000D03*
X17196125Y2896750D03*
Y3087250D03*
X17434250Y3722250D03*
Y3912750D03*
X17704125Y4547750D03*
Y4738250D03*
X17926375Y5341500D03*
Y5532000D03*
X18037500Y3500000D03*
Y3690500D03*
X18212125Y5833625D03*
Y6024125D03*
X18497875Y5103375D03*
Y5293875D03*
X18640750Y4341375D03*
Y4531875D03*
X18831250Y3515875D03*
Y3706375D03*
X19069375Y2738000D03*
Y2928500D03*
X20641000D03*
Y3119000D03*
X20656875Y3801625D03*
Y3992125D03*
Y4658875D03*
Y4849375D03*
Y6341625D03*
Y6532125D03*
X20672750Y5500250D03*
Y5690750D03*
X21799875Y2801500D03*
Y2992000D03*
Y3627000D03*
Y3817500D03*
Y4516000D03*
Y4706500D03*
Y5341500D03*
Y5532000D03*
Y6198750D03*
Y6389250D03*
X22688875Y6421000D03*
Y6611500D03*
X22800000Y4420750D03*
Y4611250D03*
X23323875Y3865125D03*
Y4055625D03*
X23546125Y6325750D03*
Y6516250D03*
X23704875Y2992000D03*
Y3182500D03*
X23720750Y4722375D03*
Y4912875D03*
X23863625Y5309750D03*
Y5500250D03*
D02*
D17*
X2249688Y1454188D03*
X2369688D03*
X2469688D03*
X2569688D03*
X2669688D03*
X2789688D03*
D02*
D18*
X2087688Y984188D03*
Y1354188D03*
X2951688Y984188D03*
Y1354188D03*
D02*
D19*
X3027688Y1667250D03*
Y1967250D03*
D02*
D70*
X1471938Y3563500D03*
Y5595500D03*
X1725938Y3563500D03*
Y5595500D03*
X1979938Y3563500D03*
Y5595500D03*
X2233938Y3563500D03*
Y5595500D03*
X2487938Y3563500D03*
Y5595500D03*
X2741938Y3563500D03*
Y5595500D03*
X2995938Y3563500D03*
Y5595500D03*
X3249938Y3563500D03*
Y5595500D03*
X3503938Y3563500D03*
Y5595500D03*
X3757938Y3563500D03*
Y5595500D03*
X4011938Y3563500D03*
Y5595500D03*
X4265938Y3563500D03*
Y5595500D03*
X4519938Y3563500D03*
Y5595500D03*
X4773938Y3563500D03*
Y5595500D03*
X5027938Y3563500D03*
Y5595500D03*
X5281938Y3563500D03*
Y5595500D03*
X5535938Y3563500D03*
Y5595500D03*
X5789938Y3563500D03*
Y5595500D03*
X6043938Y3563500D03*
Y5595500D03*
X6297938Y3563500D03*
Y5595500D03*
D02*
D71*
X1916438Y6706750D03*
X2019625Y6500375D03*
Y7103625D03*
X2106938Y6706750D03*
X2130750Y2031563D03*
Y2206188D03*
X2210125Y6500375D03*
Y7103625D03*
X2226000Y7325875D03*
X2321250Y2031563D03*
Y2206188D03*
X2353000Y8214875D03*
X2416500Y7325875D03*
X2543500Y8214875D03*
D02*
D20*
X1902625Y1793313D03*
Y1913313D03*
Y2013313D03*
Y2113313D03*
Y2213313D03*
Y2333313D03*
D02*
D21*
X1432625Y1631313D03*
Y2495313D03*
X1802625Y1631313D03*
Y2495313D03*
D02*
D22*
X9853938Y2379000D03*
Y2589000D03*
X0Y0D02*
M02*
