G04 GENERATED BY PULSONIX 12.5 GERBER.DLL 9449*
G04 #@! TF.GenerationSoftware,Pulsonix,Pulsonix,12.5.9449*
G04 #@! TF.CreationDate,2024-11-25T21:04:47--1:00*
G04 #@! TF.Part,Single*
%FSLAX35Y35*%
%LPD*%
%MOMM*%
G04 #@! TF.FileFunction,Paste,Top*
G04 #@! TF.FilePolarity,Positive*
G04 #@! TA.AperFunction,SMDPad,CuDef*
%ADD20R,1.50000X1.00000*%
%AMT21*0 Rectangle Pad at angle 30*21,1,1.00000,1.50000,0,0,30*%
%ADD21T21*%
%ADD22R,1.00000X1.50000*%
%AMT23*0 Rectangle Pad at angle 150*21,1,1.00000,1.50000,0,0,150*%
%ADD23T23*%
%AMT24*0 Rectangle Pad at angle 23*21,1,1.00000,1.50000,0,0,23*%
%ADD24T24*%
%AMT25*0 Rectangle Pad at angle 163*21,1,1.00000,1.50000,0,0,163*%
%ADD25T25*%
%AMT26*0 Rectangle Pad at angle 17*21,1,1.00000,1.50000,0,0,17*%
%ADD26T26*%
%AMT27*0 Rectangle Pad at angle 45*21,1,1.00000,1.50000,0,0,45*%
%ADD27T27*%
%AMT28*0 Rectangle Pad at angle 135*21,1,1.00000,1.50000,0,0,135*%
%ADD28T28*%
%AMT29*0 Rectangle Pad at angle 24*21,1,1.00000,1.50000,0,0,24*%
%ADD29T29*%
%ADD73R,0.30000X1.00000*%
G04 #@! TD.AperFunction*
X0Y0D02*
D02*
D20*
X9855000Y2895500D03*
Y3215500D03*
Y6451500D03*
Y6771500D03*
X10345000Y2895500D03*
Y3215500D03*
Y6451500D03*
Y6771500D03*
X17903625Y3609875D03*
Y3929875D03*
Y6165750D03*
Y6485750D03*
X18393625Y3609875D03*
Y3929875D03*
Y6165750D03*
Y6485750D03*
X22491500Y4721125D03*
Y5041125D03*
X22523250Y6405500D03*
Y6725500D03*
X22981500Y4721125D03*
Y5041125D03*
X23013250Y6405500D03*
Y6725500D03*
X23523375Y5610125D03*
Y5930125D03*
X24013375Y5610125D03*
Y5930125D03*
D02*
D21*
X9013436Y3632176D03*
X9258436Y3207824D03*
X9290564Y3792176D03*
X9535564Y3367824D03*
X10664436Y6299176D03*
X10909436Y5874824D03*
X10941564Y6459176D03*
X11186564Y6034824D03*
D02*
D22*
X8987500Y4144000D03*
Y4634000D03*
Y5096500D03*
Y5586500D03*
X9307500Y4144000D03*
Y4634000D03*
Y5096500D03*
Y5586500D03*
X10892500Y4144000D03*
Y4634000D03*
Y5096500D03*
Y5586500D03*
X11212500Y4144000D03*
Y4634000D03*
Y5096500D03*
Y5586500D03*
X12241875Y2889875D03*
Y3379875D03*
Y3715375D03*
Y4205375D03*
Y4604375D03*
Y5094375D03*
Y5429875D03*
Y5919875D03*
Y6318875D03*
Y6808875D03*
X12561875Y2889875D03*
Y3379875D03*
Y3715375D03*
Y4205375D03*
Y4604375D03*
Y5094375D03*
Y5429875D03*
Y5919875D03*
Y6318875D03*
Y6808875D03*
X14258000Y2889875D03*
Y3379875D03*
Y3715375D03*
Y4205375D03*
Y4604375D03*
Y5094375D03*
Y5429875D03*
Y5919875D03*
Y6318875D03*
Y6808875D03*
X14578000Y2889875D03*
Y3379875D03*
Y3715375D03*
Y4205375D03*
Y4604375D03*
Y5094375D03*
Y5429875D03*
Y5919875D03*
Y6318875D03*
Y6808875D03*
X20338125Y2955000D03*
Y3445000D03*
Y3780500D03*
Y4270500D03*
Y4669500D03*
Y5159500D03*
Y5495000D03*
Y5985000D03*
Y6320500D03*
Y6810500D03*
X20658125Y2955000D03*
Y3445000D03*
Y3780500D03*
Y4270500D03*
Y4669500D03*
Y5159500D03*
Y5495000D03*
Y5985000D03*
Y6320500D03*
Y6810500D03*
X21798625Y2955000D03*
Y3445000D03*
Y3780500D03*
Y4270500D03*
Y4669500D03*
Y5159500D03*
Y5495000D03*
Y5985000D03*
Y6320500D03*
Y6810500D03*
X22118625Y2955000D03*
Y3445000D03*
Y3780500D03*
Y4270500D03*
Y4669500D03*
Y5159500D03*
Y5495000D03*
Y5985000D03*
Y6320500D03*
Y6810500D03*
D02*
D23*
X9013436Y6034824D03*
X9258436Y6459176D03*
X9290564Y5874824D03*
X9535564Y6299176D03*
X10664436Y3367824D03*
X10909436Y3792176D03*
X10941564Y3207824D03*
X11186564Y3632176D03*
D02*
D24*
X12841490Y5758507D03*
X13032948Y5307459D03*
X13136052Y5883541D03*
X13158990Y4996507D03*
X13327510Y5432493D03*
X13350448Y4545459D03*
X13453552Y5121541D03*
X13476490Y4234507D03*
X13645010Y4670493D03*
X13667948Y3783459D03*
X13771052Y4359541D03*
X13962510Y3908493D03*
D02*
D25*
X16892110Y2994985D03*
X17035372Y3463574D03*
X17146110Y3820485D03*
X17198128Y2901426D03*
X17289372Y4289074D03*
X17341390Y3370015D03*
X17384235Y4598360D03*
X17452128Y3726926D03*
X17527497Y5066949D03*
X17595390Y4195515D03*
X17606485Y5392110D03*
X17690253Y4504801D03*
X17749747Y5860699D03*
X17833515Y4973390D03*
X17912503Y5298551D03*
X18055765Y5767140D03*
D02*
D26*
X18273235D03*
X18416497Y5298551D03*
X18495485Y4973390D03*
X18579253Y5860699D03*
X18638747Y4504801D03*
X18722515Y5392110D03*
X18749485Y4195515D03*
X18801503Y5066949D03*
X18892747Y3726926D03*
X18944765Y4598360D03*
X18987610Y3370015D03*
X19055503Y4289074D03*
X19130872Y2901426D03*
X19198765Y3820485D03*
X19293628Y3463574D03*
X19436890Y2994985D03*
D02*
D27*
X23196247Y6528729D03*
X23422521Y6755003D03*
X23542729Y6182247D03*
X23769003Y6408521D03*
D02*
D28*
X23275622Y5027396D03*
X23501896Y4801122D03*
X23622104Y5373878D03*
X23848378Y5147604D03*
D02*
D29*
X23030432Y4214366D03*
X23229733Y3766728D03*
X23322767Y4344522D03*
X23411432Y3341241D03*
X23522068Y3896884D03*
X23610733Y2893603D03*
X23703767Y3471397D03*
X23903068Y3023759D03*
D02*
D73*
X2144250Y7769125D03*
Y8089125D03*
X2194250Y7769125D03*
Y8089125D03*
X2244250Y7769125D03*
Y8089125D03*
X0Y0D02*
M02*
