G04 GENERATED BY PULSONIX 12.5 GERBER.DLL 9449*
G04 #@! TF.GenerationSoftware,Pulsonix,Pulsonix,12.5.9449*
G04 #@! TF.CreationDate,2025-02-15T20:42:59--1:00*
G04 #@! TF.Part,Single*
%FSLAX35Y35*%
%LPD*%
%MOMM*%
G04 #@! TF.FileFunction,Paste,Bot*
G04 #@! TF.FilePolarity,Positive*
G04 #@! TA.AperFunction,SMDPad,CuDef*
%ADD14R,1.40000X0.90000*%
%ADD15R,0.70000X2.00000*%
%ADD16R,1.80000X1.00000*%
%ADD17R,1.40000X3.60000*%
%ADD18R,0.90000X1.40000*%
%ADD19R,2.00000X0.70000*%
%ADD70R,1.20000X1.10000*%
G04 #@! TD.AperFunction*
X0Y0D02*
D02*
D14*
X2416500Y1690250D03*
Y1880750D03*
X2591125Y1690250D03*
Y1880750D03*
X2797500Y1690250D03*
Y1880750D03*
X9211000Y5103375D03*
Y5293875D03*
X9226875Y4150875D03*
Y4341375D03*
X9290375Y3261875D03*
Y3452375D03*
X9385625Y5833625D03*
Y6024125D03*
X10036500Y2801500D03*
Y2992000D03*
X10163500Y6198750D03*
Y6389250D03*
X10798500Y3166625D03*
Y3357125D03*
X10862000Y5738375D03*
Y5928875D03*
X10957250Y3992125D03*
Y4182625D03*
Y4912875D03*
Y5103375D03*
X12433625Y2912625D03*
Y3103125D03*
X12449500Y3769875D03*
Y3960375D03*
Y5500250D03*
Y5690750D03*
X12465375Y4690625D03*
Y4881125D03*
X12560625Y6373375D03*
Y6563875D03*
X13036875Y5166875D03*
Y5357375D03*
X13354375Y4420750D03*
Y4611250D03*
X13656000Y3658750D03*
Y3849250D03*
X14354500Y2738000D03*
Y2928500D03*
X14449750Y3738125D03*
Y3928625D03*
Y4658875D03*
Y4849375D03*
X14465625Y5484375D03*
Y5674875D03*
X14576750Y6357500D03*
Y6548000D03*
X17196125Y2896750D03*
Y3087250D03*
X17434250Y3722250D03*
Y3912750D03*
X17704125Y4547750D03*
Y4738250D03*
X17926375Y5341500D03*
Y5532000D03*
X18037500Y3500000D03*
Y3690500D03*
X18212125Y5833625D03*
Y6024125D03*
X18497875Y5103375D03*
Y5293875D03*
X18640750Y4341375D03*
Y4531875D03*
X18831250Y3515875D03*
Y3706375D03*
X19069375Y2738000D03*
Y2928500D03*
X20641000D03*
Y3119000D03*
X20656875Y3801625D03*
Y3992125D03*
Y4658875D03*
Y4849375D03*
Y6341625D03*
Y6532125D03*
X20672750Y5500250D03*
Y5690750D03*
X21799875Y2801500D03*
Y2992000D03*
Y3627000D03*
Y3817500D03*
Y4516000D03*
Y4706500D03*
Y5341500D03*
Y5532000D03*
Y6198750D03*
Y6389250D03*
X22688875Y6421000D03*
Y6611500D03*
X22800000Y4420750D03*
Y4611250D03*
X23323875Y3865125D03*
Y4055625D03*
X23546125Y6325750D03*
Y6516250D03*
X23704875Y2992000D03*
Y3182500D03*
X23720750Y4722375D03*
Y4912875D03*
X23863625Y5309750D03*
Y5500250D03*
D02*
D15*
X2249688Y1454188D03*
X2369688D03*
X2469688D03*
X2569688D03*
X2669688D03*
X2789688D03*
D02*
D16*
X3027688Y1667250D03*
Y1967250D03*
D02*
D17*
X1471938Y3563500D03*
Y5595500D03*
X1725938Y3563500D03*
Y5595500D03*
X1979938Y3563500D03*
Y5595500D03*
X2233938Y3563500D03*
Y5595500D03*
X2487938Y3563500D03*
Y5595500D03*
X2741938Y3563500D03*
Y5595500D03*
X2995938Y3563500D03*
Y5595500D03*
X3249938Y3563500D03*
Y5595500D03*
X3503938Y3563500D03*
Y5595500D03*
X3757938Y3563500D03*
Y5595500D03*
X4011938Y3563500D03*
Y5595500D03*
X4265938Y3563500D03*
Y5595500D03*
X4519938Y3563500D03*
Y5595500D03*
X4773938Y3563500D03*
Y5595500D03*
X5027938Y3563500D03*
Y5595500D03*
X5281938Y3563500D03*
Y5595500D03*
X5535938Y3563500D03*
Y5595500D03*
X5789938Y3563500D03*
Y5595500D03*
X6043938Y3563500D03*
Y5595500D03*
X6297938Y3563500D03*
Y5595500D03*
D02*
D18*
X1916438Y6706750D03*
X2019625Y6500375D03*
Y7103625D03*
X2106938Y6706750D03*
X2130750Y2031563D03*
Y2206188D03*
X2210125Y6500375D03*
Y7103625D03*
X2226000Y7325875D03*
X2321250Y2031563D03*
Y2206188D03*
X2353000Y8214875D03*
X2416500Y7325875D03*
X2543500Y8214875D03*
D02*
D19*
X1902625Y1793313D03*
Y1913313D03*
Y2013313D03*
Y2113313D03*
Y2213313D03*
Y2333313D03*
D02*
D70*
X9853938Y2379000D03*
Y2589000D03*
X0Y0D02*
M02*
