G04 GENERATED BY PULSONIX 12.5 GERBER.DLL 9449*
G04 #@! TF.GenerationSoftware,Pulsonix,Pulsonix,12.5.9449*
G04 #@! TF.CreationDate,2025-02-15T20:42:59--1:00*
G04 #@! TF.Part,Single*
%FSLAX35Y35*%
%LPD*%
%MOMM*%
G04 #@! TF.FileFunction,Legend,Top*
G04 #@! TF.FilePolarity,Positive*
G04 #@! TA.AperFunction,Profile*
%ADD10C,0.30000*%
G04 #@! TA.AperFunction,Material*
%ADD11C,0.20000*%
G04 #@! TD.AperFunction*
%ADD12C,0.00001*%
G04 #@! TA.AperFunction,Material*
%ADD13C,0.20320*%
%ADD14C,0.15000*%
G04 #@! TD.AperFunction*
X0Y0D02*
D02*
D10*
X31295000Y850500D02*
Y8850500D01*
X1295000D01*
Y850500D01*
X31295000D01*
D02*
D11*
X12471000Y5549500D02*
X13201250D01*
X12852000Y6121000D01*
X12344000Y6025750D01*
X12471000Y5549500D01*
G36*
X12471000Y5549500D02*
X13201250D01*
X12852000Y6121000D01*
X12344000Y6025750D01*
X12471000Y5549500D01*
G37*
X14344250Y4120750D02*
X13645750D01*
X13963250Y3454000D01*
X14503000Y3517500D01*
X14344250Y4120750D01*
G36*
X14344250Y4120750D02*
X13645750D01*
X13963250Y3454000D01*
X14503000Y3517500D01*
X14344250Y4120750D01*
G37*
X17360500Y4660500D02*
X16916000Y3263500D01*
X17424000Y3073000D01*
X17551000Y3390500D01*
X18821000D01*
X18948000Y3073000D01*
X19329000Y3136500D01*
X19075000Y4216000D01*
X17741500D01*
X17868500Y4533500D01*
X17360500Y4660500D01*
G36*
X17360500Y4660500D02*
X16916000Y3263500D01*
X17424000Y3073000D01*
X17551000Y3390500D01*
X18821000D01*
X18948000Y3073000D01*
X19329000Y3136500D01*
X19075000Y4216000D01*
X17741500D01*
X17868500Y4533500D01*
X17360500Y4660500D01*
G37*
D02*
D12*
X10085096Y2719159D02*
X9987000Y2722662D01*
X9892408Y2729669D01*
X9797816Y2740179D01*
X9710230Y2757696D01*
X9626148Y2778717D01*
X9542066Y2806744D01*
X9461488Y2838275D01*
X9387916Y2876812D01*
X9314344Y2915350D01*
X9247779Y2960895D01*
X9184718Y3009942D01*
X9125160Y3065997D01*
X9069105Y3122052D01*
X9020057Y3185113D01*
X8974513Y3251678D01*
X8928968Y3321747D01*
X8893934Y3395318D01*
X8858900Y3472394D01*
X8834376Y3552972D01*
X8809852Y3633551D01*
X8792335Y3721136D01*
X8781825Y3812225D01*
X8771314Y3903314D01*
Y4001410D01*
Y5770636D01*
Y5868731D01*
X8781825Y5963324D01*
X8792335Y6054413D01*
X8809852Y6141998D01*
X8834376Y6222577D01*
X8858900Y6303155D01*
X8893934Y6380230D01*
X8928968Y6453802D01*
X8974513Y6523871D01*
X9020057Y6590436D01*
X9069105Y6653497D01*
X9125160Y6709552D01*
X9184718Y6762103D01*
X9247779Y6811151D01*
X9314344Y6856695D01*
X9387916Y6898736D01*
X9461488Y6933771D01*
X9542066Y6965301D01*
X9626148Y6993329D01*
X9710230Y7014349D01*
X9797816Y7031866D01*
X9892408Y7042376D01*
X9987000Y7049383D01*
X10085096Y7052887D01*
X10186695Y7049383D01*
X10281288Y7042376D01*
X10375880Y7031866D01*
X10463465Y7014349D01*
X10551051Y6993329D01*
X10631629Y6965301D01*
X10712208Y6933771D01*
X10789283Y6898736D01*
X10859352Y6856695D01*
X10929420Y6811151D01*
X10992481Y6762103D01*
X11052040Y6709552D01*
X11104591Y6653497D01*
X11157142Y6590436D01*
X11202687Y6523871D01*
X11244728Y6453802D01*
X11283265Y6380230D01*
X11314796Y6303155D01*
X11342823Y6222577D01*
X11363844Y6141998D01*
X11381361Y6054413D01*
X11395375Y5963324D01*
X11402381Y5868731D01*
X11405885Y5770636D01*
Y4001410D01*
X11402381Y3903314D01*
X11395375Y3812225D01*
X11381361Y3721136D01*
X11363844Y3633551D01*
X11342823Y3552972D01*
X11314796Y3472394D01*
X11283265Y3395318D01*
X11244728Y3321747D01*
X11202687Y3251678D01*
X11157142Y3185113D01*
X11104591Y3122052D01*
X11052040Y3065997D01*
X10992481Y3009942D01*
X10929420Y2960895D01*
X10859352Y2915350D01*
X10789283Y2876812D01*
X10712208Y2838275D01*
X10631629Y2806744D01*
X10551051Y2778717D01*
X10463465Y2757696D01*
X10375880Y2740179D01*
X10281288Y2729669D01*
X10186695Y2722662D01*
X10085096Y2719159D01*
Y3479400D02*
X10148158Y3482904D01*
X10204212Y3489911D01*
X10256764Y3500421D01*
X10309315Y3517938D01*
X10354859Y3535455D01*
X10400404Y3563482D01*
X10442445Y3591510D01*
X10477479Y3626544D01*
X10512513Y3668585D01*
X10540541Y3710626D01*
X10568568Y3756170D01*
X10586085Y3805218D01*
X10603602Y3857770D01*
X10614112Y3913824D01*
X10621119Y3973382D01*
X10624623Y4036444D01*
Y5739105D01*
X10621119Y5798663D01*
X10614112Y5858221D01*
X10603602Y5914276D01*
X10586085Y5966827D01*
X10568568Y6015875D01*
X10544044Y6061419D01*
X10512513Y6103460D01*
X10480982Y6141998D01*
X10442445Y6177032D01*
X10400404Y6208563D01*
X10358363Y6233087D01*
X10309315Y6254107D01*
X10260267Y6271625D01*
X10204212Y6282135D01*
X10148158Y6289142D01*
X10085096Y6292645D01*
X10025538Y6289142D01*
X9969483Y6282135D01*
X9916932Y6271625D01*
X9867884Y6254107D01*
X9818836Y6233087D01*
X9776795Y6208563D01*
X9734754Y6177032D01*
X9696217Y6141998D01*
X9661183Y6103460D01*
X9633155Y6061419D01*
X9608631Y6015875D01*
X9587611Y5966827D01*
X9573597Y5914276D01*
X9559583Y5858221D01*
X9556080Y5798663D01*
X9552577Y5739105D01*
Y4036444D01*
X9556080Y3973382D01*
X9559583Y3913824D01*
X9573597Y3857770D01*
X9587611Y3805218D01*
X9608631Y3756170D01*
X9633155Y3710626D01*
X9661183Y3668585D01*
X9696217Y3626544D01*
X9734754Y3591510D01*
X9776795Y3563482D01*
X9818836Y3535455D01*
X9867884Y3517938D01*
X9916932Y3500421D01*
X9969483Y3489911D01*
X10025538Y3482904D01*
X10085096Y3479400D01*
X8771314Y4886022D02*
G36*
X8771314Y4886022D02*
Y4001410D01*
Y3903314D01*
X8781825Y3812225D01*
X8792335Y3721136D01*
X8809852Y3633551D01*
X8834376Y3552972D01*
X8858900Y3472394D01*
X8893934Y3395318D01*
X8928968Y3321747D01*
X8974513Y3251678D01*
X9020057Y3185113D01*
X9069105Y3122052D01*
X9125160Y3065997D01*
X9184718Y3009942D01*
X9247779Y2960895D01*
X9314344Y2915350D01*
X9387916Y2876812D01*
X9461488Y2838275D01*
X9542066Y2806744D01*
X9626148Y2778717D01*
X9710230Y2757696D01*
X9797816Y2740179D01*
X9892408Y2729669D01*
X9987000Y2722662D01*
X10085096Y2719159D01*
X10186695Y2722662D01*
X10281288Y2729669D01*
X10375880Y2740179D01*
X10463465Y2757696D01*
X10551051Y2778717D01*
X10631629Y2806744D01*
X10712208Y2838275D01*
X10789283Y2876812D01*
X10859352Y2915350D01*
X10929420Y2960895D01*
X10992481Y3009942D01*
X11052040Y3065997D01*
X11104591Y3122052D01*
X11157142Y3185113D01*
X11202687Y3251678D01*
X11244728Y3321747D01*
X11283265Y3395318D01*
X11314796Y3472394D01*
X11342823Y3552972D01*
X11363844Y3633551D01*
X11381361Y3721136D01*
X11395375Y3812225D01*
X11402381Y3903314D01*
X11405885Y4001410D01*
Y4886022D01*
X10624623D01*
Y4036444D01*
X10621119Y3973382D01*
X10614112Y3913824D01*
X10603602Y3857770D01*
X10586085Y3805218D01*
X10568568Y3756170D01*
X10540541Y3710626D01*
X10512513Y3668585D01*
X10477479Y3626544D01*
X10442445Y3591510D01*
X10400404Y3563482D01*
X10354859Y3535455D01*
X10309315Y3517938D01*
X10256764Y3500421D01*
X10204212Y3489911D01*
X10148158Y3482904D01*
X10085096Y3479400D01*
X10025538Y3482904D01*
X9969483Y3489911D01*
X9916932Y3500421D01*
X9867884Y3517938D01*
X9818836Y3535455D01*
X9776795Y3563482D01*
X9734754Y3591510D01*
X9696217Y3626544D01*
X9661183Y3668585D01*
X9633155Y3710626D01*
X9608631Y3756170D01*
X9587611Y3805218D01*
X9573597Y3857770D01*
X9559583Y3913824D01*
X9556080Y3973382D01*
X9552577Y4036444D01*
Y4886022D01*
X8771314D01*
G37*
Y5868731D02*
G36*
X8771314Y5868731D02*
Y5770636D01*
Y4886022D01*
X9552577D01*
Y5739105D01*
X9556080Y5798663D01*
X9559583Y5858221D01*
X9573597Y5914276D01*
X9587611Y5966827D01*
X9608631Y6015875D01*
X9633155Y6061419D01*
X9661183Y6103460D01*
X9696217Y6141998D01*
X9734754Y6177032D01*
X9776795Y6208563D01*
X9818836Y6233087D01*
X9867884Y6254107D01*
X9916932Y6271625D01*
X9969483Y6282135D01*
X10025538Y6289142D01*
X10085096Y6292645D01*
X10148158Y6289142D01*
X10204212Y6282135D01*
X10260267Y6271625D01*
X10309315Y6254107D01*
X10358363Y6233087D01*
X10400404Y6208563D01*
X10442445Y6177032D01*
X10480982Y6141998D01*
X10512513Y6103460D01*
X10544044Y6061419D01*
X10568568Y6015875D01*
X10586085Y5966827D01*
X10603602Y5914276D01*
X10614112Y5858221D01*
X10621119Y5798663D01*
X10624623Y5739105D01*
Y4886022D01*
X11405885D01*
Y5770636D01*
X11402381Y5868731D01*
X11395375Y5963324D01*
X11381361Y6054413D01*
X11363844Y6141998D01*
X11342823Y6222577D01*
X11314796Y6303155D01*
X11283265Y6380230D01*
X11244728Y6453802D01*
X11202687Y6523871D01*
X11157142Y6590436D01*
X11104591Y6653497D01*
X11052040Y6709552D01*
X10992481Y6762103D01*
X10929420Y6811151D01*
X10859352Y6856695D01*
X10789283Y6898736D01*
X10712208Y6933771D01*
X10631629Y6965301D01*
X10551051Y6993329D01*
X10463465Y7014349D01*
X10375880Y7031866D01*
X10281288Y7042376D01*
X10186695Y7049383D01*
X10085096Y7052887D01*
X9987000Y7049383D01*
X9892408Y7042376D01*
X9797816Y7031866D01*
X9710230Y7014349D01*
X9626148Y6993329D01*
X9542066Y6965301D01*
X9461488Y6933771D01*
X9387916Y6898736D01*
X9314344Y6856695D01*
X9247779Y6811151D01*
X9184718Y6762103D01*
X9125160Y6709552D01*
X9069105Y6653497D01*
X9020057Y6590436D01*
X8974513Y6523871D01*
X8928968Y6453802D01*
X8893934Y6380230D01*
X8858900Y6303155D01*
X8834376Y6222577D01*
X8809852Y6141998D01*
X8792335Y6054413D01*
X8781825Y5963324D01*
X8771314Y5868731D01*
G37*
X12089051Y2764703D02*
Y7007342D01*
X12863307D01*
X14149061Y3962872D01*
X14075489Y3871783D01*
Y7007342D01*
X14790187D01*
Y2764703D01*
X14008924D01*
X12730177Y5704071D01*
X12800245Y5798663D01*
Y2764703D01*
X12089051D01*
G36*
X12089051Y2764703D02*
Y7007342D01*
X12863307D01*
X14149061Y3962872D01*
X14075489Y3871783D01*
Y7007342D01*
X14790187D01*
Y2764703D01*
X14008924D01*
X12730177Y5704071D01*
X12800245Y5798663D01*
Y2764703D01*
X12089051D01*
G37*
X16615467D02*
X17929249Y7007342D01*
X18437245D01*
X19758033Y2764703D01*
X18966261D01*
X18184999Y5602472D01*
X17403736Y2764703D01*
X16615467D01*
X17347682Y3437359D02*
Y4162567D01*
X19043336D01*
Y3437359D01*
X17347682D01*
X16615467Y2764703D02*
G36*
X16615467Y2764703D02*
X17403736D01*
X17588924Y3437359D01*
X17347682D01*
Y4162567D01*
X17788580D01*
X18184999Y5602472D01*
X18581417Y4162567D01*
X19043336D01*
Y3437359D01*
X18781073D01*
X18966261Y2764703D01*
X19758033D01*
X18437245Y7007342D01*
X17929249D01*
X16615467Y2764703D01*
G37*
X20896644Y7007342D02*
Y2764703D01*
X20118885D01*
Y7007342D01*
X20896644D01*
G36*
X20896644Y7007342D02*
Y2764703D01*
X20118885D01*
Y7007342D01*
X20896644D01*
G37*
X21888111Y4512909D02*
Y5245123D01*
X23009205D01*
X23086280Y5252130D01*
X23156349Y5273150D01*
X23215907Y5304681D01*
X23268458Y5350226D01*
X23310499Y5409784D01*
X23338526Y5476349D01*
X23359547Y5549920D01*
X23363050Y5637506D01*
Y5872235D01*
X23359547Y5959820D01*
X23342030Y6036896D01*
X23310499Y6106964D01*
X23268458Y6166522D01*
X23215907Y6212066D01*
X23156349Y6247101D01*
X23086280Y6268121D01*
X23009205Y6275128D01*
X21888111D01*
Y7007342D01*
X23016212D01*
X23103797Y7003839D01*
X23184376Y7000335D01*
X23264955Y6989825D01*
X23342030Y6972308D01*
X23415602Y6954791D01*
X23489173Y6930267D01*
X23555738Y6905743D01*
X23622303Y6874212D01*
X23681861Y6835675D01*
X23741419Y6797137D01*
X23793971Y6755096D01*
X23846522Y6709552D01*
X23892066Y6660504D01*
X23937611Y6604449D01*
X23976148Y6548395D01*
X24011183Y6488836D01*
X24042713Y6422271D01*
X24070741Y6355707D01*
X24095265Y6285638D01*
X24116285Y6212066D01*
X24130299Y6138495D01*
X24140809Y6057916D01*
X24147816Y5977337D01*
Y5893255D01*
Y5644513D01*
Y5556927D01*
X24140809Y5476349D01*
X24130299Y5395770D01*
X24112782Y5318695D01*
X24095265Y5245123D01*
X24070741Y5175055D01*
X24042713Y5104986D01*
X24011183Y5041925D01*
X23972645Y4978863D01*
X23934107Y4919305D01*
X23892066Y4866754D01*
X23843019Y4814203D01*
X23793971Y4768658D01*
X23737916Y4726617D01*
X23681861Y4684576D01*
X23618800Y4649542D01*
X23555738Y4618011D01*
X23485670Y4589984D01*
X23415602Y4565460D01*
X23342030Y4547943D01*
X23264955Y4530426D01*
X23184376Y4519916D01*
X23103797Y4516412D01*
X23016212Y4512909D01*
X21888111D01*
G36*
X21888111Y4512909D02*
Y5245123D01*
X23009205D01*
X23086280Y5252130D01*
X23156349Y5273150D01*
X23215907Y5304681D01*
X23268458Y5350226D01*
X23310499Y5409784D01*
X23338526Y5476349D01*
X23359547Y5549920D01*
X23363050Y5637506D01*
Y5872235D01*
X23359547Y5959820D01*
X23342030Y6036896D01*
X23310499Y6106964D01*
X23268458Y6166522D01*
X23215907Y6212066D01*
X23156349Y6247101D01*
X23086280Y6268121D01*
X23009205Y6275128D01*
X21888111D01*
Y7007342D01*
X23016212D01*
X23103797Y7003839D01*
X23184376Y7000335D01*
X23264955Y6989825D01*
X23342030Y6972308D01*
X23415602Y6954791D01*
X23489173Y6930267D01*
X23555738Y6905743D01*
X23622303Y6874212D01*
X23681861Y6835675D01*
X23741419Y6797137D01*
X23793971Y6755096D01*
X23846522Y6709552D01*
X23892066Y6660504D01*
X23937611Y6604449D01*
X23976148Y6548395D01*
X24011183Y6488836D01*
X24042713Y6422271D01*
X24070741Y6355707D01*
X24095265Y6285638D01*
X24116285Y6212066D01*
X24130299Y6138495D01*
X24140809Y6057916D01*
X24147816Y5977337D01*
Y5893255D01*
Y5644513D01*
Y5556927D01*
X24140809Y5476349D01*
X24130299Y5395770D01*
X24112782Y5318695D01*
X24095265Y5245123D01*
X24070741Y5175055D01*
X24042713Y5104986D01*
X24011183Y5041925D01*
X23972645Y4978863D01*
X23934107Y4919305D01*
X23892066Y4866754D01*
X23843019Y4814203D01*
X23793971Y4768658D01*
X23737916Y4726617D01*
X23681861Y4684576D01*
X23618800Y4649542D01*
X23555738Y4618011D01*
X23485670Y4589984D01*
X23415602Y4565460D01*
X23342030Y4547943D01*
X23264955Y4530426D01*
X23184376Y4519916D01*
X23103797Y4516412D01*
X23016212Y4512909D01*
X21888111D01*
G37*
X21565797Y2764703D02*
Y7007342D01*
X22319032D01*
Y2764703D01*
X21565797D01*
G36*
X21565797Y2764703D02*
Y7007342D01*
X22319032D01*
Y2764703D01*
X21565797D01*
G37*
X23426112D02*
X22627333Y4642535D01*
X23387574Y4779168D01*
X24298463Y2764703D01*
X23426112D01*
G36*
X23426112Y2764703D02*
X22627333Y4642535D01*
X23387574Y4779168D01*
X24298463Y2764703D01*
X23426112D01*
G37*
D02*
D13*
X8893500Y4135000D02*
Y4643000D01*
Y5087500D02*
Y5595500D01*
X8927530Y6074030D02*
X9181530Y6513970D01*
Y3153030D02*
X8927530Y3592970D01*
X9367470Y3846970D02*
X9621470Y3407030D01*
X9401500Y4643000D02*
Y4135000D01*
Y5595500D02*
Y5087500D01*
X9621470Y6259970D02*
X9367470Y5820030D01*
X9846000Y3309500D02*
X10354000D01*
X9846000Y6865500D02*
X10354000D01*
Y2801500D02*
X9846000D01*
X10354000Y6357500D02*
X9846000D01*
X10578530Y3407030D02*
X10832530Y3846970D01*
X10798500Y4135000D02*
Y4643000D01*
Y5087500D02*
Y5595500D01*
X10832530Y5820030D02*
X10578530Y6259970D01*
X11018470Y6513970D02*
X11272470Y6074030D01*
Y3592970D02*
X11018470Y3153030D01*
X11306500Y4643000D02*
Y4135000D01*
Y5595500D02*
Y5087500D01*
X12147875Y2880875D02*
Y3388875D01*
Y3706375D02*
Y4214375D01*
Y4595375D02*
Y5103375D01*
Y5420875D02*
Y5928875D01*
Y6309875D02*
Y6817875D01*
X12655875Y3388875D02*
Y2880875D01*
Y4214375D02*
Y3706375D01*
Y5103375D02*
Y4595375D01*
Y5928875D02*
Y5420875D01*
Y6817875D02*
Y6309875D01*
X12949939Y5262446D02*
X12751446Y5730061D01*
X13219061Y5928554D02*
X13417554Y5460939D01*
X13267437Y4500446D02*
X13068946Y4968063D01*
X13536563Y5166554D02*
X13735054Y4698937D01*
X13584937Y3738446D02*
X13386446Y4206063D01*
X13854063Y4404554D02*
X14052554Y3936937D01*
X14164000Y2880875D02*
Y3388875D01*
Y3706375D02*
Y4214375D01*
Y4595375D02*
Y5103375D01*
Y5420875D02*
Y5928875D01*
Y6309875D02*
Y6817875D01*
X14672000Y3388875D02*
Y2880875D01*
Y4214375D02*
Y3706375D01*
Y5103375D02*
Y4595375D01*
Y5928875D02*
Y5420875D01*
Y6817875D02*
Y6309875D01*
X16799586Y3013862D02*
X16948112Y3499664D01*
X17053586Y3839361D02*
X17202111Y4325164D01*
X17291711Y4617236D02*
X17440236Y5103039D01*
X17433914Y3351138D02*
X17285388Y2865336D01*
X17513961Y5410986D02*
X17662486Y5896789D01*
X17687914Y4176639D02*
X17539389Y3690836D01*
X17894625Y4023875D02*
X18402625D01*
X17894625Y6579750D02*
X18402625D01*
X17926039Y4954514D02*
X17777514Y4468711D01*
X18148289Y5748264D02*
X17999764Y5262461D01*
X18329236D02*
X18180711Y5748264D01*
X18402625Y3515875D02*
X17894625D01*
X18402625Y6071750D02*
X17894625D01*
X18551486Y4468711D02*
X18402961Y4954514D01*
X18666514Y5896789D02*
X18815039Y5410986D01*
X18805486Y3690836D02*
X18656961Y4176639D01*
X18888764Y5103039D02*
X19037289Y4617236D01*
X19043611Y2865336D02*
X18895086Y3351139D01*
X19142764Y4325164D02*
X19291289Y3839361D01*
X19380889Y3499664D02*
X19529414Y3013861D01*
X20244125Y2946000D02*
Y3454000D01*
Y3771500D02*
Y4279500D01*
Y4660500D02*
Y5168500D01*
Y5486000D02*
Y5994000D01*
Y6311500D02*
Y6819500D01*
X20752125Y3454000D02*
Y2946000D01*
Y4279500D02*
Y3771500D01*
Y5168500D02*
Y4660500D01*
Y5994000D02*
Y5486000D01*
Y6819500D02*
Y6311500D01*
X21704625Y2946000D02*
Y3454000D01*
Y3771500D02*
Y4279500D01*
Y4660500D02*
Y5168500D01*
Y5486000D02*
Y5994000D01*
Y6311500D02*
Y6819500D01*
X22212625Y3454000D02*
Y2946000D01*
Y4279500D02*
Y3771500D01*
Y5168500D02*
Y4660500D01*
Y5994000D02*
Y5486000D01*
Y6819500D02*
Y6311500D01*
X22482500Y5135125D02*
X22990500D01*
X22514250Y6819500D02*
X23022250D01*
X22990500Y4627125D02*
X22482500D01*
X23022250Y6311500D02*
X22514250D01*
X23147521Y3720274D02*
X22940899Y4184354D01*
X23202790Y5087500D02*
X23562000Y5446710D01*
X23404979Y4390976D02*
X23611601Y3926896D01*
X23482625Y6109415D02*
X23123415Y6468625D01*
X23482625Y6827835D02*
X23841835Y6468625D01*
X23514375Y6024125D02*
X24022375D01*
X23528521Y2847148D02*
X23321898Y3311229D01*
X23785979Y3517852D02*
X23992602Y3053771D01*
X23921210Y5087500D02*
X23562000Y4728290D01*
X24022375Y5516125D02*
X23514375D01*
D02*
D14*
X2084250Y8059125D02*
Y7799125D01*
X2304250D02*
Y8059125D01*
Y7959605D02*
G75*
G03*
Y7898645I0J-30480D01*
G01*
X0Y0D02*
M02*
