G04 GENERATED BY PULSONIX 12.5 GERBER.DLL 9449*
G04 #@! TF.GenerationSoftware,Pulsonix,Pulsonix,12.5.9449*
G04 #@! TF.CreationDate,2025-02-15T20:42:59--1:00*
G04 #@! TF.Part,Single*
%FSLAX35Y35*%
%LPD*%
%MOMM*%
G04 #@! TF.FileFunction,Copper,L2,Bot*
G04 #@! TF.FilePolarity,Positive*
G04 #@! TA.AperFunction,OtherCopper,Copper*
%ADD14C,0.50000*%
%ADD15C,0.30000*%
G04 #@! TA.AperFunction,ViaPad*
%ADD16C,0.70000*%
G04 #@! TA.AperFunction,Conductor*
%ADD17C,0.40640*%
%ADD18C,1.27000*%
%ADD19C,0.63500*%
G04 #@! TA.AperFunction,ViaPad*
%ADD70C,0.60000*%
G04 #@! TA.AperFunction,Conductor*
%ADD71C,0.20320*%
G04 #@! TA.AperFunction,SMDPad,CuDef*
%ADD20R,1.40000X0.90000*%
%ADD21R,0.70000X2.00000*%
G04 #@! TA.AperFunction,ComponentPad*
%ADD22O,0.85000X1.35000*%
G04 #@! TA.AperFunction,SMDPad,CuDef*
%ADD23R,1.80000X1.00000*%
%ADD24R,1.40000X3.60000*%
%ADD25R,0.90000X1.40000*%
%ADD26R,2.00000X0.70000*%
G04 #@! TA.AperFunction,ComponentPad*
%ADD27O,1.35000X0.85000*%
G04 #@! TA.AperFunction,SMDPad,CuDef*
%ADD28R,1.20000X1.10000*%
G04 #@! TD.AperFunction*
X0Y0D02*
D02*
D14*
X1385800Y8759700D02*
Y5812362D01*
G75*
G02*
X1401938Y5815740I16138J-36862D01*
G01*
X1517714D01*
X2064475Y6362501D01*
Y6390135D01*
X1974625D01*
G75*
G02*
X1971619Y6390247I-6J40240D01*
G01*
X1879621Y6298249D01*
G75*
G02*
X1738010Y6333688I-66371J35439D01*
G01*
G75*
G02*
X1777811Y6400059I75240J0D01*
G01*
X1878273Y6500521D01*
X1873798Y6504996D01*
G75*
G02*
X1855878Y6548000I42640J43004D01*
G01*
Y6599640D01*
G75*
G02*
X1831198Y6636750I15560J37110D01*
G01*
Y6776750D01*
G75*
G02*
X1855878Y6813860I40240J0D01*
G01*
Y6873438D01*
G75*
G02*
X1873798Y6916442I60560J0D01*
G01*
X1955550Y6998194D01*
G75*
G02*
X1934385Y7033625I19075J35431D01*
G01*
Y7173625D01*
G75*
G02*
X1959065Y7210735I40240J0D01*
G01*
Y7688625D01*
G75*
G02*
X1976985Y7731629I60560J0D01*
G01*
X2292440Y8047084D01*
Y8107765D01*
G75*
G02*
X2267787Y8143411I15560J37110D01*
G01*
G75*
G02*
X2169010Y8214875I-23537J71464D01*
G01*
G75*
G02*
X2267787Y8286339I75240J0D01*
G01*
G75*
G02*
X2308000Y8325115I40213J-1464D01*
G01*
X2398000D01*
G75*
G02*
X2438240Y8284875I0J-40240D01*
G01*
Y8144875D01*
G75*
G02*
X2413560Y8107765I-40240J0D01*
G01*
Y8022000D01*
G75*
G02*
X2395640Y7978996I-60560J0D01*
G01*
X2080185Y7663541D01*
Y7640423D01*
G75*
G02*
X2209886Y7586615I64065J-28798D01*
G01*
G75*
G02*
X2224445Y7585140I238J-70240D01*
G01*
G75*
G02*
X2219260Y7611625I65055J26486D01*
G01*
G75*
G02*
X2359740I70240J0D01*
G01*
G75*
G02*
X2339900Y7562702I-70240J0D01*
G01*
Y7473751D01*
X2364712Y7448939D01*
G75*
G02*
X2371302Y7440875I-35522J-35754D01*
G01*
X2371500D01*
X2461500D01*
G75*
G02*
X2506500Y7395875I0J-45000D01*
G01*
Y7255875D01*
G75*
G02*
X2461500Y7210875I-45000J0D01*
G01*
X2379588D01*
Y7183000D01*
G75*
G02*
X2364712Y7147248I-50400J0D01*
G01*
X2339900Y7122436D01*
Y6506895D01*
G75*
G02*
Y6493855I-50400J-6520D01*
G01*
Y6381312D01*
G75*
G02*
X2325024Y6345560I-50400J0D01*
G01*
X1795204Y5815740D01*
X1795938D01*
G75*
G02*
X1836178Y5775500I0J-40240D01*
G01*
Y5415500D01*
G75*
G02*
X1795938Y5375260I-40240J0D01*
G01*
X1655938D01*
G75*
G02*
X1615698Y5415500I0J40240D01*
G01*
Y5771172D01*
X1582178Y5737652D01*
Y5415500D01*
G75*
G02*
X1541938Y5375260I-40240J0D01*
G01*
X1401938D01*
G75*
G02*
X1385800Y5378638I0J40240D01*
G01*
Y3780362D01*
G75*
G02*
X1401938Y3783740I16138J-36862D01*
G01*
X1541938D01*
G75*
G02*
X1582178Y3743500I0J-40240D01*
G01*
Y3383500D01*
G75*
G02*
X1541938Y3343260I-40240J0D01*
G01*
X1401938D01*
G75*
G02*
X1385800Y3346638I0J40240D01*
G01*
Y2580047D01*
G75*
G02*
X1407625Y2582813I21827J-84734D01*
G01*
X1457625D01*
G75*
G02*
Y2407813I0J-87500D01*
G01*
X1407625D01*
G75*
G02*
X1385800Y2410579I2J87500D01*
G01*
Y1716047D01*
G75*
G02*
X1407625Y1718813I21827J-84734D01*
G01*
X1457625D01*
G75*
G02*
Y1543813I0J-87500D01*
G01*
X1407625D01*
G75*
G02*
X1385800Y1546579I2J87500D01*
G01*
Y941300D01*
X2002036D01*
G75*
G02*
X2000188Y959188I85652J17888D01*
G01*
Y1009188D01*
G75*
G02*
X2175188I87500J0D01*
G01*
Y959188D01*
G75*
G02*
X2173340Y941300I-87500J0D01*
G01*
X2866036D01*
G75*
G02*
X2864188Y959188I85652J17888D01*
G01*
Y1009188D01*
G75*
G02*
X3039188I87500J0D01*
G01*
Y959188D01*
G75*
G02*
X3037340Y941300I-87500J0D01*
G01*
X31204200D01*
Y8759700D01*
X1385800D01*
X1890240Y8450500D02*
G75*
G02*
X1499760I-195240J0D01*
G01*
G75*
G02*
X1890240I195240J0D01*
G01*
X2453500Y8284875D02*
G75*
G02*
X2498500Y8329875I45000J0D01*
G01*
X2588500D01*
G75*
G02*
X2633500Y8284875I0J-45000D01*
G01*
Y8144875D01*
G75*
G02*
X2588500Y8099875I-45000J0D01*
G01*
X2498500D01*
G75*
G02*
X2453500Y8144875I0J45000D01*
G01*
Y8284875D01*
X2631698Y5775500D02*
G75*
G02*
X2671938Y5815740I40240J0D01*
G01*
X2811938D01*
G75*
G02*
X2852178Y5775500I0J-40240D01*
G01*
Y5415500D01*
G75*
G02*
X2811938Y5375260I-40240J0D01*
G01*
X2671938D01*
G75*
G02*
X2631698Y5415500I0J40240D01*
G01*
Y5775500D01*
X2885698D02*
G75*
G02*
X2925938Y5815740I40240J0D01*
G01*
X3065938D01*
G75*
G02*
X3106178Y5775500I0J-40240D01*
G01*
Y5415500D01*
G75*
G02*
X3065938Y5375260I-40240J0D01*
G01*
X2925938D01*
G75*
G02*
X2885698Y5415500I0J40240D01*
G01*
Y5775500D01*
X3134938D02*
G75*
G02*
X3179938Y5820500I45000J0D01*
G01*
X3319938D01*
G75*
G02*
X3364938Y5775500I0J-45000D01*
G01*
Y5415500D01*
G75*
G02*
X3319938Y5370500I-45000J0D01*
G01*
X3179938D01*
G75*
G02*
X3134938Y5415500I0J45000D01*
G01*
Y5775500D01*
X3393698D02*
G75*
G02*
X3433938Y5815740I40240J0D01*
G01*
X3573938D01*
G75*
G02*
X3614178Y5775500I0J-40240D01*
G01*
Y5415500D01*
G75*
G02*
X3573938Y5375260I-40240J0D01*
G01*
X3433938D01*
G75*
G02*
X3393698Y5415500I0J40240D01*
G01*
Y5775500D01*
X3647698D02*
G75*
G02*
X3687938Y5815740I40240J0D01*
G01*
X3827938D01*
G75*
G02*
X3868178Y5775500I0J-40240D01*
G01*
Y5415500D01*
G75*
G02*
X3827938Y5375260I-40240J0D01*
G01*
X3687938D01*
G75*
G02*
X3647698Y5415500I0J40240D01*
G01*
Y5775500D01*
X3901698D02*
G75*
G02*
X3941938Y5815740I40240J0D01*
G01*
X4081938D01*
G75*
G02*
X4122178Y5775500I0J-40240D01*
G01*
Y5415500D01*
G75*
G02*
X4081938Y5375260I-40240J0D01*
G01*
X3941938D01*
G75*
G02*
X3901698Y5415500I0J40240D01*
G01*
Y5775500D01*
X4155698Y3743500D02*
G75*
G02*
X4195938Y3783740I40240J0D01*
G01*
X4335938D01*
G75*
G02*
X4376178Y3743500I0J-40240D01*
G01*
Y3383500D01*
G75*
G02*
X4335938Y3343260I-40240J0D01*
G01*
X4195938D01*
G75*
G02*
X4155698Y3383500I0J40240D01*
G01*
Y3743500D01*
Y5775500D02*
G75*
G02*
X4195938Y5815740I40240J0D01*
G01*
X4335938D01*
G75*
G02*
X4376178Y5775500I0J-40240D01*
G01*
Y5415500D01*
G75*
G02*
X4335938Y5375260I-40240J0D01*
G01*
X4195938D01*
G75*
G02*
X4155698Y5415500I0J40240D01*
G01*
Y5775500D01*
X4404938Y3743500D02*
G75*
G02*
X4449938Y3788500I45000J0D01*
G01*
X4589938D01*
G75*
G02*
X4634938Y3743500I0J-45000D01*
G01*
Y3383500D01*
G75*
G02*
X4589938Y3338500I-45000J0D01*
G01*
X4449938D01*
G75*
G02*
X4404938Y3383500I0J45000D01*
G01*
Y3743500D01*
Y5775500D02*
G75*
G02*
X4449938Y5820500I45000J0D01*
G01*
X4589938D01*
G75*
G02*
X4634938Y5775500I0J-45000D01*
G01*
Y5415500D01*
G75*
G02*
X4589938Y5370500I-45000J0D01*
G01*
X4449938D01*
G75*
G02*
X4404938Y5415500I0J45000D01*
G01*
Y5775500D01*
X4663698Y3743500D02*
G75*
G02*
X4703938Y3783740I40240J0D01*
G01*
X4843938D01*
G75*
G02*
X4884178Y3743500I0J-40240D01*
G01*
Y3383500D01*
G75*
G02*
X4843938Y3343260I-40240J0D01*
G01*
X4703938D01*
G75*
G02*
X4663698Y3383500I0J40240D01*
G01*
Y3743500D01*
Y5775500D02*
G75*
G02*
X4703938Y5815740I40240J0D01*
G01*
X4843938D01*
G75*
G02*
X4884178Y5775500I0J-40240D01*
G01*
Y5415500D01*
G75*
G02*
X4843938Y5375260I-40240J0D01*
G01*
X4703938D01*
G75*
G02*
X4663698Y5415500I0J40240D01*
G01*
Y5775500D01*
X4917698Y3743500D02*
G75*
G02*
X4957938Y3783740I40240J0D01*
G01*
X5097938D01*
G75*
G02*
X5138178Y3743500I0J-40240D01*
G01*
Y3383500D01*
G75*
G02*
X5097938Y3343260I-40240J0D01*
G01*
X4957938D01*
G75*
G02*
X4917698Y3383500I0J40240D01*
G01*
Y3743500D01*
Y5775500D02*
G75*
G02*
X4957938Y5815740I40240J0D01*
G01*
X5097938D01*
G75*
G02*
X5138178Y5775500I0J-40240D01*
G01*
Y5415500D01*
G75*
G02*
X5097938Y5375260I-40240J0D01*
G01*
X4957938D01*
G75*
G02*
X4917698Y5415500I0J40240D01*
G01*
Y5775500D01*
X5171698Y3743500D02*
G75*
G02*
X5211938Y3783740I40240J0D01*
G01*
X5351938D01*
G75*
G02*
X5392178Y3743500I0J-40240D01*
G01*
Y3383500D01*
G75*
G02*
X5351938Y3343260I-40240J0D01*
G01*
X5211938D01*
G75*
G02*
X5171698Y3383500I0J40240D01*
G01*
Y3743500D01*
Y5775500D02*
G75*
G02*
X5211938Y5815740I40240J0D01*
G01*
X5351938D01*
G75*
G02*
X5392178Y5775500I0J-40240D01*
G01*
Y5415500D01*
G75*
G02*
X5351938Y5375260I-40240J0D01*
G01*
X5211938D01*
G75*
G02*
X5171698Y5415500I0J40240D01*
G01*
Y5775500D01*
X5425698Y3743500D02*
G75*
G02*
X5465938Y3783740I40240J0D01*
G01*
X5605938D01*
G75*
G02*
X5646178Y3743500I0J-40240D01*
G01*
Y3383500D01*
G75*
G02*
X5605938Y3343260I-40240J0D01*
G01*
X5465938D01*
G75*
G02*
X5425698Y3383500I0J40240D01*
G01*
Y3743500D01*
Y5775500D02*
G75*
G02*
X5465938Y5815740I40240J0D01*
G01*
X5605938D01*
G75*
G02*
X5646178Y5775500I0J-40240D01*
G01*
Y5415500D01*
G75*
G02*
X5605938Y5375260I-40240J0D01*
G01*
X5465938D01*
G75*
G02*
X5425698Y5415500I0J40240D01*
G01*
Y5775500D01*
X5674938Y3743500D02*
G75*
G02*
X5719938Y3788500I45000J0D01*
G01*
X5859938D01*
G75*
G02*
X5904938Y3743500I0J-45000D01*
G01*
Y3383500D01*
G75*
G02*
X5859938Y3338500I-45000J0D01*
G01*
X5719938D01*
G75*
G02*
X5674938Y3383500I0J45000D01*
G01*
Y3743500D01*
Y5775500D02*
G75*
G02*
X5719938Y5820500I45000J0D01*
G01*
X5859938D01*
G75*
G02*
X5904938Y5775500I0J-45000D01*
G01*
Y5415500D01*
G75*
G02*
X5859938Y5370500I-45000J0D01*
G01*
X5719938D01*
G75*
G02*
X5674938Y5415500I0J45000D01*
G01*
Y5775500D01*
X5933698Y3743500D02*
G75*
G02*
X5973938Y3783740I40240J0D01*
G01*
X6113938D01*
G75*
G02*
X6154178Y3743500I0J-40240D01*
G01*
Y3383500D01*
G75*
G02*
X6113938Y3343260I-40240J0D01*
G01*
X5973938D01*
G75*
G02*
X5933698Y3383500I0J40240D01*
G01*
Y3743500D01*
Y5775500D02*
G75*
G02*
X5973938Y5815740I40240J0D01*
G01*
X6113938D01*
G75*
G02*
X6154178Y5775500I0J-40240D01*
G01*
Y5415500D01*
G75*
G02*
X6113938Y5375260I-40240J0D01*
G01*
X5973938D01*
G75*
G02*
X5933698Y5415500I0J40240D01*
G01*
Y5775500D01*
X6187698Y3743500D02*
G75*
G02*
X6227938Y3783740I40240J0D01*
G01*
X6367938D01*
G75*
G02*
X6408178Y3743500I0J-40240D01*
G01*
Y3383500D01*
G75*
G02*
X6367938Y3343260I-40240J0D01*
G01*
X6227938D01*
G75*
G02*
X6187698Y3383500I0J40240D01*
G01*
Y3743500D01*
Y5775500D02*
G75*
G02*
X6227938Y5815740I40240J0D01*
G01*
X6367938D01*
G75*
G02*
X6408178Y5775500I0J-40240D01*
G01*
Y5415500D01*
G75*
G02*
X6367938Y5375260I-40240J0D01*
G01*
X6227938D01*
G75*
G02*
X6187698Y5415500I0J40240D01*
G01*
Y5775500D01*
X9096000Y5148375D02*
G75*
G02*
X9141000Y5193375I45000J0D01*
G01*
X9281000D01*
G75*
G02*
X9326000Y5148375I0J-45000D01*
G01*
Y5058375D01*
G75*
G02*
X9281000Y5013375I-45000J0D01*
G01*
X9141000D01*
G75*
G02*
X9096000Y5058375I0J45000D01*
G01*
Y5148375D01*
X9215625Y4558644D02*
X9356815Y4699834D01*
Y5157666D01*
X9300696Y5213785D01*
G75*
G02*
X9281000Y5208635I-19696J35090D01*
G01*
X9141000D01*
G75*
G02*
X9100760Y5248875I0J40240D01*
G01*
Y5338875D01*
G75*
G02*
X9141000Y5379115I40240J0D01*
G01*
X9150440D01*
Y5392101D01*
G75*
G02*
Y5481399I60560J44649D01*
G01*
Y5849500D01*
G75*
G02*
X9168360Y5892504I60560J0D01*
G01*
X9275385Y5999529D01*
Y6069125D01*
G75*
G02*
X9315625Y6109365I40240J0D01*
G01*
X9340940D01*
Y6154101D01*
G75*
G02*
X9326260Y6198750I60560J44649D01*
G01*
G75*
G02*
X9476740I75240J0D01*
G01*
G75*
G02*
X9462060Y6154101I-75240J0D01*
G01*
Y6108847D01*
G75*
G02*
X9495865Y6069125I-6435J-39722D01*
G01*
Y5979125D01*
G75*
G02*
X9455625Y5938885I-40240J0D01*
G01*
X9386029D01*
X9370769Y5923625D01*
X9455625D01*
G75*
G02*
X9500625Y5878625I0J-45000D01*
G01*
Y5788625D01*
G75*
G02*
X9455625Y5743625I-45000J0D01*
G01*
X9315625D01*
G75*
G02*
X9271560Y5779499I0J45000D01*
G01*
Y5481399D01*
G75*
G02*
Y5392101I-60560J-44649D01*
G01*
Y5379115D01*
X9281000D01*
G75*
G02*
X9318620Y5353158I0J-40240D01*
G01*
G75*
G02*
X9349254Y5336515I-12370J-59283D01*
G01*
X9460015Y5225754D01*
G75*
G02*
X9477935Y5182750I-42640J-43004D01*
G01*
Y4674750D01*
G75*
G02*
X9460015Y4631746I-60560J0D01*
G01*
X9301269Y4473000D01*
G75*
G02*
X9287435Y4439601I-74394J11250D01*
G01*
Y4426615D01*
X9296875D01*
G75*
G02*
X9333985Y4401935I0J-40240D01*
G01*
X9353875D01*
G75*
G02*
X9396879Y4384015I0J-60560D01*
G01*
X9475890Y4305004D01*
G75*
G02*
X9493810Y4262000I-42640J-43004D01*
G01*
Y3737936D01*
G75*
G02*
X9475890Y3694932I-60560J0D01*
G01*
X9364958Y3584000D01*
G75*
G02*
X9350935Y3550346I-74394J11250D01*
G01*
Y3537615D01*
X9360375D01*
G75*
G02*
X9397485Y3512935I0J-40240D01*
G01*
X9417375D01*
G75*
G02*
X9460379Y3495015I0J-60560D01*
G01*
X9571140Y3384254D01*
G75*
G02*
X9589060Y3341250I-42640J-43004D01*
G01*
Y2127365D01*
X9793378D01*
Y2283764D01*
G75*
G02*
X9753698Y2324000I560J40236D01*
G01*
Y2434000D01*
G75*
G02*
X9793938Y2474240I40240J0D01*
G01*
X9913938D01*
G75*
G02*
X9954178Y2434000I0J-40240D01*
G01*
Y2324000D01*
G75*
G02*
X9914498Y2283764I-40240J0D01*
G01*
Y2127365D01*
X10912565D01*
Y3112499D01*
G75*
G02*
X10868500Y3076625I-44065J9126D01*
G01*
X10728500D01*
G75*
G02*
X10683500Y3121625I0J45000D01*
G01*
Y3211625D01*
G75*
G02*
X10728500Y3256625I45000J0D01*
G01*
X10813356D01*
X10798096Y3271885D01*
X10728500D01*
G75*
G02*
X10688260Y3312125I0J40240D01*
G01*
Y3402125D01*
G75*
G02*
X10728500Y3442365I40240J0D01*
G01*
X10735913D01*
G75*
G02*
X10737940Y3528774I62587J41760D01*
G01*
Y4016730D01*
G75*
G02*
Y4031020I60560J7145D01*
G01*
Y5002500D01*
G75*
G02*
X10755860Y5045504I60560J0D01*
G01*
X10847010Y5136654D01*
Y5148375D01*
G75*
G02*
X10887250Y5188615I40240J0D01*
G01*
X10896690D01*
Y5201601D01*
G75*
G02*
X10946000Y5320644I60560J44649D01*
G01*
X10991940Y5366584D01*
Y5833865D01*
X10964982Y5860823D01*
G75*
G02*
X10932000Y5843635I-32983J23052D01*
G01*
X10792000D01*
G75*
G02*
X10751760Y5883875I0J40240D01*
G01*
Y5973875D01*
G75*
G02*
X10792000Y6014115I40240J0D01*
G01*
X10799413D01*
G75*
G02*
X10787606Y6044625I62587J41760D01*
G01*
X10503541Y6328690D01*
X10270610D01*
G75*
G02*
X10233500Y6304010I-37110J15560D01*
G01*
X10093500D01*
G75*
G02*
X10053260Y6344250I0J40240D01*
G01*
Y6434250D01*
G75*
G02*
X10093500Y6474490I40240J0D01*
G01*
X10100913D01*
G75*
G02*
X10088260Y6516250I62587J41760D01*
G01*
G75*
G02*
X10238740I75240J0D01*
G01*
G75*
G02*
X10226087Y6474490I-75240J0D01*
G01*
X10233500D01*
G75*
G02*
X10270610Y6449810I0J-40240D01*
G01*
X10528625D01*
G75*
G02*
X10571629Y6431890I0J-60560D01*
G01*
X10873250Y6130269D01*
G75*
G02*
X10924587Y6014115I-11250J-74394D01*
G01*
X10932000D01*
G75*
G02*
X10969110Y5989435I0J-40240D01*
G01*
X10982574D01*
G75*
G02*
X11025578Y5971515I0J-60560D01*
G01*
X11095140Y5901953D01*
G75*
G02*
X11113060Y5858949I-42640J-43004D01*
G01*
Y5341500D01*
G75*
G02*
X11095140Y5298496I-60560J0D01*
G01*
X11031644Y5235000D01*
G75*
G02*
X11017810Y5201601I-74394J11250D01*
G01*
Y5188615D01*
X11027250D01*
G75*
G02*
X11067490Y5148375I0J-40240D01*
G01*
Y5058375D01*
G75*
G02*
X11027250Y5018135I-40240J0D01*
G01*
X10899779D01*
X10884431Y5002787D01*
G75*
G02*
X10887250Y5002875I2813J-44912D01*
G01*
X11027250D01*
G75*
G02*
X11072250Y4957875I0J-45000D01*
G01*
Y4867875D01*
G75*
G02*
X11027250Y4822875I-45000J0D01*
G01*
X10887250D01*
G75*
G02*
X10859060Y4832799I0J45000D01*
G01*
Y4256341D01*
G75*
G02*
X10887250Y4267865I28190J-28716D01*
G01*
X10894663D01*
G75*
G02*
X10882010Y4309625I62587J41760D01*
G01*
G75*
G02*
X11032490I75240J0D01*
G01*
G75*
G02*
X11019837Y4267865I-75240J0D01*
G01*
X11027250D01*
G75*
G02*
X11067490Y4227625I0J-40240D01*
G01*
Y4137625D01*
G75*
G02*
X11027250Y4097385I-40240J0D01*
G01*
X10957654D01*
X10942394Y4082125D01*
X11027250D01*
G75*
G02*
X11072250Y4037125I0J-45000D01*
G01*
Y3947125D01*
G75*
G02*
X11027250Y3902125I-45000J0D01*
G01*
X10887250D01*
G75*
G02*
X10859060Y3912049I0J45000D01*
G01*
Y3528774D01*
G75*
G02*
X10861087Y3442365I-60560J-44649D01*
G01*
X10868500D01*
G75*
G02*
X10908740Y3402125I0J-40240D01*
G01*
Y3332529D01*
X11015765Y3225504D01*
G75*
G02*
X11033685Y3182500I-42640J-43004D01*
G01*
Y2127365D01*
X12642940D01*
Y2919291D01*
X12532318Y3029913D01*
G75*
G02*
X12503625Y3017885I-28694J28212D01*
G01*
X12363625D01*
G75*
G02*
X12323385Y3058125I0J40240D01*
G01*
Y3148125D01*
G75*
G02*
X12363625Y3188365I40240J0D01*
G01*
X12371038D01*
G75*
G02*
X12422375Y3304519I62587J41760D01*
G01*
X12501315Y3383459D01*
Y3679875D01*
X12379500D01*
G75*
G02*
X12334500Y3724875I0J45000D01*
G01*
Y3814875D01*
G75*
G02*
X12379500Y3859875I45000J0D01*
G01*
X12464356D01*
X12449096Y3875135D01*
X12379500D01*
G75*
G02*
X12339260Y3915375I0J40240D01*
G01*
Y4005375D01*
G75*
G02*
X12378855Y4045610I40240J0D01*
G01*
G75*
G02*
X12438250Y4145894I70645J25890D01*
G01*
X12579440Y4287084D01*
Y4636499D01*
G75*
G02*
X12535375Y4600625I-44065J9126D01*
G01*
X12395375D01*
G75*
G02*
X12350375Y4645625I0J45000D01*
G01*
Y4735625D01*
G75*
G02*
X12395375Y4780625I45000J0D01*
G01*
X12480231D01*
X12464971Y4795885D01*
X12395375D01*
G75*
G02*
X12355135Y4836125I0J40240D01*
G01*
Y4926125D01*
G75*
G02*
X12394730Y4966360I40240J0D01*
G01*
G75*
G02*
X12454125Y5066644I70645J25890D01*
G01*
X12579440Y5191959D01*
Y5475166D01*
X12564500Y5490106D01*
Y5455250D01*
G75*
G02*
X12519500Y5410250I-45000J0D01*
G01*
X12379500D01*
G75*
G02*
X12334500Y5455250I0J45000D01*
G01*
Y5545250D01*
G75*
G02*
X12379500Y5590250I45000J0D01*
G01*
X12464356D01*
X12449096Y5605510D01*
X12379500D01*
G75*
G02*
X12339260Y5645750I0J40240D01*
G01*
Y5735750D01*
G75*
G02*
X12378855Y5775985I40240J0D01*
G01*
G75*
G02*
X12375106Y5790625I70645J25891D01*
G01*
X12311610Y5854121D01*
G75*
G02*
X12293690Y5897125I42640J43004D01*
G01*
Y6452750D01*
G75*
G02*
X12311610Y6495754I60560J0D01*
G01*
X12422371Y6606515D01*
G75*
G02*
X12453005Y6623158I43004J-42640D01*
G01*
G75*
G02*
X12490625Y6649115I37620J-14283D01*
G01*
X12491228D01*
G75*
G02*
X12486635Y6675000I70647J25885D01*
G01*
G75*
G02*
X12637115I75240J0D01*
G01*
G75*
G02*
X12632506Y6649071I-75240J0D01*
G01*
G75*
G02*
X12670865Y6608875I-1881J-40196D01*
G01*
Y6518875D01*
G75*
G02*
X12630625Y6478635I-40240J0D01*
G01*
X12490625D01*
G75*
G02*
X12470929Y6483785I0J40240D01*
G01*
X12414810Y6427666D01*
Y5922209D01*
X12460750Y5876269D01*
G75*
G02*
X12520145Y5775985I-11250J-74394D01*
G01*
G75*
G02*
X12559740Y5735750I-645J-40235D01*
G01*
Y5666154D01*
X12682640Y5543254D01*
G75*
G02*
X12700560Y5500250I-42640J-43004D01*
G01*
Y5166875D01*
G75*
G02*
X12682640Y5123871I-60560J0D01*
G01*
X12539769Y4981000D01*
G75*
G02*
X12536020Y4966360I-74394J11251D01*
G01*
G75*
G02*
X12575615Y4926125I-645J-40235D01*
G01*
Y4856529D01*
X12682640Y4749504D01*
G75*
G02*
X12700560Y4706500I-42640J-43004D01*
G01*
Y4262000D01*
G75*
G02*
X12682640Y4218996I-60560J0D01*
G01*
X12523894Y4060250D01*
G75*
G02*
X12520145Y4045610I-74394J11251D01*
G01*
G75*
G02*
X12559740Y4005375I-645J-40235D01*
G01*
Y3935779D01*
X12604515Y3891004D01*
G75*
G02*
X12622435Y3848000I-42640J-43004D01*
G01*
Y3358375D01*
G75*
G02*
X12604515Y3315371I-60560J0D01*
G01*
X12508019Y3218875D01*
G75*
G02*
X12496212Y3188365I-74394J11250D01*
G01*
X12503625D01*
G75*
G02*
X12540735Y3163685I0J-40240D01*
G01*
X12544750D01*
G75*
G02*
X12587754Y3145765I0J-60560D01*
G01*
X12746140Y2987379D01*
G75*
G02*
X12764060Y2944375I-42640J-43004D01*
G01*
Y2127365D01*
X13992315D01*
Y2801500D01*
G75*
G02*
X14010235Y2844504I60560J0D01*
G01*
X14136871Y2971140D01*
G75*
G02*
X14179875Y2989060I43004J-42640D01*
G01*
X14247390D01*
G75*
G02*
X14283855Y3013735I37110J-15560D01*
G01*
G75*
G02*
X14280106Y3028375I70645J25891D01*
G01*
X14089610Y3218871D01*
G75*
G02*
X14071690Y3261875I42640J43004D01*
G01*
Y3744791D01*
X14027791Y3788690D01*
X13763110D01*
G75*
G02*
X13726000Y3764010I-37110J15560D01*
G01*
X13586000D01*
G75*
G02*
X13545760Y3804250I0J40240D01*
G01*
Y3894250D01*
G75*
G02*
X13586000Y3934490I40240J0D01*
G01*
X13605361D01*
G75*
G02*
X13607388Y4020899I62587J41760D01*
G01*
Y4399593D01*
X13459806Y4547175D01*
G75*
G02*
X13424375Y4526010I-35431J19075D01*
G01*
X13284375D01*
G75*
G02*
X13244135Y4566250I0J40240D01*
G01*
Y4656250D01*
G75*
G02*
X13279893Y4696240I40240J0D01*
G01*
G75*
G02*
X13289888Y4767024I70555J26135D01*
G01*
Y5098093D01*
X13115014Y5272967D01*
G75*
G02*
X13106875Y5272135I-8140J39408D01*
G01*
X12966875D01*
G75*
G02*
X12926635Y5312375I0J40240D01*
G01*
Y5402375D01*
G75*
G02*
X12962393Y5442365I40240J0D01*
G01*
G75*
G02*
X12957708Y5468500I70555J26135D01*
G01*
G75*
G02*
X13108188I75240J0D01*
G01*
G75*
G02*
X13103595Y5442615I-75240J0D01*
G01*
X13106875D01*
G75*
G02*
X13146407Y5409893I0J-40240D01*
G01*
G75*
G02*
X13159254Y5400015I-30159J-52517D01*
G01*
X13393088Y5166181D01*
G75*
G02*
X13411008Y5123177I-42640J-43004D01*
G01*
Y4767024D01*
G75*
G02*
X13421095Y4696490I-60560J-44649D01*
G01*
X13424375D01*
G75*
G02*
X13461485Y4671810I0J-40240D01*
G01*
X13481375D01*
G75*
G02*
X13524379Y4653890I0J-60560D01*
G01*
X13710588Y4467681D01*
G75*
G02*
X13728508Y4424677I-42640J-43004D01*
G01*
Y4020899D01*
G75*
G02*
X13730375Y3934251I-60560J-44649D01*
G01*
G75*
G02*
X13763110Y3909810I-4375J-40001D01*
G01*
X14052875D01*
G75*
G02*
X14095879Y3891890I0J-60560D01*
G01*
X14132250Y3855519D01*
X14247996Y3971265D01*
G75*
G02*
X14291000Y3989185I43004J-42640D01*
G01*
X14342640D01*
G75*
G02*
X14379750Y4013865I37110J-15560D01*
G01*
X14387163D01*
G75*
G02*
X14375356Y4044375I62587J41760D01*
G01*
X14248360Y4171371D01*
G75*
G02*
X14230440Y4214375I42640J43004D01*
G01*
Y4785875D01*
G75*
G02*
X14248360Y4828879I60560J0D01*
G01*
X14311496Y4892015D01*
G75*
G02*
X14342130Y4908658I43004J-42640D01*
G01*
G75*
G02*
X14379105Y4934610I37620J-14283D01*
G01*
G75*
G02*
X14375356Y4949250I70645J25891D01*
G01*
X14280110Y5044496D01*
G75*
G02*
X14262190Y5087500I42640J43004D01*
G01*
Y5643125D01*
G75*
G02*
X14280110Y5686129I60560J0D01*
G01*
X14311496Y5717515D01*
G75*
G02*
X14354500Y5735435I43004J-42640D01*
G01*
X14358515D01*
G75*
G02*
X14394980Y5760110I37110J-15560D01*
G01*
G75*
G02*
X14391231Y5774750I70645J25891D01*
G01*
X14359485Y5806496D01*
G75*
G02*
X14341565Y5849500I42640J43004D01*
G01*
Y6484500D01*
G75*
G02*
X14359485Y6527504I60560J0D01*
G01*
X14422621Y6590640D01*
G75*
G02*
X14465625Y6608560I43004J-42640D01*
G01*
X14469640D01*
G75*
G02*
X14506750Y6633240I37110J-15560D01*
G01*
X14515413D01*
G75*
G02*
X14502760Y6675000I62587J41760D01*
G01*
G75*
G02*
X14653240I75240J0D01*
G01*
G75*
G02*
X14640587Y6633240I-75240J0D01*
G01*
X14646750D01*
G75*
G02*
X14686990Y6593000I0J-40240D01*
G01*
Y6503000D01*
G75*
G02*
X14646750Y6462760I-40240J0D01*
G01*
X14506750D01*
G75*
G02*
X14478057Y6474788I1J40240D01*
G01*
X14462685Y6459416D01*
Y6411626D01*
G75*
G02*
X14506750Y6447500I44065J-9126D01*
G01*
X14646750D01*
G75*
G02*
X14691750Y6402500I0J-45000D01*
G01*
Y6312500D01*
G75*
G02*
X14646750Y6267500I-45000J0D01*
G01*
X14506750D01*
G75*
G02*
X14462685Y6303374I0J45000D01*
G01*
Y5874584D01*
X14476875Y5860394D01*
G75*
G02*
X14536270Y5760110I-11250J-74394D01*
G01*
G75*
G02*
X14575865Y5719875I-645J-40235D01*
G01*
Y5629875D01*
G75*
G02*
X14535625Y5589635I-40240J0D01*
G01*
X14395625D01*
G75*
G02*
X14383310Y5591566I1J40240D01*
G01*
Y5572657D01*
G75*
G02*
X14395625Y5574375I12315J-43282D01*
G01*
X14535625D01*
G75*
G02*
X14580625Y5529375I0J-45000D01*
G01*
Y5439375D01*
G75*
G02*
X14535625Y5394375I-45000J0D01*
G01*
X14395625D01*
G75*
G02*
X14383310Y5396093I0J45000D01*
G01*
Y5112584D01*
X14461000Y5034894D01*
G75*
G02*
X14520395Y4934610I-11250J-74394D01*
G01*
G75*
G02*
X14559990Y4894375I-645J-40235D01*
G01*
Y4804375D01*
G75*
G02*
X14519750Y4764135I-40240J0D01*
G01*
X14379750D01*
G75*
G02*
X14360054Y4769285I0J40240D01*
G01*
X14351560Y4760791D01*
Y4738951D01*
G75*
G02*
X14379750Y4748875I28190J-35076D01*
G01*
X14519750D01*
G75*
G02*
X14564750Y4703875I0J-45000D01*
G01*
Y4613875D01*
G75*
G02*
X14519750Y4568875I-45000J0D01*
G01*
X14379750D01*
G75*
G02*
X14351560Y4578799I0J45000D01*
G01*
Y4239459D01*
X14461000Y4130019D01*
G75*
G02*
X14512337Y4013865I-11250J-74394D01*
G01*
X14519750D01*
G75*
G02*
X14559990Y3973625I0J-40240D01*
G01*
Y3883625D01*
G75*
G02*
X14519750Y3843385I-40240J0D01*
G01*
X14379750D01*
G75*
G02*
X14342640Y3868065I0J40240D01*
G01*
X14316084D01*
X14192810Y3744791D01*
Y3286959D01*
X14365750Y3114019D01*
G75*
G02*
X14425145Y3013735I-11250J-74394D01*
G01*
G75*
G02*
X14464740Y2973500I-645J-40235D01*
G01*
Y2883500D01*
G75*
G02*
X14424500Y2843260I-40240J0D01*
G01*
X14284500D01*
G75*
G02*
X14247390Y2867940I0J40240D01*
G01*
X14204959D01*
X14113435Y2776416D01*
Y2127365D01*
X16802190D01*
Y2896750D01*
G75*
G02*
X16820110Y2939754I60560J0D01*
G01*
X17010246Y3129890D01*
G75*
G02*
X17053250Y3147810I43004J-42640D01*
G01*
X17089015D01*
G75*
G02*
X17126125Y3172490I37110J-15560D01*
G01*
X17139062D01*
Y3181223D01*
G75*
G02*
Y3270521I60560J44649D01*
G01*
Y3820997D01*
G75*
G02*
X17156982Y3864001I60560J0D01*
G01*
X17248371Y3955390D01*
G75*
G02*
X17291375Y3973310I43004J-42640D01*
G01*
X17327140D01*
G75*
G02*
X17364250Y3997990I37110J-15560D01*
G01*
X17373690D01*
Y4010976D01*
G75*
G02*
Y4100274I60560J44649D01*
G01*
Y4611250D01*
G75*
G02*
X17391610Y4654254I60560J0D01*
G01*
X17518246Y4780890D01*
G75*
G02*
X17561250Y4798810I43004J-42640D01*
G01*
X17597015D01*
G75*
G02*
X17634125Y4823490I37110J-15560D01*
G01*
X17641538D01*
G75*
G02*
X17643565Y4909899I62587J41760D01*
G01*
Y5468500D01*
G75*
G02*
X17661485Y5511504I60560J0D01*
G01*
X17724621Y5574640D01*
G75*
G02*
X17767625Y5592560I43004J-42640D01*
G01*
X17819265D01*
G75*
G02*
X17856375Y5617240I37110J-15560D01*
G01*
X17863788D01*
G75*
G02*
X17865815Y5703649I62587J41760D01*
G01*
Y5913000D01*
G75*
G02*
X17883735Y5956004I60560J0D01*
G01*
X17994496Y6066765D01*
G75*
G02*
X18037500Y6084685I43004J-42640D01*
G01*
X18105015D01*
G75*
G02*
X18142125Y6109365I37110J-15560D01*
G01*
X18151565D01*
Y6121101D01*
G75*
G02*
X18136885Y6165750I60560J44649D01*
G01*
G75*
G02*
X18287365I75240J0D01*
G01*
G75*
G02*
X18272685Y6121101I-75240J0D01*
G01*
Y6109365D01*
X18282125D01*
G75*
G02*
X18322365Y6069125I0J-40240D01*
G01*
Y5979125D01*
G75*
G02*
X18282125Y5938885I-40240J0D01*
G01*
X18142125D01*
G75*
G02*
X18105015Y5963565I0J40240D01*
G01*
X18062584D01*
X17986935Y5887916D01*
Y5703649D01*
G75*
G02*
X17988962Y5617240I-60560J-44649D01*
G01*
X17996375D01*
G75*
G02*
X18036615Y5577000I0J-40240D01*
G01*
Y5487000D01*
G75*
G02*
X17996375Y5446760I-40240J0D01*
G01*
X17856375D01*
G75*
G02*
X17819265Y5471440I0J40240D01*
G01*
X17792709D01*
X17764685Y5443416D01*
Y4909899D01*
G75*
G02*
X17766712Y4823490I-60560J-44649D01*
G01*
X17774125D01*
G75*
G02*
X17814365Y4783250I0J-40240D01*
G01*
Y4693250D01*
G75*
G02*
X17774125Y4653010I-40240J0D01*
G01*
X17634125D01*
G75*
G02*
X17597015Y4677690I0J40240D01*
G01*
X17586334D01*
X17494810Y4586166D01*
Y4100274D01*
G75*
G02*
Y4010976I-60560J-44649D01*
G01*
Y3997990D01*
X17504250D01*
G75*
G02*
X17541360Y3973310I0J-40240D01*
G01*
X17942250D01*
G75*
G02*
X17985254Y3955390I0J-60560D01*
G01*
X18048750Y3891894D01*
G75*
G02*
X18100087Y3775740I-11250J-74394D01*
G01*
X18107500D01*
G75*
G02*
X18147740Y3735500I0J-40240D01*
G01*
Y3645500D01*
G75*
G02*
X18107500Y3605260I-40240J0D01*
G01*
X17967500D01*
G75*
G02*
X17927260Y3645500I0J40240D01*
G01*
Y3735500D01*
G75*
G02*
X17967500Y3775740I40240J0D01*
G01*
X17974913D01*
G75*
G02*
X17963106Y3806250I62587J41760D01*
G01*
X17917166Y3852190D01*
X17541360D01*
G75*
G02*
X17504250Y3827510I-37110J15560D01*
G01*
X17364250D01*
G75*
G02*
X17327140Y3852190I0J40240D01*
G01*
X17316459D01*
X17260182Y3795913D01*
Y3270521D01*
G75*
G02*
Y3181223I-60560J-44649D01*
G01*
Y3172490D01*
X17266125D01*
G75*
G02*
X17306365Y3132250I0J-40240D01*
G01*
Y3042250D01*
G75*
G02*
X17266125Y3002010I-40240J0D01*
G01*
X17126125D01*
G75*
G02*
X17089015Y3026690I0J40240D01*
G01*
X17078334D01*
X16923310Y2871666D01*
Y2127365D01*
X19342190D01*
Y2760541D01*
X19234791Y2867940D01*
X19176485D01*
G75*
G02*
X19139375Y2843260I-37110J15560D01*
G01*
X18999375D01*
G75*
G02*
X18959135Y2883500I0J40240D01*
G01*
Y2973500D01*
G75*
G02*
X18999375Y3013740I40240J0D01*
G01*
X19022663D01*
G75*
G02*
X19024690Y3100149I62587J41760D01*
G01*
Y3432713D01*
X18946250Y3511153D01*
Y3470875D01*
G75*
G02*
X18901250Y3425875I-45000J0D01*
G01*
X18761250D01*
G75*
G02*
X18716250Y3470875I0J45000D01*
G01*
Y3560875D01*
G75*
G02*
X18761250Y3605875I45000J0D01*
G01*
X18851528D01*
X18836268Y3621135D01*
X18761250D01*
G75*
G02*
X18721010Y3661375I0J40240D01*
G01*
Y3751375D01*
G75*
G02*
X18761250Y3791615I40240J0D01*
G01*
X18770690D01*
Y3804601D01*
G75*
G02*
Y3893899I60560J44649D01*
G01*
Y4363916D01*
X18755750Y4378856D01*
Y4296375D01*
G75*
G02*
X18710750Y4251375I-45000J0D01*
G01*
X18570750D01*
G75*
G02*
X18525750Y4296375I0J45000D01*
G01*
Y4386375D01*
G75*
G02*
X18570750Y4431375I45000J0D01*
G01*
X18703231D01*
X18687971Y4446635D01*
X18570750D01*
G75*
G02*
X18530510Y4486875I0J40240D01*
G01*
Y4576875D01*
G75*
G02*
X18570750Y4617115I40240J0D01*
G01*
X18578187D01*
Y4630101D01*
G75*
G02*
Y4719399I60560J44649D01*
G01*
Y5014572D01*
G75*
G02*
X18567875Y5013375I-10310J43803D01*
G01*
X18427875D01*
G75*
G02*
X18382875Y5058375I0J45000D01*
G01*
Y5148375D01*
G75*
G02*
X18427875Y5193375I45000J0D01*
G01*
X18512731D01*
X18497471Y5208635D01*
X18427875D01*
G75*
G02*
X18387635Y5248875I0J40240D01*
G01*
Y5338875D01*
G75*
G02*
X18427875Y5379115I40240J0D01*
G01*
X18437315D01*
Y5392101D01*
G75*
G02*
X18422635Y5436750I60560J44649D01*
G01*
G75*
G02*
X18573115I75240J0D01*
G01*
G75*
G02*
X18558435Y5392101I-75240J0D01*
G01*
Y5379115D01*
X18567875D01*
G75*
G02*
X18608115Y5338875I0J-40240D01*
G01*
Y5269279D01*
X18681387Y5196007D01*
G75*
G02*
X18699307Y5153003I-42640J-43004D01*
G01*
Y4719399D01*
G75*
G02*
Y4630101I-60560J-44649D01*
G01*
Y4617115D01*
X18710750D01*
G75*
G02*
X18750990Y4576875I0J-40240D01*
G01*
Y4554904D01*
X18873890Y4432004D01*
G75*
G02*
X18891810Y4389000I-42640J-43004D01*
G01*
Y3893899D01*
G75*
G02*
Y3804601I-60560J-44649D01*
G01*
Y3791615D01*
X18901250D01*
G75*
G02*
X18941490Y3751375I0J-40240D01*
G01*
Y3687201D01*
X19127890Y3500801D01*
G75*
G02*
X19145810Y3457797I-42640J-43004D01*
G01*
Y3100149D01*
G75*
G02*
X19147304Y3012951I-60560J-44649D01*
G01*
G75*
G02*
X19176485Y2989060I-7929J-39451D01*
G01*
X19259875D01*
G75*
G02*
X19302879Y2971140I0J-60560D01*
G01*
X19445390Y2828629D01*
G75*
G02*
X19463310Y2785625I-42640J-43004D01*
G01*
Y2127365D01*
X20405815D01*
Y3055500D01*
G75*
G02*
X20423735Y3098504I60560J0D01*
G01*
X20486871Y3161640D01*
G75*
G02*
X20529875Y3179560I43004J-42640D01*
G01*
X20533890D01*
G75*
G02*
X20571000Y3204240I37110J-15560D01*
G01*
X20597565D01*
Y3217226D01*
G75*
G02*
X20583731Y3250625I60560J44649D01*
G01*
X20423735Y3410621D01*
G75*
G02*
X20405815Y3453625I42640J43004D01*
G01*
Y3912750D01*
G75*
G02*
X20423735Y3955754I60560J0D01*
G01*
X20502746Y4034765D01*
G75*
G02*
X20545750Y4052685I43004J-42640D01*
G01*
X20549765D01*
G75*
G02*
X20586875Y4077365I37110J-15560D01*
G01*
X20595538D01*
G75*
G02*
X20583731Y4107875I62587J41760D01*
G01*
X20423735Y4267871D01*
G75*
G02*
X20405815Y4310875I42640J43004D01*
G01*
Y4785875D01*
G75*
G02*
X20423735Y4828879I60560J0D01*
G01*
X20486871Y4892015D01*
G75*
G02*
X20529875Y4909935I43004J-42640D01*
G01*
X20549765D01*
G75*
G02*
X20586875Y4934615I37110J-15560D01*
G01*
X20595538D01*
G75*
G02*
X20583731Y4965125I62587J41760D01*
G01*
X20423735Y5125121D01*
G75*
G02*
X20405815Y5168125I42640J43004D01*
G01*
Y5627250D01*
G75*
G02*
X20423735Y5670254I60560J0D01*
G01*
X20486871Y5733390D01*
G75*
G02*
X20529875Y5751310I43004J-42640D01*
G01*
X20565640D01*
G75*
G02*
X20595930Y5775408I37110J-15560D01*
G01*
G75*
G02*
X20583731Y5806500I62195J42342D01*
G01*
X20423735Y5966496D01*
G75*
G02*
X20405815Y6009500I42640J43004D01*
G01*
Y6484500D01*
G75*
G02*
X20423735Y6527504I60560J0D01*
G01*
X20470996Y6574765D01*
G75*
G02*
X20514000Y6592685I43004J-42640D01*
G01*
X20549765D01*
G75*
G02*
X20586875Y6617365I37110J-15560D01*
G01*
X20587478D01*
G75*
G02*
X20582885Y6643250I70647J25885D01*
G01*
G75*
G02*
X20733365I75240J0D01*
G01*
G75*
G02*
X20728756Y6617321I-75240J0D01*
G01*
G75*
G02*
X20767115Y6577125I-1881J-40196D01*
G01*
Y6487125D01*
G75*
G02*
X20726875Y6446885I-40240J0D01*
G01*
X20586875D01*
G75*
G02*
X20549765Y6471565I0J40240D01*
G01*
X20539084D01*
X20526935Y6459416D01*
Y6034584D01*
X20669375Y5892144D01*
G75*
G02*
X20720712Y5775990I-11250J-74394D01*
G01*
X20742750D01*
G75*
G02*
X20782990Y5735750I0J-40240D01*
G01*
Y5645750D01*
G75*
G02*
X20742750Y5605510I-40240J0D01*
G01*
X20602750D01*
G75*
G02*
X20565640Y5630190I0J40240D01*
G01*
X20554959D01*
X20526935Y5602166D01*
Y5193209D01*
X20669375Y5050769D01*
G75*
G02*
X20720712Y4934615I-11250J-74394D01*
G01*
X20726875D01*
G75*
G02*
X20767115Y4894375I0J-40240D01*
G01*
Y4804375D01*
G75*
G02*
X20726875Y4764135I-40240J0D01*
G01*
X20586875D01*
G75*
G02*
X20551444Y4785300I0J40240D01*
G01*
X20526935Y4760791D01*
Y4335959D01*
X20669375Y4193519D01*
G75*
G02*
X20720712Y4077365I-11250J-74394D01*
G01*
X20726875D01*
G75*
G02*
X20767115Y4037125I0J-40240D01*
G01*
Y3947125D01*
G75*
G02*
X20726875Y3906885I-40240J0D01*
G01*
X20586875D01*
G75*
G02*
X20558182Y3918913I1J40240D01*
G01*
X20526935Y3887666D01*
Y3478709D01*
X20669375Y3336269D01*
G75*
G02*
X20718685Y3217226I-11250J-74394D01*
G01*
Y3203499D01*
G75*
G02*
X20751240Y3164000I-7685J-39499D01*
G01*
Y3074000D01*
G75*
G02*
X20711000Y3033760I-40240J0D01*
G01*
X20571000D01*
G75*
G02*
X20542307Y3045788I1J40240D01*
G01*
X20526935Y3030416D01*
Y2982626D01*
G75*
G02*
X20571000Y3018500I44065J-9126D01*
G01*
X20711000D01*
G75*
G02*
X20756000Y2973500I0J-45000D01*
G01*
Y2883500D01*
G75*
G02*
X20711000Y2838500I-45000J0D01*
G01*
X20571000D01*
G75*
G02*
X20526935Y2874374I0J45000D01*
G01*
Y2127365D01*
X21548815D01*
Y2896750D01*
G75*
G02*
X21566735Y2939754I60560J0D01*
G01*
X21661621Y3034640D01*
G75*
G02*
X21692255Y3051283I43004J-42640D01*
G01*
G75*
G02*
X21729875Y3077240I37620J-14283D01*
G01*
X21736038D01*
G75*
G02*
X21724231Y3107750I62587J41760D01*
G01*
X21582610Y3249371D01*
G75*
G02*
X21564690Y3292375I42640J43004D01*
G01*
Y3780500D01*
G75*
G02*
X21582610Y3823504I60560J0D01*
G01*
X21619246Y3860140D01*
G75*
G02*
X21662250Y3878060I43004J-42640D01*
G01*
X21692765D01*
G75*
G02*
X21729875Y3902740I37110J-15560D01*
G01*
X21736038D01*
G75*
G02*
X21724231Y3933250I62587J41760D01*
G01*
X21582610Y4074871D01*
G75*
G02*
X21564690Y4117875I42640J43004D01*
G01*
Y4653625D01*
G75*
G02*
X21582610Y4696629I60560J0D01*
G01*
X21635121Y4749140D01*
G75*
G02*
X21678125Y4767060I43004J-42640D01*
G01*
X21692765D01*
G75*
G02*
X21729875Y4791740I37110J-15560D01*
G01*
X21736038D01*
G75*
G02*
X21724231Y4822250I62587J41760D01*
G01*
X21582610Y4963871D01*
G75*
G02*
X21564690Y5006875I42640J43004D01*
G01*
Y5479125D01*
G75*
G02*
X21582610Y5522129I60560J0D01*
G01*
X21635121Y5574640D01*
G75*
G02*
X21678125Y5592560I43004J-42640D01*
G01*
X21692765D01*
G75*
G02*
X21729875Y5617240I37110J-15560D01*
G01*
X21736038D01*
G75*
G02*
X21724231Y5647750I62587J41760D01*
G01*
X21582610Y5789371D01*
G75*
G02*
X21564690Y5832375I42640J43004D01*
G01*
Y6341625D01*
G75*
G02*
X21582610Y6384629I60560J0D01*
G01*
X21629871Y6431890D01*
G75*
G02*
X21672875Y6449810I43004J-42640D01*
G01*
X21692765D01*
G75*
G02*
X21727994Y6474446I37110J-15560D01*
G01*
G75*
G02*
X21723385Y6500375I70631J25929D01*
G01*
G75*
G02*
X21873865I75240J0D01*
G01*
G75*
G02*
X21869272Y6474490I-75240J0D01*
G01*
X21869875D01*
G75*
G02*
X21910115Y6434250I0J-40240D01*
G01*
Y6344250D01*
G75*
G02*
X21869875Y6304010I-40240J0D01*
G01*
X21729875D01*
G75*
G02*
X21694444Y6325175I0J40240D01*
G01*
X21685810Y6316541D01*
Y6252876D01*
G75*
G02*
X21729875Y6288750I44065J-9126D01*
G01*
X21869875D01*
G75*
G02*
X21914875Y6243750I0J-45000D01*
G01*
Y6153750D01*
G75*
G02*
X21869875Y6108750I-45000J0D01*
G01*
X21729875D01*
G75*
G02*
X21685810Y6144624I0J45000D01*
G01*
Y5857459D01*
X21809875Y5733394D01*
G75*
G02*
X21861212Y5617240I-11250J-74394D01*
G01*
X21869875D01*
G75*
G02*
X21910115Y5577000I0J-40240D01*
G01*
Y5487000D01*
G75*
G02*
X21869875Y5446760I-40240J0D01*
G01*
X21729875D01*
G75*
G02*
X21696415Y5464646I0J40240D01*
G01*
X21685810Y5454041D01*
Y5395626D01*
G75*
G02*
X21729875Y5431500I44065J-9126D01*
G01*
X21869875D01*
G75*
G02*
X21914875Y5386500I0J-45000D01*
G01*
Y5296500D01*
G75*
G02*
X21869875Y5251500I-45000J0D01*
G01*
X21729875D01*
G75*
G02*
X21685810Y5287374I0J45000D01*
G01*
Y5031959D01*
X21809875Y4907894D01*
G75*
G02*
X21861212Y4791740I-11250J-74394D01*
G01*
X21869875D01*
G75*
G02*
X21910115Y4751500I0J-40240D01*
G01*
Y4661500D01*
G75*
G02*
X21869875Y4621260I-40240J0D01*
G01*
X21729875D01*
G75*
G02*
X21696415Y4639146I0J40240D01*
G01*
X21685810Y4628541D01*
Y4570126D01*
G75*
G02*
X21729875Y4606000I44065J-9126D01*
G01*
X21869875D01*
G75*
G02*
X21914875Y4561000I0J-45000D01*
G01*
Y4471000D01*
G75*
G02*
X21869875Y4426000I-45000J0D01*
G01*
X21729875D01*
G75*
G02*
X21685810Y4461874I0J45000D01*
G01*
Y4142959D01*
X21809875Y4018894D01*
G75*
G02*
X21861212Y3902740I-11250J-74394D01*
G01*
X21869875D01*
G75*
G02*
X21910115Y3862500I0J-40240D01*
G01*
Y3772500D01*
G75*
G02*
X21869875Y3732260I-40240J0D01*
G01*
X21729875D01*
G75*
G02*
X21692765Y3756940I0J40240D01*
G01*
X21687334D01*
X21685810Y3755416D01*
Y3681126D01*
G75*
G02*
X21729875Y3717000I44065J-9126D01*
G01*
X21869875D01*
G75*
G02*
X21914875Y3672000I0J-45000D01*
G01*
Y3582000D01*
G75*
G02*
X21869875Y3537000I-45000J0D01*
G01*
X21729875D01*
G75*
G02*
X21685810Y3572874I0J45000D01*
G01*
Y3317459D01*
X21809875Y3193394D01*
G75*
G02*
X21861212Y3077240I-11250J-74394D01*
G01*
X21869875D01*
G75*
G02*
X21910115Y3037000I0J-40240D01*
G01*
Y2947000D01*
G75*
G02*
X21869875Y2906760I-40240J0D01*
G01*
X21729875D01*
G75*
G02*
X21710179Y2911910I0J40240D01*
G01*
X21669935Y2871666D01*
Y2108370D01*
G75*
G02*
X21684653Y2095615I-60558J-84747D01*
G01*
X22357430D01*
X23495220Y3233405D01*
G75*
G02*
X23546404Y3254490I50905J-50905D01*
G01*
X23605029D01*
G75*
G02*
X23633134Y3267702I29846J-26990D01*
G01*
G75*
G02*
X23643207Y3338274I70633J25923D01*
G01*
Y3761774D01*
X23422568Y3982413D01*
G75*
G02*
X23393875Y3970385I-28694J28212D01*
G01*
X23253875D01*
G75*
G02*
X23213635Y4010625I0J40240D01*
G01*
Y4100625D01*
G75*
G02*
X23252134Y4140827I40240J0D01*
G01*
G75*
G02*
X23262207Y4211399I70633J25923D01*
G01*
Y4395666D01*
X23107183Y4550690D01*
X22907110D01*
G75*
G02*
X22870000Y4526010I-37110J15560D01*
G01*
X22730000D01*
G75*
G02*
X22689760Y4566250I0J40240D01*
G01*
Y4656250D01*
G75*
G02*
X22728912Y4696475I40240J0D01*
G01*
G75*
G02*
X22724760Y4721125I71088J24649D01*
G01*
G75*
G02*
X22875240I75240J0D01*
G01*
G75*
G02*
X22871088Y4696475I-75240J-1D01*
G01*
G75*
G02*
X22907110Y4671810I-1088J-40225D01*
G01*
X23132267D01*
G75*
G02*
X23175271Y4653890I0J-60560D01*
G01*
X23262207Y4566954D01*
Y4689517D01*
G75*
G02*
X23280127Y4732521I60560J0D01*
G01*
X23503121Y4955515D01*
G75*
G02*
X23546125Y4973435I43004J-42640D01*
G01*
X23613640D01*
G75*
G02*
X23650105Y4998110I37110J-15560D01*
G01*
G75*
G02*
X23660190Y5068649I70645J25890D01*
G01*
Y5468500D01*
G75*
G02*
X23678110Y5511504I60560J0D01*
G01*
X23709496Y5542890D01*
G75*
G02*
X23752500Y5560810I43004J-42640D01*
G01*
X23756515D01*
G75*
G02*
X23792537Y5585475I37110J-15560D01*
G01*
G75*
G02*
X23803065Y5654774I71088J24649D01*
G01*
Y6300666D01*
X23651556Y6452175D01*
G75*
G02*
X23616125Y6431010I-35431J19075D01*
G01*
X23476125D01*
G75*
G02*
X23435885Y6471250I0J40240D01*
G01*
Y6550940D01*
X22795985D01*
G75*
G02*
X22758875Y6526260I-37110J15560D01*
G01*
X22618875D01*
G75*
G02*
X22578635Y6566500I0J40240D01*
G01*
Y6656500D01*
G75*
G02*
X22618875Y6696740I40240J0D01*
G01*
X22619349D01*
G75*
G02*
X22613635Y6725500I69526J28761D01*
G01*
G75*
G02*
X22764115I75240J0D01*
G01*
G75*
G02*
X22758401Y6696740I-75240J1D01*
G01*
X22758875D01*
G75*
G02*
X22795985Y6672060I0J-40240D01*
G01*
X23485591D01*
G75*
G02*
X23616770Y6601485I60534J-44685D01*
G01*
G75*
G02*
X23653235Y6576810I-645J-40235D01*
G01*
X23673125D01*
G75*
G02*
X23716129Y6558890I0J-60560D01*
G01*
X23906265Y6368754D01*
G75*
G02*
X23924185Y6325750I-42640J-43004D01*
G01*
Y5654774D01*
G75*
G02*
X23934713Y5585475I-60560J-44650D01*
G01*
G75*
G02*
X23973865Y5545250I-1088J-40225D01*
G01*
Y5455250D01*
G75*
G02*
X23933625Y5415010I-40240J0D01*
G01*
X23793625D01*
G75*
G02*
X23781310Y5416941I1J40240D01*
G01*
Y5398032D01*
G75*
G02*
X23793625Y5399750I12315J-43282D01*
G01*
X23933625D01*
G75*
G02*
X23978625Y5354750I0J-45000D01*
G01*
Y5264750D01*
G75*
G02*
X23933625Y5219750I-45000J0D01*
G01*
X23793625D01*
G75*
G02*
X23781310Y5221468I0J45000D01*
G01*
Y5068649D01*
G75*
G02*
X23791395Y4998110I-60560J-44649D01*
G01*
G75*
G02*
X23830990Y4957875I-645J-40235D01*
G01*
Y4867875D01*
G75*
G02*
X23790750Y4827635I-40240J0D01*
G01*
X23650750D01*
G75*
G02*
X23613640Y4852315I0J40240D01*
G01*
X23571209D01*
X23383327Y4664433D01*
Y4427895D01*
G75*
G02*
Y4413605I-60560J-7145D01*
G01*
Y4211399D01*
G75*
G02*
X23393414Y4140865I-60560J-44649D01*
G01*
X23393875D01*
G75*
G02*
X23430985Y4116185I0J-40240D01*
G01*
X23435000D01*
G75*
G02*
X23478004Y4098265I0J-60560D01*
G01*
X23746407Y3829862D01*
G75*
G02*
X23764327Y3786858I-42640J-43004D01*
G01*
Y3338274D01*
G75*
G02*
X23774414Y3267740I-60560J-44649D01*
G01*
X23774875D01*
G75*
G02*
X23815115Y3227500I0J-40240D01*
G01*
Y3137500D01*
G75*
G02*
X23774875Y3097260I-40240J0D01*
G01*
X23634875D01*
G75*
G02*
X23605029Y3110510I0J40240D01*
G01*
X23575945D01*
X22438155Y1972720D01*
G75*
G02*
X22386971Y1951635I-50905J50905D01*
G01*
X21684653D01*
G75*
G02*
X21600031Y1919885I-75278J71990D01*
G01*
X20475719D01*
G75*
G02*
X20457031I-9344J103740D01*
G01*
X19412094D01*
G75*
G02*
X19393406I-9344J103740D01*
G01*
X16872094D01*
G75*
G02*
X16853406I-9344J103740D01*
G01*
X14062219D01*
G75*
G02*
X14043531I-9344J103740D01*
G01*
X12712844D01*
G75*
G02*
X12694156I-9344J103740D01*
G01*
X10975162D01*
G75*
G02*
X10971088I-2037J103740D01*
G01*
X9863282D01*
G75*
G02*
X9844594I-9344J103740D01*
G01*
X9537844D01*
G75*
G02*
X9519156I-9344J103740D01*
G01*
X3157928D01*
Y1917250D01*
G75*
G02*
X3117688Y1877010I-40240J0D01*
G01*
X3084158D01*
X3014737Y1807589D01*
G75*
G02*
X2941188Y1777010I-73549J73161D01*
G01*
X2797500D01*
G75*
G02*
X2738372Y1795510I0J103740D01*
G01*
X2727500D01*
G75*
G02*
X2697369Y1809078I0J40240D01*
G01*
G75*
G02*
X2661125Y1790750I-36244J26672D01*
G01*
X2521125D01*
G75*
G02*
X2503813Y1794214I2J45000D01*
G01*
G75*
G02*
X2486500Y1790750I-17314J41536D01*
G01*
X2346500D01*
G75*
G02*
X2301500Y1835750I0J45000D01*
G01*
Y1916563D01*
X2276250D01*
G75*
G02*
X2231250Y1961563I0J45000D01*
G01*
Y2101563D01*
G75*
G02*
X2234714Y2118876I45000J-1D01*
G01*
G75*
G02*
X2231250Y2136188I41536J17314D01*
G01*
Y2276188D01*
G75*
G02*
X2276250Y2321188I45000J0D01*
G01*
X2366250D01*
G75*
G02*
X2411250Y2276188I0J-45000D01*
G01*
Y2136188D01*
G75*
G02*
X2407786Y2118876I-45000J2D01*
G01*
G75*
G02*
X2411250Y2101563I-41536J-17314D01*
G01*
Y1970750D01*
X2486500D01*
G75*
G02*
X2503813Y1967286I-1J-45000D01*
G01*
G75*
G02*
X2521125Y1970750I17314J-41536D01*
G01*
X2661125D01*
G75*
G02*
X2697369Y1952422I0J-45000D01*
G01*
G75*
G02*
X2727500Y1965990I30131J-26672D01*
G01*
X2738372D01*
G75*
G02*
X2797500Y1984490I59128J-85240D01*
G01*
X2897448D01*
Y1995680D01*
X2774805Y2118323D01*
X2678717D01*
G75*
G02*
X2627533Y2139408I-279J71990D01*
G01*
X1675033Y3091908D01*
G75*
G02*
X1653948Y3143092I50905J50905D01*
G01*
Y3343309D01*
G75*
G02*
X1615698Y3383500I1990J40191D01*
G01*
Y3743500D01*
G75*
G02*
X1655938Y3783740I40240J0D01*
G01*
X1795938D01*
G75*
G02*
X1836178Y3743500I0J-40240D01*
G01*
Y3383500D01*
G75*
G02*
X1797928Y3343309I-40240J0D01*
G01*
Y3172633D01*
X2708258Y2262303D01*
X2804346D01*
G75*
G02*
X2855530Y2241218I279J-71990D01*
G01*
X3004866Y2091882D01*
X3009364Y2096446D01*
G75*
G02*
X3083477Y2127365I73886J-72821D01*
G01*
X9467940D01*
Y3316166D01*
X9395806Y3388300D01*
G75*
G02*
X9360375Y3367135I-35431J19075D01*
G01*
X9220375D01*
G75*
G02*
X9180135Y3407375I0J40240D01*
G01*
Y3497375D01*
G75*
G02*
X9220375Y3537615I40240J0D01*
G01*
X9229815D01*
Y3550858D01*
G75*
G02*
X9279314Y3669644I60749J44392D01*
G01*
X9372690Y3763020D01*
Y4236916D01*
X9332306Y4277300D01*
G75*
G02*
X9296875Y4256135I-35431J19075D01*
G01*
X9156875D01*
G75*
G02*
X9116635Y4296375I0J40240D01*
G01*
Y4386375D01*
G75*
G02*
X9156875Y4426615I40240J0D01*
G01*
X9166315D01*
Y4439601D01*
G75*
G02*
X9215625Y4558644I60560J44649D01*
G01*
X10747000Y5783375D02*
G75*
G02*
X10792000Y5828375I45000J0D01*
G01*
X10932000D01*
G75*
G02*
X10977000Y5783375I0J-45000D01*
G01*
Y5693375D01*
G75*
G02*
X10932000Y5648375I-45000J0D01*
G01*
X10792000D01*
G75*
G02*
X10747000Y5693375I0J45000D01*
G01*
Y5783375D01*
X12318625Y2957625D02*
G75*
G02*
X12363625Y3002625I45000J0D01*
G01*
X12503625D01*
G75*
G02*
X12548625Y2957625I0J-45000D01*
G01*
Y2867625D01*
G75*
G02*
X12503625Y2822625I-45000J0D01*
G01*
X12363625D01*
G75*
G02*
X12318625Y2867625I0J45000D01*
G01*
Y2957625D01*
X12445625Y6418375D02*
G75*
G02*
X12490625Y6463375I45000J0D01*
G01*
X12630625D01*
G75*
G02*
X12675625Y6418375I0J-45000D01*
G01*
Y6328375D01*
G75*
G02*
X12630625Y6283375I-45000J0D01*
G01*
X12490625D01*
G75*
G02*
X12445625Y6328375I0J45000D01*
G01*
Y6418375D01*
X13541000Y3703750D02*
G75*
G02*
X13586000Y3748750I45000J0D01*
G01*
X13726000D01*
G75*
G02*
X13771000Y3703750I0J-45000D01*
G01*
Y3613750D01*
G75*
G02*
X13726000Y3568750I-45000J0D01*
G01*
X13586000D01*
G75*
G02*
X13541000Y3613750I0J45000D01*
G01*
Y3703750D01*
X13239375Y4465750D02*
G75*
G02*
X13284375Y4510750I45000J0D01*
G01*
X13424375D01*
G75*
G02*
X13469375Y4465750I0J-45000D01*
G01*
Y4375750D01*
G75*
G02*
X13424375Y4330750I-45000J0D01*
G01*
X13284375D01*
G75*
G02*
X13239375Y4375750I0J45000D01*
G01*
Y4465750D01*
X14334750Y3783125D02*
G75*
G02*
X14379750Y3828125I45000J0D01*
G01*
X14519750D01*
G75*
G02*
X14564750Y3783125I0J-45000D01*
G01*
Y3693125D01*
G75*
G02*
X14519750Y3648125I-45000J0D01*
G01*
X14379750D01*
G75*
G02*
X14334750Y3693125I0J45000D01*
G01*
Y3783125D01*
X14239500Y2783000D02*
G75*
G02*
X14284500Y2828000I45000J0D01*
G01*
X14424500D01*
G75*
G02*
X14469500Y2783000I0J-45000D01*
G01*
Y2693000D01*
G75*
G02*
X14424500Y2648000I-45000J0D01*
G01*
X14284500D01*
G75*
G02*
X14239500Y2693000I0J45000D01*
G01*
Y2783000D01*
X18097125Y5878625D02*
G75*
G02*
X18142125Y5923625I45000J0D01*
G01*
X18282125D01*
G75*
G02*
X18327125Y5878625I0J-45000D01*
G01*
Y5788625D01*
G75*
G02*
X18282125Y5743625I-45000J0D01*
G01*
X18142125D01*
G75*
G02*
X18097125Y5788625I0J45000D01*
G01*
Y5878625D01*
X17811375Y5386500D02*
G75*
G02*
X17856375Y5431500I45000J0D01*
G01*
X17996375D01*
G75*
G02*
X18041375Y5386500I0J-45000D01*
G01*
Y5296500D01*
G75*
G02*
X17996375Y5251500I-45000J0D01*
G01*
X17856375D01*
G75*
G02*
X17811375Y5296500I0J45000D01*
G01*
Y5386500D01*
X17589125Y4592750D02*
G75*
G02*
X17634125Y4637750I45000J0D01*
G01*
X17774125D01*
G75*
G02*
X17819125Y4592750I0J-45000D01*
G01*
Y4502750D01*
G75*
G02*
X17774125Y4457750I-45000J0D01*
G01*
X17634125D01*
G75*
G02*
X17589125Y4502750I0J45000D01*
G01*
Y4592750D01*
X17922500Y3545000D02*
G75*
G02*
X17967500Y3590000I45000J0D01*
G01*
X18107500D01*
G75*
G02*
X18152500Y3545000I0J-45000D01*
G01*
Y3455000D01*
G75*
G02*
X18107500Y3410000I-45000J0D01*
G01*
X17967500D01*
G75*
G02*
X17922500Y3455000I0J45000D01*
G01*
Y3545000D01*
X17319250Y3767250D02*
G75*
G02*
X17364250Y3812250I45000J0D01*
G01*
X17504250D01*
G75*
G02*
X17549250Y3767250I0J-45000D01*
G01*
Y3677250D01*
G75*
G02*
X17504250Y3632250I-45000J0D01*
G01*
X17364250D01*
G75*
G02*
X17319250Y3677250I0J45000D01*
G01*
Y3767250D01*
X17081125Y2941750D02*
G75*
G02*
X17126125Y2986750I45000J0D01*
G01*
X17266125D01*
G75*
G02*
X17311125Y2941750I0J-45000D01*
G01*
Y2851750D01*
G75*
G02*
X17266125Y2806750I-45000J0D01*
G01*
X17126125D01*
G75*
G02*
X17081125Y2851750I0J45000D01*
G01*
Y2941750D01*
X18954375Y2783000D02*
G75*
G02*
X18999375Y2828000I45000J0D01*
G01*
X19139375D01*
G75*
G02*
X19184375Y2783000I0J-45000D01*
G01*
Y2693000D01*
G75*
G02*
X19139375Y2648000I-45000J0D01*
G01*
X18999375D01*
G75*
G02*
X18954375Y2693000I0J45000D01*
G01*
Y2783000D01*
X20541875Y6386625D02*
G75*
G02*
X20586875Y6431625I45000J0D01*
G01*
X20726875D01*
G75*
G02*
X20771875Y6386625I0J-45000D01*
G01*
Y6296625D01*
G75*
G02*
X20726875Y6251625I-45000J0D01*
G01*
X20586875D01*
G75*
G02*
X20541875Y6296625I0J45000D01*
G01*
Y6386625D01*
X20557750Y5545250D02*
G75*
G02*
X20602750Y5590250I45000J0D01*
G01*
X20742750D01*
G75*
G02*
X20787750Y5545250I0J-45000D01*
G01*
Y5455250D01*
G75*
G02*
X20742750Y5410250I-45000J0D01*
G01*
X20602750D01*
G75*
G02*
X20557750Y5455250I0J45000D01*
G01*
Y5545250D01*
X20541875Y4703875D02*
G75*
G02*
X20586875Y4748875I45000J0D01*
G01*
X20726875D01*
G75*
G02*
X20771875Y4703875I0J-45000D01*
G01*
Y4613875D01*
G75*
G02*
X20726875Y4568875I-45000J0D01*
G01*
X20586875D01*
G75*
G02*
X20541875Y4613875I0J45000D01*
G01*
Y4703875D01*
Y3846625D02*
G75*
G02*
X20586875Y3891625I45000J0D01*
G01*
X20726875D01*
G75*
G02*
X20771875Y3846625I0J-45000D01*
G01*
Y3756625D01*
G75*
G02*
X20726875Y3711625I-45000J0D01*
G01*
X20586875D01*
G75*
G02*
X20541875Y3756625I0J45000D01*
G01*
Y3846625D01*
X21684875Y2846500D02*
G75*
G02*
X21729875Y2891500I45000J0D01*
G01*
X21869875D01*
G75*
G02*
X21914875Y2846500I0J-45000D01*
G01*
Y2756500D01*
G75*
G02*
X21869875Y2711500I-45000J0D01*
G01*
X21729875D01*
G75*
G02*
X21684875Y2756500I0J45000D01*
G01*
Y2846500D01*
X23208875Y3910125D02*
G75*
G02*
X23253875Y3955125I45000J0D01*
G01*
X23393875D01*
G75*
G02*
X23438875Y3910125I0J-45000D01*
G01*
Y3820125D01*
G75*
G02*
X23393875Y3775125I-45000J0D01*
G01*
X23253875D01*
G75*
G02*
X23208875Y3820125I0J45000D01*
G01*
Y3910125D01*
X23431125Y6370750D02*
G75*
G02*
X23476125Y6415750I45000J0D01*
G01*
X23616125D01*
G75*
G02*
X23661125Y6370750I0J-45000D01*
G01*
Y6280750D01*
G75*
G02*
X23616125Y6235750I-45000J0D01*
G01*
X23476125D01*
G75*
G02*
X23431125Y6280750I0J45000D01*
G01*
Y6370750D01*
X23605750Y4767375D02*
G75*
G02*
X23650750Y4812375I45000J0D01*
G01*
X23790750D01*
G75*
G02*
X23835750Y4767375I0J-45000D01*
G01*
Y4677375D01*
G75*
G02*
X23790750Y4632375I-45000J0D01*
G01*
X23650750D01*
G75*
G02*
X23605750Y4677375I0J45000D01*
G01*
Y4767375D01*
X23589875Y3037000D02*
G75*
G02*
X23634875Y3082000I45000J0D01*
G01*
X23774875D01*
G75*
G02*
X23819875Y3037000I0J-45000D01*
G01*
Y2947000D01*
G75*
G02*
X23774875Y2902000I-45000J0D01*
G01*
X23634875D01*
G75*
G02*
X23589875Y2947000I0J45000D01*
G01*
Y3037000D01*
X1777625Y2582813D02*
X1827625D01*
G75*
G02*
X1858158Y2413313I0J-87500D01*
G01*
X2002625D01*
G75*
G02*
X2047625Y2368313I0J-45000D01*
G01*
Y2298313D01*
G75*
G02*
X2036986Y2269256I-45000J0D01*
G01*
G75*
G02*
X2042865Y2248313I-34361J-20942D01*
G01*
Y2203947D01*
X2045510Y2206592D01*
Y2276188D01*
G75*
G02*
X2085750Y2316428I40240J0D01*
G01*
X2175750D01*
G75*
G02*
X2215990Y2276188I0J-40240D01*
G01*
Y2136188D01*
G75*
G02*
X2212075Y2118876I-40240J1D01*
G01*
G75*
G02*
X2215990Y2101563I-36325J-17313D01*
G01*
Y1961563D01*
G75*
G02*
X2207813Y1937247I-40240J-1D01*
G01*
X2276905Y1868155D01*
G75*
G02*
X2297990Y1816971I-50905J-50905D01*
G01*
Y1720071D01*
X2306260Y1711801D01*
Y1735250D01*
G75*
G02*
X2346500Y1775490I40240J0D01*
G01*
X2486500D01*
G75*
G02*
X2503813Y1771575I0J-40240D01*
G01*
G75*
G02*
X2521125Y1775490I17313J-36325D01*
G01*
X2661125D01*
G75*
G02*
X2694313Y1758006I0J-40240D01*
G01*
G75*
G02*
X2727500Y1775490I33188J-22756D01*
G01*
X2867500D01*
G75*
G02*
X2905446Y1748642I0J-40240D01*
G01*
G75*
G02*
X2937688Y1762250I32242J-31392D01*
G01*
X3117688D01*
G75*
G02*
X3162688Y1717250I0J-45000D01*
G01*
Y1617250D01*
G75*
G02*
X3117688Y1572250I-45000J0D01*
G01*
X2937688D01*
G75*
G02*
X2892808Y1613965I0J45000D01*
G01*
G75*
G02*
X2867500Y1605010I-25308J31285D01*
G01*
X2814070D01*
X2808248Y1599188D01*
X2824688D01*
G75*
G02*
X2869688Y1554188I0J-45000D01*
G01*
Y1409721D01*
G75*
G02*
X3039188Y1379188I82000J-30533D01*
G01*
Y1329188D01*
G75*
G02*
X2864188I-87500J0D01*
G01*
Y1332630D01*
G75*
G02*
X2824688Y1309188I-39500J21558D01*
G01*
X2754688D01*
G75*
G02*
X2730248Y1316403I0J45000D01*
G01*
Y1300500D01*
G75*
G02*
X2712328Y1257496I-60560J0D01*
G01*
X2673817Y1218985D01*
G75*
G02*
X2630813Y1201065I-43004J42640D01*
G01*
X2408563D01*
G75*
G02*
X2365559Y1218985I0J60560D01*
G01*
X2327048Y1257496D01*
G75*
G02*
X2309128Y1300500I42640J43004D01*
G01*
Y1316403D01*
G75*
G02*
X2284688Y1309188I-24440J37785D01*
G01*
X2214688D01*
G75*
G02*
X2175188Y1332630I0J45000D01*
G01*
Y1329188D01*
G75*
G02*
X2000188I-87500J0D01*
G01*
Y1379188D01*
G75*
G02*
X2169688Y1409721I87500J0D01*
G01*
Y1554188D01*
G75*
G02*
X2214688Y1599188I45000J0D01*
G01*
X2215253D01*
X2175095Y1639346D01*
G75*
G02*
X2154010Y1690530I50905J50905D01*
G01*
Y1787430D01*
X2100117Y1841323D01*
X2045703D01*
G75*
G02*
X2047625Y1828313I-43078J-13011D01*
G01*
Y1758313D01*
G75*
G02*
X2002625Y1713313I-45000J0D01*
G01*
X1858158D01*
G75*
G02*
X1827625Y1543813I-30533J-82000D01*
G01*
X1777625D01*
G75*
G02*
Y1718813I0J87500D01*
G01*
X1781067D01*
G75*
G02*
X1757625Y1758313I21558J39500D01*
G01*
Y1828313D01*
G75*
G02*
X1764840Y1852753I45000J0D01*
G01*
X1741813D01*
G75*
G02*
X1698809Y1870673I0J60560D01*
G01*
X1659485Y1909997D01*
G75*
G02*
X1641565Y1953001I42640J43004D01*
G01*
Y2182375D01*
G75*
G02*
X1659485Y2225379I60560J0D01*
G01*
X1690059Y2255953D01*
G75*
G02*
X1733063Y2273873I43004J-42640D01*
G01*
X1764840D01*
G75*
G02*
X1757625Y2298313I37785J24440D01*
G01*
Y2368313D01*
G75*
G02*
X1781067Y2407813I45000J0D01*
G01*
X1777625D01*
G75*
G02*
Y2582813I0J87500D01*
G01*
X9111875Y4195875D02*
G75*
G02*
X9156875Y4240875I45000J0D01*
G01*
X9296875D01*
G75*
G02*
X9341875Y4195875I0J-45000D01*
G01*
Y4105875D01*
G75*
G02*
X9296875Y4060875I-45000J0D01*
G01*
X9156875D01*
G75*
G02*
X9111875Y4105875I0J45000D01*
G01*
Y4195875D01*
X9175375Y3306875D02*
G75*
G02*
X9220375Y3351875I45000J0D01*
G01*
X9360375D01*
G75*
G02*
X9405375Y3306875I0J-45000D01*
G01*
Y3216875D01*
G75*
G02*
X9360375Y3171875I-45000J0D01*
G01*
X9220375D01*
G75*
G02*
X9175375Y3216875I0J45000D01*
G01*
Y3306875D01*
X9753698Y2644000D02*
G75*
G02*
X9793378Y2684236I40240J0D01*
G01*
Y2936438D01*
G75*
G02*
X9811298Y2979442I60560J0D01*
G01*
X9866496Y3034640D01*
G75*
G02*
X9909500Y3052560I43004J-42640D01*
G01*
X9929390D01*
G75*
G02*
X9966500Y3077240I37110J-15560D01*
G01*
X9975940D01*
Y3106101D01*
G75*
G02*
X9961260Y3150750I60560J44649D01*
G01*
G75*
G02*
X10111740I75240J0D01*
G01*
G75*
G02*
X10097060Y3106101I-75240J0D01*
G01*
Y3077240D01*
X10106500D01*
G75*
G02*
X10146740Y3037000I0J-40240D01*
G01*
Y2947000D01*
G75*
G02*
X10106500Y2906760I-40240J0D01*
G01*
X9966500D01*
G75*
G02*
X9931069Y2927925I0J40240D01*
G01*
X9914498Y2911354D01*
Y2684236D01*
G75*
G02*
X9954178Y2644000I-560J-40236D01*
G01*
Y2534000D01*
G75*
G02*
X9913938Y2493760I-40240J0D01*
G01*
X9793938D01*
G75*
G02*
X9753698Y2534000I0J40240D01*
G01*
Y2644000D01*
X9921500Y2846500D02*
G75*
G02*
X9966500Y2891500I45000J0D01*
G01*
X10106500D01*
G75*
G02*
X10151500Y2846500I0J-45000D01*
G01*
Y2756500D01*
G75*
G02*
X10106500Y2711500I-45000J0D01*
G01*
X9966500D01*
G75*
G02*
X9921500Y2756500I0J45000D01*
G01*
Y2846500D01*
X10048500Y6243750D02*
G75*
G02*
X10093500Y6288750I45000J0D01*
G01*
X10233500D01*
G75*
G02*
X10278500Y6243750I0J-45000D01*
G01*
Y6153750D01*
G75*
G02*
X10233500Y6108750I-45000J0D01*
G01*
X10093500D01*
G75*
G02*
X10048500Y6153750I0J45000D01*
G01*
Y6243750D01*
X12921875Y5211875D02*
G75*
G02*
X12966875Y5256875I45000J0D01*
G01*
X13106875D01*
G75*
G02*
X13151875Y5211875I0J-45000D01*
G01*
Y5121875D01*
G75*
G02*
X13106875Y5076875I-45000J0D01*
G01*
X12966875D01*
G75*
G02*
X12921875Y5121875I0J45000D01*
G01*
Y5211875D01*
X22573875Y6466000D02*
G75*
G02*
X22618875Y6511000I45000J0D01*
G01*
X22758875D01*
G75*
G02*
X22803875Y6466000I0J-45000D01*
G01*
Y6376000D01*
G75*
G02*
X22758875Y6331000I-45000J0D01*
G01*
X22618875D01*
G75*
G02*
X22573875Y6376000I0J45000D01*
G01*
Y6466000D01*
X22685000Y4465750D02*
G75*
G02*
X22730000Y4510750I45000J0D01*
G01*
X22870000D01*
G75*
G02*
X22915000Y4465750I0J-45000D01*
G01*
Y4375750D01*
G75*
G02*
X22870000Y4330750I-45000J0D01*
G01*
X22730000D01*
G75*
G02*
X22685000Y4375750I0J45000D01*
G01*
Y4465750D01*
X31090240Y1250500D02*
G75*
G02*
X30699760I-195240J0D01*
G01*
G75*
G02*
X31090240I195240J0D01*
G01*
Y8450500D02*
G75*
G02*
X30699760I-195240J0D01*
G01*
G75*
G02*
X31090240I195240J0D01*
G01*
X2377698Y5775500D02*
G75*
G02*
X2417938Y5815740I40240J0D01*
G01*
X2557938D01*
G75*
G02*
X2598178Y5775500I0J-40240D01*
G01*
Y5415500D01*
G75*
G02*
X2557938Y5375260I-40240J0D01*
G01*
X2417938D01*
G75*
G02*
X2377698Y5415500I0J40240D01*
G01*
Y5775500D01*
X1864938D02*
G75*
G02*
X1909938Y5820500I45000J0D01*
G01*
X2049938D01*
G75*
G02*
X2094938Y5775500I0J-45000D01*
G01*
Y5415500D01*
G75*
G02*
X2049938Y5370500I-45000J0D01*
G01*
X1909938D01*
G75*
G02*
X1864938Y5415500I0J45000D01*
G01*
Y5775500D01*
X2123698D02*
G75*
G02*
X2163938Y5815740I40240J0D01*
G01*
X2303938D01*
G75*
G02*
X2344178Y5775500I0J-40240D01*
G01*
Y5415500D01*
G75*
G02*
X2315788Y5377044I-40240J0D01*
G01*
X2338397Y5354435D01*
X3857292D01*
G75*
G02*
X3963115Y5293875I35583J-60560D01*
G01*
G75*
G02*
X3857292Y5233315I-70240J0D01*
G01*
X2313313D01*
G75*
G02*
X2270309Y5251235I0J60560D01*
G01*
X2191298Y5330246D01*
G75*
G02*
X2173378Y5373250I42640J43004D01*
G01*
Y5375260D01*
X2163938D01*
G75*
G02*
X2123698Y5415500I0J40240D01*
G01*
Y5775500D01*
X3901698Y3743500D02*
G75*
G02*
X3941938Y3783740I40240J0D01*
G01*
X4081938D01*
G75*
G02*
X4122178Y3743500I0J-40240D01*
G01*
Y3383500D01*
G75*
G02*
X4081938Y3343260I-40240J0D01*
G01*
X3941938D01*
G75*
G02*
X3901698Y3383500I0J40240D01*
G01*
Y3743500D01*
X2631698D02*
G75*
G02*
X2671938Y3783740I40240J0D01*
G01*
X2811938D01*
G75*
G02*
X2852178Y3743500I0J-40240D01*
G01*
Y3383500D01*
G75*
G02*
X2811938Y3343260I-40240J0D01*
G01*
X2671938D01*
G75*
G02*
X2631698Y3383500I0J40240D01*
G01*
Y3743500D01*
X2885698D02*
G75*
G02*
X2925938Y3783740I40240J0D01*
G01*
X3065938D01*
G75*
G02*
X3106178Y3743500I0J-40240D01*
G01*
Y3383500D01*
G75*
G02*
X3065938Y3343260I-40240J0D01*
G01*
X2925938D01*
G75*
G02*
X2885698Y3383500I0J40240D01*
G01*
Y3743500D01*
X3134938D02*
G75*
G02*
X3179938Y3788500I45000J0D01*
G01*
X3319938D01*
G75*
G02*
X3364938Y3743500I0J-45000D01*
G01*
Y3383500D01*
G75*
G02*
X3319938Y3338500I-45000J0D01*
G01*
X3179938D01*
G75*
G02*
X3134938Y3383500I0J45000D01*
G01*
Y3743500D01*
X3393698D02*
G75*
G02*
X3433938Y3783740I40240J0D01*
G01*
X3573938D01*
G75*
G02*
X3614178Y3743500I0J-40240D01*
G01*
Y3383500D01*
G75*
G02*
X3573938Y3343260I-40240J0D01*
G01*
X3433938D01*
G75*
G02*
X3393698Y3383500I0J40240D01*
G01*
Y3743500D01*
X3647698D02*
G75*
G02*
X3687938Y3783740I40240J0D01*
G01*
X3827938D01*
G75*
G02*
X3868178Y3743500I0J-40240D01*
G01*
Y3383500D01*
G75*
G02*
X3827938Y3343260I-40240J0D01*
G01*
X3687938D01*
G75*
G02*
X3647698Y3383500I0J40240D01*
G01*
Y3743500D01*
X1879621Y5130877D02*
X2538843Y4471655D01*
G75*
G02*
X2559928Y4420471I-50905J-50905D01*
G01*
Y3783691D01*
G75*
G02*
X2598178Y3743500I-1990J-40191D01*
G01*
Y3383500D01*
G75*
G02*
X2557938Y3343260I-40240J0D01*
G01*
X2417938D01*
G75*
G02*
X2377698Y3383500I0J40240D01*
G01*
Y3743500D01*
G75*
G02*
X2415948Y3783691I40240J0D01*
G01*
Y4390930D01*
X1777811Y5029067D01*
G75*
G02*
X1738010Y5095438I35439J66371D01*
G01*
G75*
G02*
X1879621Y5130877I75240J0D01*
G01*
X1864938Y3743500D02*
G75*
G02*
X1909938Y3788500I45000J0D01*
G01*
X2049938D01*
G75*
G02*
X2094938Y3743500I0J-45000D01*
G01*
Y3383500D01*
G75*
G02*
X2049938Y3338500I-45000J0D01*
G01*
X1909938D01*
G75*
G02*
X1864938Y3383500I0J45000D01*
G01*
Y3743500D01*
X2123698D02*
G75*
G02*
X2163938Y3783740I40240J0D01*
G01*
X2303938D01*
G75*
G02*
X2344178Y3743500I0J-40240D01*
G01*
Y3383500D01*
G75*
G02*
X2303938Y3343260I-40240J0D01*
G01*
X2163938D01*
G75*
G02*
X2123698Y3383500I0J40240D01*
G01*
Y3743500D01*
X1890240Y1250500D02*
G75*
G02*
X1499760I-195240J0D01*
G01*
G75*
G02*
X1890240I195240J0D01*
G01*
X1385800Y5833625D02*
G36*
X1385800Y5833625D02*
Y5812362D01*
G75*
G02*
X1401938Y5815740I16138J-36862D01*
G01*
X1517714D01*
X1535599Y5833625D01*
X1385800D01*
G37*
X1582178Y3658750D02*
G36*
X1582178Y3658750D02*
Y3563500D01*
X1615698D01*
Y3658750D01*
X1582178D01*
G37*
Y5595500D02*
G36*
X1582178Y5595500D02*
Y5500250D01*
X1615698D01*
Y5595500D01*
X1582178D01*
G37*
Y5737652D02*
G36*
X1582178Y5737652D02*
Y5595500D01*
X1615698D01*
Y5738375D01*
X1582901D01*
X1582178Y5737652D01*
G37*
X1582901Y5738375D02*
G36*
X1582901Y5738375D02*
X1615698D01*
Y5771172D01*
X1582901Y5738375D01*
G37*
X1385800Y3346638D02*
G36*
X1385800Y3346638D02*
Y3261875D01*
X1653948D01*
Y3343309D01*
G75*
G02*
X1615698Y3383500I1990J40191D01*
G01*
Y3563500D01*
X1582178D01*
Y3383500D01*
G75*
G02*
X1541938Y3343260I-40240J0D01*
G01*
X1401938D01*
G75*
G02*
X1385800Y3346638I0J40240D01*
G01*
G37*
Y3261875D02*
G36*
X1385800Y3261875D02*
Y2912625D01*
X1854316D01*
X1675033Y3091908D01*
G75*
G02*
X1653947Y3142813I50905J50906D01*
G01*
X1653948Y3143092D01*
Y3261875D01*
X1385800D01*
G37*
X1836178Y3658750D02*
G36*
X1836178Y3658750D02*
Y3563500D01*
X1864938D01*
Y3658750D01*
X1836178D01*
G37*
Y5595500D02*
G36*
X1836178Y5595500D02*
Y5500250D01*
X1864938D01*
Y5595500D01*
X1836178D01*
G37*
Y5738375D02*
G36*
X1836178Y5738375D02*
Y5595500D01*
X1864938D01*
Y5738375D01*
X1836178D01*
G37*
X1385800Y6198750D02*
G36*
X1385800Y6198750D02*
Y5833625D01*
X1535599D01*
X1900724Y6198750D01*
X1385800D01*
G37*
Y2912625D02*
G36*
X1385800Y2912625D02*
Y2738000D01*
X2028941D01*
X1854316Y2912625D01*
X1385800D01*
G37*
Y6373375D02*
G36*
X1385800Y6373375D02*
Y6198750D01*
X1900724D01*
X2064475Y6362501D01*
Y6373375D01*
X1954747D01*
X1879621Y6298249D01*
G75*
G02*
X1738010Y6333688I-66371J35439D01*
G01*
G75*
G02*
X1749328Y6373375I75240J0D01*
G01*
X1385800D01*
G37*
X1954747D02*
G36*
X1954747Y6373375D02*
X2064475D01*
Y6390135D01*
X1974625D01*
G75*
G02*
X1971619Y6390247I-6J40240D01*
G01*
X1954747Y6373375D01*
G37*
X2094938Y3658750D02*
G36*
X2094938Y3658750D02*
Y3563500D01*
X2123698D01*
Y3658750D01*
X2094938D01*
G37*
Y5595500D02*
G36*
X2094938Y5595500D02*
Y5500250D01*
X2123698D01*
Y5595500D01*
X2094938D01*
G37*
Y5738375D02*
G36*
X2094938Y5738375D02*
Y5595500D01*
X2123698D01*
Y5738375D01*
X2094938D01*
G37*
X1385800Y5103375D02*
G36*
X1385800Y5103375D02*
Y4658875D01*
X2148003D01*
X1777811Y5029067D01*
G75*
G02*
X1738010Y5095438I35439J66371D01*
G01*
G75*
G02*
X1738430Y5103375I75240J-2D01*
G01*
X1385800D01*
G37*
Y5378638D02*
G36*
X1385800Y5378638D02*
Y5341500D01*
X2182368D01*
G75*
G02*
X2173378Y5373250I51570J31750D01*
G01*
Y5375260D01*
X2163938D01*
G75*
G02*
X2123698Y5415500I0J40240D01*
G01*
Y5500250D01*
X2094938D01*
Y5415500D01*
G75*
G02*
X2049938Y5370500I-45000J0D01*
G01*
X1909938D01*
G75*
G02*
X1864938Y5415500I0J45000D01*
G01*
Y5500250D01*
X1836178D01*
Y5415500D01*
G75*
G02*
X1795938Y5375260I-40240J0D01*
G01*
X1655938D01*
G75*
G02*
X1615698Y5415500I0J40240D01*
G01*
Y5500250D01*
X1582178D01*
Y5415500D01*
G75*
G02*
X1541938Y5375260I-40240J0D01*
G01*
X1401938D01*
G75*
G02*
X1385800Y5378638I0J40240D01*
G01*
G37*
Y1891939D02*
G36*
X1385800Y1891939D02*
Y1716047D01*
G75*
G02*
X1407625Y1718813I21827J-84734D01*
G01*
X1457625D01*
G75*
G02*
X1545125Y1631313I0J-87500D01*
G01*
G75*
G02*
X1457625Y1543813I-87500J0D01*
G01*
X1407625D01*
G75*
G02*
X1385800Y1546579I2J87500D01*
G01*
Y1250500D01*
X1499760D01*
G75*
G02*
X1890240I195240J0D01*
G01*
X2049420D01*
G75*
G02*
X2000188Y1329188I38268J78688D01*
G01*
Y1379188D01*
G75*
G02*
X2169688Y1409721I87500J0D01*
G01*
Y1554188D01*
G75*
G02*
X2214688Y1599188I45000J0D01*
G01*
X2215253D01*
X2175095Y1639346D01*
G75*
G02*
X2154009Y1690251I50905J50906D01*
G01*
X2154010Y1690530D01*
Y1787430D01*
X2100117Y1841323D01*
X2045703D01*
G75*
G02*
X2047625Y1828313I-43078J-13011D01*
G01*
Y1758313D01*
G75*
G02*
X2002625Y1713313I-45000J0D01*
G01*
X1858158D01*
G75*
G02*
X1915125Y1631313I-30533J-82000D01*
G01*
G75*
G02*
X1827625Y1543813I-87500J0D01*
G01*
X1777625D01*
G75*
G02*
X1690125Y1631313I0J87500D01*
G01*
G75*
G02*
X1777625Y1718813I87500J0D01*
G01*
X1781067D01*
G75*
G02*
X1757625Y1758313I21558J39500D01*
G01*
Y1828313D01*
G75*
G02*
X1764840Y1852753I45000J0D01*
G01*
X1741813D01*
G75*
G02*
X1698809Y1870673I0J60560D01*
G01*
X1677543Y1891939D01*
X1385800D01*
G37*
Y4658875D02*
G36*
X1385800Y4658875D02*
Y4547750D01*
X2259128D01*
X2148003Y4658875D01*
X1385800D01*
G37*
Y8214875D02*
G36*
X1385800Y8214875D02*
Y6373375D01*
X1749328D01*
G75*
G02*
X1777811Y6400059I63922J-39687D01*
G01*
X1878273Y6500521D01*
X1873798Y6504996D01*
G75*
G02*
X1855878Y6548000I42640J43004D01*
G01*
Y6599640D01*
G75*
G02*
X1831198Y6636750I15560J37110D01*
G01*
Y6776750D01*
G75*
G02*
X1855878Y6813860I40240J0D01*
G01*
Y6873438D01*
G75*
G02*
X1873798Y6916442I60560J0D01*
G01*
X1955550Y6998194D01*
G75*
G02*
X1934385Y7033625I19075J35431D01*
G01*
Y7173625D01*
G75*
G02*
X1959065Y7210735I40240J0D01*
G01*
Y7688625D01*
G75*
G02*
X1976985Y7731629I60560J0D01*
G01*
X2292440Y8047084D01*
Y8107765D01*
G75*
G02*
X2267787Y8143411I15560J37110D01*
G01*
G75*
G02*
X2169010Y8214875I-23537J71464D01*
G01*
X1385800D01*
G37*
X2125956Y1250500D02*
G36*
X2125956Y1250500D02*
X2334044D01*
X2327048Y1257496D01*
G75*
G02*
X2309128Y1300500I42640J43004D01*
G01*
Y1316403D01*
G75*
G02*
X2284688Y1309188I-24440J37785D01*
G01*
X2214688D01*
G75*
G02*
X2175188Y1332630I0J45000D01*
G01*
Y1329188D01*
G75*
G02*
X2125956Y1250500I-87500J0D01*
G01*
G37*
X2344178Y3658750D02*
G36*
X2344178Y3658750D02*
Y3563500D01*
X2377698D01*
Y3658750D01*
X2344178D01*
G37*
Y5595500D02*
G36*
X2344178Y5595500D02*
Y5500250D01*
X2377698D01*
Y5595500D01*
X2344178D01*
G37*
Y5738375D02*
G36*
X2344178Y5738375D02*
Y5595500D01*
X2377698D01*
Y5738375D01*
X2344178D01*
G37*
X1385800Y4547750D02*
G36*
X1385800Y4547750D02*
Y4420750D01*
X2386128D01*
X2259128Y4547750D01*
X1385800D01*
G37*
Y3801625D02*
G36*
X1385800Y3801625D02*
Y3780362D01*
G75*
G02*
X1401938Y3783740I16138J-36862D01*
G01*
X1541938D01*
G75*
G02*
X1582178Y3743500I0J-40240D01*
G01*
Y3658750D01*
X1615698D01*
Y3743500D01*
G75*
G02*
X1655938Y3783740I40240J0D01*
G01*
X1795938D01*
G75*
G02*
X1836178Y3743500I0J-40240D01*
G01*
Y3658750D01*
X1864938D01*
Y3743500D01*
G75*
G02*
X1909938Y3788500I45000J0D01*
G01*
X2049938D01*
G75*
G02*
X2094938Y3743500I0J-45000D01*
G01*
Y3658750D01*
X2123698D01*
Y3743500D01*
G75*
G02*
X2163938Y3783740I40240J0D01*
G01*
X2303938D01*
G75*
G02*
X2344178Y3743500I0J-40240D01*
G01*
Y3658750D01*
X2377698D01*
Y3743500D01*
G75*
G02*
X2415948Y3783691I40240J0D01*
G01*
Y3801625D01*
X1385800D01*
G37*
Y4150875D02*
G36*
X1385800Y4150875D02*
Y3801625D01*
X2415948D01*
Y4150875D01*
X1385800D01*
G37*
Y4420750D02*
G36*
X1385800Y4420750D02*
Y4150875D01*
X2415948D01*
Y4390930D01*
X2386128Y4420750D01*
X1385800D01*
G37*
X2598178Y3658750D02*
G36*
X2598178Y3658750D02*
Y3563500D01*
X2631698D01*
Y3658750D01*
X2598178D01*
G37*
Y5595500D02*
G36*
X2598178Y5595500D02*
Y5500250D01*
X2631698D01*
Y5595500D01*
X2598178D01*
G37*
Y5738375D02*
G36*
X2598178Y5738375D02*
Y5595500D01*
X2631698D01*
Y5738375D01*
X2598178D01*
G37*
X2852178Y3658750D02*
G36*
X2852178Y3658750D02*
Y3563500D01*
X2885698D01*
Y3658750D01*
X2852178D01*
G37*
Y5595500D02*
G36*
X2852178Y5595500D02*
Y5500250D01*
X2885698D01*
Y5595500D01*
X2852178D01*
G37*
Y5738375D02*
G36*
X2852178Y5738375D02*
Y5595500D01*
X2885698D01*
Y5738375D01*
X2852178D01*
G37*
X1385800Y2738000D02*
G36*
X1385800Y2738000D02*
Y2580047D01*
G75*
G02*
X1407625Y2582813I21827J-84734D01*
G01*
X1457625D01*
G75*
G02*
X1545125Y2495313I0J-87500D01*
G01*
G75*
G02*
X1457625Y2407813I-87500J0D01*
G01*
X1407625D01*
G75*
G02*
X1385800Y2410579I2J87500D01*
G01*
Y1891939D01*
X1677543D01*
X1659485Y1909997D01*
G75*
G02*
X1641565Y1953001I42640J43004D01*
G01*
Y2182375D01*
G75*
G02*
X1659485Y2225379I60560J0D01*
G01*
X1690059Y2255953D01*
G75*
G02*
X1733063Y2273873I43004J-42640D01*
G01*
X1764840D01*
G75*
G02*
X1757625Y2298313I37785J24440D01*
G01*
Y2368313D01*
G75*
G02*
X1781067Y2407813I45000J0D01*
G01*
X1777625D01*
G75*
G02*
X1690125Y2495313I0J87500D01*
G01*
G75*
G02*
X1777625Y2582813I87500J0D01*
G01*
X1827625D01*
G75*
G02*
X1915125Y2495313I0J-87500D01*
G01*
G75*
G02*
X1858158Y2413313I-87500J0D01*
G01*
X2002625D01*
G75*
G02*
X2047625Y2368313I0J-45000D01*
G01*
Y2298313D01*
G75*
G02*
X2036986Y2269256I-45000J0D01*
G01*
G75*
G02*
X2042865Y2248314I-34361J-20942D01*
G01*
Y2248313D01*
Y2203947D01*
X2045510Y2206592D01*
Y2276188D01*
G75*
G02*
X2085750Y2316428I40240J0D01*
G01*
X2175750D01*
G75*
G02*
X2215990Y2276188I0J-40240D01*
G01*
Y2136188D01*
G75*
G02*
X2212075Y2118876I-40240J1D01*
G01*
G75*
G02*
X2215990Y2101563I-36325J-17313D01*
G01*
Y1961563D01*
Y1961562D01*
G75*
G02*
X2207813Y1937247I-40240J0D01*
G01*
X2253121Y1891939D01*
X2301500D01*
Y1916563D01*
X2276250D01*
G75*
G02*
X2231250Y1961563I0J45000D01*
G01*
Y2101563D01*
G75*
G02*
X2234714Y2118876I45000J-1D01*
G01*
G75*
G02*
X2231250Y2136188I41536J17314D01*
G01*
Y2276188D01*
G75*
G02*
X2276250Y2321188I45000J0D01*
G01*
X2366250D01*
G75*
G02*
X2411250Y2276188I0J-45000D01*
G01*
Y2136188D01*
G75*
G02*
X2407786Y2118876I-45000J2D01*
G01*
G75*
G02*
X2411250Y2101563I-41536J-17314D01*
G01*
Y1970750D01*
X2486500D01*
G75*
G02*
X2503813Y1967286I-1J-45000D01*
G01*
G75*
G02*
X2521125Y1970750I17314J-41536D01*
G01*
X2661125D01*
G75*
G02*
X2697369Y1952422I0J-45000D01*
G01*
G75*
G02*
X2727500Y1965990I30131J-26672D01*
G01*
X2738372D01*
G75*
G02*
X2797500Y1984490I59128J-85240D01*
G01*
X2897448D01*
Y1995680D01*
X2774805Y2118323D01*
X2678717D01*
G75*
G02*
X2627533Y2139408I-279J71990D01*
G01*
X2028941Y2738000D01*
X1385800D01*
G37*
X2705332Y1250500D02*
G36*
X2705332Y1250500D02*
X2913420D01*
G75*
G02*
X2864188Y1329188I38268J78688D01*
G01*
Y1332630D01*
G75*
G02*
X2824688Y1309188I-39500J21558D01*
G01*
X2754688D01*
G75*
G02*
X2730248Y1316403I0J45000D01*
G01*
Y1300500D01*
G75*
G02*
X2712328Y1257496I-60560J0D01*
G01*
X2705332Y1250500D01*
G37*
X3106178Y3658750D02*
G36*
X3106178Y3658750D02*
Y3563500D01*
X3134938D01*
Y3658750D01*
X3106178D01*
G37*
Y5595500D02*
G36*
X3106178Y5595500D02*
Y5500250D01*
X3134938D01*
Y5595500D01*
X3106178D01*
G37*
Y5738375D02*
G36*
X3106178Y5738375D02*
Y5595500D01*
X3134938D01*
Y5738375D01*
X3106178D01*
G37*
X3364938Y3658750D02*
G36*
X3364938Y3658750D02*
Y3563500D01*
X3393698D01*
Y3658750D01*
X3364938D01*
G37*
Y5595500D02*
G36*
X3364938Y5595500D02*
Y5500250D01*
X3393698D01*
Y5595500D01*
X3364938D01*
G37*
Y5738375D02*
G36*
X3364938Y5738375D02*
Y5595500D01*
X3393698D01*
Y5738375D01*
X3364938D01*
G37*
X3614178Y3658750D02*
G36*
X3614178Y3658750D02*
Y3563500D01*
X3647698D01*
Y3658750D01*
X3614178D01*
G37*
Y5595500D02*
G36*
X3614178Y5595500D02*
Y5500250D01*
X3647698D01*
Y5595500D01*
X3614178D01*
G37*
Y5738375D02*
G36*
X3614178Y5738375D02*
Y5595500D01*
X3647698D01*
Y5738375D01*
X3614178D01*
G37*
X3868178Y3658750D02*
G36*
X3868178Y3658750D02*
Y3563500D01*
X3901698D01*
Y3658750D01*
X3868178D01*
G37*
Y5595500D02*
G36*
X3868178Y5595500D02*
Y5500250D01*
X3901698D01*
Y5595500D01*
X3868178D01*
G37*
Y5738375D02*
G36*
X3868178Y5738375D02*
Y5595500D01*
X3901698D01*
Y5738375D01*
X3868178D01*
G37*
X4122178Y3658750D02*
G36*
X4122178Y3658750D02*
Y3563500D01*
X4155698D01*
Y3658750D01*
X4122178D01*
G37*
Y5595500D02*
G36*
X4122178Y5595500D02*
Y5500250D01*
X4155698D01*
Y5595500D01*
X4122178D01*
G37*
Y5738375D02*
G36*
X4122178Y5738375D02*
Y5595500D01*
X4155698D01*
Y5738375D01*
X4122178D01*
G37*
X4376178Y3658750D02*
G36*
X4376178Y3658750D02*
Y3563500D01*
X4404938D01*
Y3658750D01*
X4376178D01*
G37*
Y5595500D02*
G36*
X4376178Y5595500D02*
Y5500250D01*
X4404938D01*
Y5595500D01*
X4376178D01*
G37*
Y5738375D02*
G36*
X4376178Y5738375D02*
Y5595500D01*
X4404938D01*
Y5738375D01*
X4376178D01*
G37*
X4634938Y3658750D02*
G36*
X4634938Y3658750D02*
Y3563500D01*
X4663698D01*
Y3658750D01*
X4634938D01*
G37*
Y5595500D02*
G36*
X4634938Y5595500D02*
Y5500250D01*
X4663698D01*
Y5595500D01*
X4634938D01*
G37*
Y5738375D02*
G36*
X4634938Y5738375D02*
Y5595500D01*
X4663698D01*
Y5738375D01*
X4634938D01*
G37*
X4884178Y3658750D02*
G36*
X4884178Y3658750D02*
Y3563500D01*
X4917698D01*
Y3658750D01*
X4884178D01*
G37*
Y5595500D02*
G36*
X4884178Y5595500D02*
Y5500250D01*
X4917698D01*
Y5595500D01*
X4884178D01*
G37*
Y5738375D02*
G36*
X4884178Y5738375D02*
Y5595500D01*
X4917698D01*
Y5738375D01*
X4884178D01*
G37*
X5138178Y3658750D02*
G36*
X5138178Y3658750D02*
Y3563500D01*
X5171698D01*
Y3658750D01*
X5138178D01*
G37*
Y5595500D02*
G36*
X5138178Y5595500D02*
Y5500250D01*
X5171698D01*
Y5595500D01*
X5138178D01*
G37*
Y5738375D02*
G36*
X5138178Y5738375D02*
Y5595500D01*
X5171698D01*
Y5738375D01*
X5138178D01*
G37*
X5392178Y3658750D02*
G36*
X5392178Y3658750D02*
Y3563500D01*
X5425698D01*
Y3658750D01*
X5392178D01*
G37*
Y5595500D02*
G36*
X5392178Y5595500D02*
Y5500250D01*
X5425698D01*
Y5595500D01*
X5392178D01*
G37*
Y5738375D02*
G36*
X5392178Y5738375D02*
Y5595500D01*
X5425698D01*
Y5738375D01*
X5392178D01*
G37*
X5646178Y3658750D02*
G36*
X5646178Y3658750D02*
Y3563500D01*
X5674938D01*
Y3658750D01*
X5646178D01*
G37*
Y5595500D02*
G36*
X5646178Y5595500D02*
Y5500250D01*
X5674938D01*
Y5595500D01*
X5646178D01*
G37*
Y5738375D02*
G36*
X5646178Y5738375D02*
Y5595500D01*
X5674938D01*
Y5738375D01*
X5646178D01*
G37*
X5904938Y3658750D02*
G36*
X5904938Y3658750D02*
Y3563500D01*
X5933698D01*
Y3658750D01*
X5904938D01*
G37*
Y5595500D02*
G36*
X5904938Y5595500D02*
Y5500250D01*
X5933698D01*
Y5595500D01*
X5904938D01*
G37*
Y5738375D02*
G36*
X5904938Y5738375D02*
Y5595500D01*
X5933698D01*
Y5738375D01*
X5904938D01*
G37*
X6154178Y3658750D02*
G36*
X6154178Y3658750D02*
Y3563500D01*
X6187698D01*
Y3658750D01*
X6154178D01*
G37*
Y5595500D02*
G36*
X6154178Y5595500D02*
Y5500250D01*
X6187698D01*
Y5595500D01*
X6154178D01*
G37*
Y5738375D02*
G36*
X6154178Y5738375D02*
Y5595500D01*
X6187698D01*
Y5738375D01*
X6154178D01*
G37*
X2315788Y5377044D02*
G36*
X2315788Y5377044D02*
X2338397Y5354435D01*
X3857292D01*
G75*
G02*
X3944504Y5341500I35583J-60560D01*
G01*
X9100846D01*
G75*
G02*
X9141000Y5379115I40154J-2625D01*
G01*
X9150440D01*
Y5392101D01*
G75*
G02*
X9135760Y5436750I60560J44649D01*
G01*
G75*
G02*
X9150440Y5481399I75240J0D01*
G01*
Y5500250D01*
X6408178D01*
Y5415500D01*
G75*
G02*
X6367938Y5375260I-40240J0D01*
G01*
X6227938D01*
G75*
G02*
X6187698Y5415500I0J40240D01*
G01*
Y5500250D01*
X6154178D01*
Y5415500D01*
G75*
G02*
X6113938Y5375260I-40240J0D01*
G01*
X5973938D01*
G75*
G02*
X5933698Y5415500I0J40240D01*
G01*
Y5500250D01*
X5904938D01*
Y5415500D01*
G75*
G02*
X5859938Y5370500I-45000J0D01*
G01*
X5719938D01*
G75*
G02*
X5674938Y5415500I0J45000D01*
G01*
Y5500250D01*
X5646178D01*
Y5415500D01*
G75*
G02*
X5605938Y5375260I-40240J0D01*
G01*
X5465938D01*
G75*
G02*
X5425698Y5415500I0J40240D01*
G01*
Y5500250D01*
X5392178D01*
Y5415500D01*
G75*
G02*
X5351938Y5375260I-40240J0D01*
G01*
X5211938D01*
G75*
G02*
X5171698Y5415500I0J40240D01*
G01*
Y5500250D01*
X5138178D01*
Y5415500D01*
G75*
G02*
X5097938Y5375260I-40240J0D01*
G01*
X4957938D01*
G75*
G02*
X4917698Y5415500I0J40240D01*
G01*
Y5500250D01*
X4884178D01*
Y5415500D01*
G75*
G02*
X4843938Y5375260I-40240J0D01*
G01*
X4703938D01*
G75*
G02*
X4663698Y5415500I0J40240D01*
G01*
Y5500250D01*
X4634938D01*
Y5415500D01*
G75*
G02*
X4589938Y5370500I-45000J0D01*
G01*
X4449938D01*
G75*
G02*
X4404938Y5415500I0J45000D01*
G01*
Y5500250D01*
X4376178D01*
Y5415500D01*
G75*
G02*
X4335938Y5375260I-40240J0D01*
G01*
X4195938D01*
G75*
G02*
X4155698Y5415500I0J40240D01*
G01*
Y5500250D01*
X4122178D01*
Y5415500D01*
G75*
G02*
X4081938Y5375260I-40240J0D01*
G01*
X3941938D01*
G75*
G02*
X3901698Y5415500I0J40240D01*
G01*
Y5500250D01*
X3868178D01*
Y5415500D01*
G75*
G02*
X3827938Y5375260I-40240J0D01*
G01*
X3687938D01*
G75*
G02*
X3647698Y5415500I0J40240D01*
G01*
Y5500250D01*
X3614178D01*
Y5415500D01*
G75*
G02*
X3573938Y5375260I-40240J0D01*
G01*
X3433938D01*
G75*
G02*
X3393698Y5415500I0J40240D01*
G01*
Y5500250D01*
X3364938D01*
Y5415500D01*
G75*
G02*
X3319938Y5370500I-45000J0D01*
G01*
X3179938D01*
G75*
G02*
X3134938Y5415500I0J45000D01*
G01*
Y5500250D01*
X3106178D01*
Y5415500D01*
G75*
G02*
X3065938Y5375260I-40240J0D01*
G01*
X2925938D01*
G75*
G02*
X2885698Y5415500I0J40240D01*
G01*
Y5500250D01*
X2852178D01*
Y5415500D01*
G75*
G02*
X2811938Y5375260I-40240J0D01*
G01*
X2671938D01*
G75*
G02*
X2631698Y5415500I0J40240D01*
G01*
Y5500250D01*
X2598178D01*
Y5415500D01*
G75*
G02*
X2557938Y5375260I-40240J0D01*
G01*
X2417938D01*
G75*
G02*
X2377698Y5415500I0J40240D01*
G01*
Y5500250D01*
X2344178D01*
Y5415500D01*
G75*
G02*
X2315788Y5377044I-40240J0D01*
G01*
G37*
X6408178Y5595500D02*
G36*
X6408178Y5595500D02*
Y5500250D01*
X9150440D01*
Y5595500D01*
X6408178D01*
G37*
Y5738375D02*
G36*
X6408178Y5738375D02*
Y5595500D01*
X9150440D01*
Y5738375D01*
X6408178D01*
G37*
X1795204Y5815740D02*
G36*
X1795204Y5815740D02*
X1795938D01*
G75*
G02*
X1836178Y5775500I0J-40240D01*
G01*
Y5738375D01*
X1864938D01*
Y5775500D01*
G75*
G02*
X1909938Y5820500I45000J0D01*
G01*
X2049938D01*
G75*
G02*
X2094938Y5775500I0J-45000D01*
G01*
Y5738375D01*
X2123698D01*
Y5775500D01*
G75*
G02*
X2163938Y5815740I40240J0D01*
G01*
X2303938D01*
G75*
G02*
X2344178Y5775500I0J-40240D01*
G01*
Y5738375D01*
X2377698D01*
Y5775500D01*
G75*
G02*
X2417938Y5815740I40240J0D01*
G01*
X2557938D01*
G75*
G02*
X2598178Y5775500I0J-40240D01*
G01*
Y5738375D01*
X2631698D01*
Y5775500D01*
G75*
G02*
X2671938Y5815740I40240J0D01*
G01*
X2811938D01*
G75*
G02*
X2852178Y5775500I0J-40240D01*
G01*
Y5738375D01*
X2885698D01*
Y5775500D01*
G75*
G02*
X2925938Y5815740I40240J0D01*
G01*
X3065938D01*
G75*
G02*
X3106178Y5775500I0J-40240D01*
G01*
Y5738375D01*
X3134938D01*
Y5775500D01*
G75*
G02*
X3179938Y5820500I45000J0D01*
G01*
X3319938D01*
G75*
G02*
X3364938Y5775500I0J-45000D01*
G01*
Y5738375D01*
X3393698D01*
Y5775500D01*
G75*
G02*
X3433938Y5815740I40240J0D01*
G01*
X3573938D01*
G75*
G02*
X3614178Y5775500I0J-40240D01*
G01*
Y5738375D01*
X3647698D01*
Y5775500D01*
G75*
G02*
X3687938Y5815740I40240J0D01*
G01*
X3827938D01*
G75*
G02*
X3868178Y5775500I0J-40240D01*
G01*
Y5738375D01*
X3901698D01*
Y5775500D01*
G75*
G02*
X3941938Y5815740I40240J0D01*
G01*
X4081938D01*
G75*
G02*
X4122178Y5775500I0J-40240D01*
G01*
Y5738375D01*
X4155698D01*
Y5775500D01*
G75*
G02*
X4195938Y5815740I40240J0D01*
G01*
X4335938D01*
G75*
G02*
X4376178Y5775500I0J-40240D01*
G01*
Y5738375D01*
X4404938D01*
Y5775500D01*
G75*
G02*
X4449938Y5820500I45000J0D01*
G01*
X4589938D01*
G75*
G02*
X4634938Y5775500I0J-45000D01*
G01*
Y5738375D01*
X4663698D01*
Y5775500D01*
G75*
G02*
X4703938Y5815740I40240J0D01*
G01*
X4843938D01*
G75*
G02*
X4884178Y5775500I0J-40240D01*
G01*
Y5738375D01*
X4917698D01*
Y5775500D01*
G75*
G02*
X4957938Y5815740I40240J0D01*
G01*
X5097938D01*
G75*
G02*
X5138178Y5775500I0J-40240D01*
G01*
Y5738375D01*
X5171698D01*
Y5775500D01*
G75*
G02*
X5211938Y5815740I40240J0D01*
G01*
X5351938D01*
G75*
G02*
X5392178Y5775500I0J-40240D01*
G01*
Y5738375D01*
X5425698D01*
Y5775500D01*
G75*
G02*
X5465938Y5815740I40240J0D01*
G01*
X5605938D01*
G75*
G02*
X5646178Y5775500I0J-40240D01*
G01*
Y5738375D01*
X5674938D01*
Y5775500D01*
G75*
G02*
X5719938Y5820500I45000J0D01*
G01*
X5859938D01*
G75*
G02*
X5904938Y5775500I0J-45000D01*
G01*
Y5738375D01*
X5933698D01*
Y5775500D01*
G75*
G02*
X5973938Y5815740I40240J0D01*
G01*
X6113938D01*
G75*
G02*
X6154178Y5775500I0J-40240D01*
G01*
Y5738375D01*
X6187698D01*
Y5775500D01*
G75*
G02*
X6227938Y5815740I40240J0D01*
G01*
X6367938D01*
G75*
G02*
X6408178Y5775500I0J-40240D01*
G01*
Y5738375D01*
X9150440D01*
Y5833625D01*
X1813089D01*
X1795204Y5815740D01*
G37*
X2462748Y4547750D02*
G36*
X2462748Y4547750D02*
X2538843Y4471655D01*
G75*
G02*
X2559929Y4420750I-50905J-50906D01*
G01*
X9135956D01*
G75*
G02*
X9156875Y4426615I20919J-34375D01*
G01*
X9166315D01*
Y4439601D01*
G75*
G02*
X9151635Y4484250I60560J44649D01*
G01*
G75*
G02*
X9186517Y4547750I75240J0D01*
G01*
X2462748D01*
G37*
X6408178Y3658750D02*
G36*
X6408178Y3658750D02*
Y3563500D01*
X9222351D01*
G75*
G02*
X9215324Y3595250I68213J31750D01*
G01*
G75*
G02*
X9250206Y3658750I75240J0D01*
G01*
X6408178D01*
G37*
X2351623Y4658875D02*
G36*
X2351623Y4658875D02*
X2462748Y4547750D01*
X9186517D01*
G75*
G02*
X9215625Y4558644I40358J-63500D01*
G01*
X9315856Y4658875D01*
X2351623D01*
G37*
X1813089Y5833625D02*
G36*
X1813089Y5833625D02*
X9150440D01*
Y5849500D01*
G75*
G02*
X9168360Y5892504I60560J0D01*
G01*
X9275385Y5999529D01*
Y6069125D01*
G75*
G02*
X9315625Y6109365I40240J0D01*
G01*
X9340940D01*
Y6154101D01*
G75*
G02*
X9326260Y6198750I60560J44649D01*
G01*
X2178214D01*
X1813089Y5833625D01*
G37*
X1907123Y5103375D02*
G36*
X1907123Y5103375D02*
X2351623Y4658875D01*
X9315856D01*
X9356815Y4699834D01*
Y5103375D01*
X9326000D01*
Y5058375D01*
G75*
G02*
X9281000Y5013375I-45000J0D01*
G01*
X9141000D01*
G75*
G02*
X9096000Y5058375I0J45000D01*
G01*
Y5103375D01*
X1907123D01*
G37*
X1385800Y5341500D02*
G36*
X1385800Y5341500D02*
Y5103375D01*
X1738430D01*
G75*
G02*
X1879621Y5130877I74820J-7937D01*
G01*
X1907123Y5103375D01*
X9096000D01*
Y5148375D01*
G75*
G02*
X9141000Y5193375I45000J0D01*
G01*
X9281000D01*
G75*
G02*
X9326000Y5148375I0J-45000D01*
G01*
Y5103375D01*
X9356815D01*
Y5157666D01*
X9300696Y5213785D01*
G75*
G02*
X9281000Y5208635I-19696J35090D01*
G01*
X9141000D01*
G75*
G02*
X9100760Y5248875I0J40240D01*
G01*
Y5338875D01*
G75*
G02*
X9100846Y5341500I40240J-4D01*
G01*
X3944504D01*
G75*
G02*
X3963115Y5293875I-51629J-47625D01*
G01*
G75*
G02*
X3857292Y5233315I-70240J0D01*
G01*
X2313313D01*
G75*
G02*
X2270309Y5251235I0J60560D01*
G01*
X2191298Y5330246D01*
G75*
G02*
X2182368Y5341500I42640J43004D01*
G01*
X1385800D01*
G37*
X2559928Y3801625D02*
G36*
X2559928Y3801625D02*
Y3783691D01*
G75*
G02*
X2598178Y3743500I-1990J-40191D01*
G01*
Y3658750D01*
X2631698D01*
Y3743500D01*
G75*
G02*
X2671938Y3783740I40240J0D01*
G01*
X2811938D01*
G75*
G02*
X2852178Y3743500I0J-40240D01*
G01*
Y3658750D01*
X2885698D01*
Y3743500D01*
G75*
G02*
X2925938Y3783740I40240J0D01*
G01*
X3065938D01*
G75*
G02*
X3106178Y3743500I0J-40240D01*
G01*
Y3658750D01*
X3134938D01*
Y3743500D01*
G75*
G02*
X3179938Y3788500I45000J0D01*
G01*
X3319938D01*
G75*
G02*
X3364938Y3743500I0J-45000D01*
G01*
Y3658750D01*
X3393698D01*
Y3743500D01*
G75*
G02*
X3433938Y3783740I40240J0D01*
G01*
X3573938D01*
G75*
G02*
X3614178Y3743500I0J-40240D01*
G01*
Y3658750D01*
X3647698D01*
Y3743500D01*
G75*
G02*
X3687938Y3783740I40240J0D01*
G01*
X3827938D01*
G75*
G02*
X3868178Y3743500I0J-40240D01*
G01*
Y3658750D01*
X3901698D01*
Y3743500D01*
G75*
G02*
X3941938Y3783740I40240J0D01*
G01*
X4081938D01*
G75*
G02*
X4122178Y3743500I0J-40240D01*
G01*
Y3658750D01*
X4155698D01*
Y3743500D01*
G75*
G02*
X4195938Y3783740I40240J0D01*
G01*
X4335938D01*
G75*
G02*
X4376178Y3743500I0J-40240D01*
G01*
Y3658750D01*
X4404938D01*
Y3743500D01*
G75*
G02*
X4449938Y3788500I45000J0D01*
G01*
X4589938D01*
G75*
G02*
X4634938Y3743500I0J-45000D01*
G01*
Y3658750D01*
X4663698D01*
Y3743500D01*
G75*
G02*
X4703938Y3783740I40240J0D01*
G01*
X4843938D01*
G75*
G02*
X4884178Y3743500I0J-40240D01*
G01*
Y3658750D01*
X4917698D01*
Y3743500D01*
G75*
G02*
X4957938Y3783740I40240J0D01*
G01*
X5097938D01*
G75*
G02*
X5138178Y3743500I0J-40240D01*
G01*
Y3658750D01*
X5171698D01*
Y3743500D01*
G75*
G02*
X5211938Y3783740I40240J0D01*
G01*
X5351938D01*
G75*
G02*
X5392178Y3743500I0J-40240D01*
G01*
Y3658750D01*
X5425698D01*
Y3743500D01*
G75*
G02*
X5465938Y3783740I40240J0D01*
G01*
X5605938D01*
G75*
G02*
X5646178Y3743500I0J-40240D01*
G01*
Y3658750D01*
X5674938D01*
Y3743500D01*
G75*
G02*
X5719938Y3788500I45000J0D01*
G01*
X5859938D01*
G75*
G02*
X5904938Y3743500I0J-45000D01*
G01*
Y3658750D01*
X5933698D01*
Y3743500D01*
G75*
G02*
X5973938Y3783740I40240J0D01*
G01*
X6113938D01*
G75*
G02*
X6154178Y3743500I0J-40240D01*
G01*
Y3658750D01*
X6187698D01*
Y3743500D01*
G75*
G02*
X6227938Y3783740I40240J0D01*
G01*
X6367938D01*
G75*
G02*
X6408178Y3743500I0J-40240D01*
G01*
Y3658750D01*
X9250206D01*
G75*
G02*
X9279314Y3669644I40358J-63500D01*
G01*
X9372690Y3763020D01*
Y3801625D01*
X2559928D01*
G37*
Y4150875D02*
G36*
X2559928Y4150875D02*
Y3801625D01*
X9372690D01*
Y4150875D01*
X9341875D01*
Y4105875D01*
G75*
G02*
X9296875Y4060875I-45000J0D01*
G01*
X9156875D01*
G75*
G02*
X9111875Y4105875I0J45000D01*
G01*
Y4150875D01*
X2559928D01*
G37*
Y4420471D02*
G36*
X2559928Y4420471D02*
Y4150875D01*
X9111875D01*
Y4195875D01*
G75*
G02*
X9156875Y4240875I45000J0D01*
G01*
X9296875D01*
G75*
G02*
X9341875Y4195875I0J-45000D01*
G01*
Y4150875D01*
X9372690D01*
Y4236916D01*
X9332306Y4277300D01*
G75*
G02*
X9296875Y4256135I-35431J19075D01*
G01*
X9156875D01*
G75*
G02*
X9116635Y4296375I0J40240D01*
G01*
Y4386375D01*
G75*
G02*
X9135956Y4420750I40240J0D01*
G01*
X2559929D01*
X2559928Y4420471D01*
G37*
X2232561Y2738000D02*
G36*
X2232561Y2738000D02*
X2708258Y2262303D01*
X2804346D01*
G75*
G02*
X2855530Y2241218I279J-71990D01*
G01*
X3004866Y2091882D01*
X3009364Y2096446D01*
G75*
G02*
X3083477Y2127365I73886J-72821D01*
G01*
X9467940D01*
Y2738000D01*
X2232561D01*
G37*
X2057936Y2912625D02*
G36*
X2057936Y2912625D02*
X2232561Y2738000D01*
X9467940D01*
Y2912625D01*
X2057936D01*
G37*
X1797928Y3261875D02*
G36*
X1797928Y3261875D02*
Y3172633D01*
X2057936Y2912625D01*
X9467940D01*
Y3261875D01*
X9405375D01*
Y3216875D01*
G75*
G02*
X9360375Y3171875I-45000J0D01*
G01*
X9220375D01*
G75*
G02*
X9175375Y3216875I0J45000D01*
G01*
Y3261875D01*
X1797928D01*
G37*
Y3343309D02*
G36*
X1797928Y3343309D02*
Y3261875D01*
X9175375D01*
Y3306875D01*
G75*
G02*
X9220375Y3351875I45000J0D01*
G01*
X9360375D01*
G75*
G02*
X9405375Y3306875I0J-45000D01*
G01*
Y3261875D01*
X9467940D01*
Y3316166D01*
X9395806Y3388300D01*
G75*
G02*
X9360375Y3367135I-35431J19075D01*
G01*
X9220375D01*
G75*
G02*
X9180135Y3407375I0J40240D01*
G01*
Y3497375D01*
G75*
G02*
X9220375Y3537615I40240J0D01*
G01*
X9229815D01*
Y3550858D01*
G75*
G02*
X9222351Y3563500I60749J44392D01*
G01*
X6408178D01*
Y3383500D01*
G75*
G02*
X6367938Y3343260I-40240J0D01*
G01*
X6227938D01*
G75*
G02*
X6187698Y3383500I0J40240D01*
G01*
Y3563500D01*
X6154178D01*
Y3383500D01*
G75*
G02*
X6113938Y3343260I-40240J0D01*
G01*
X5973938D01*
G75*
G02*
X5933698Y3383500I0J40240D01*
G01*
Y3563500D01*
X5904938D01*
Y3383500D01*
G75*
G02*
X5859938Y3338500I-45000J0D01*
G01*
X5719938D01*
G75*
G02*
X5674938Y3383500I0J45000D01*
G01*
Y3563500D01*
X5646178D01*
Y3383500D01*
G75*
G02*
X5605938Y3343260I-40240J0D01*
G01*
X5465938D01*
G75*
G02*
X5425698Y3383500I0J40240D01*
G01*
Y3563500D01*
X5392178D01*
Y3383500D01*
G75*
G02*
X5351938Y3343260I-40240J0D01*
G01*
X5211938D01*
G75*
G02*
X5171698Y3383500I0J40240D01*
G01*
Y3563500D01*
X5138178D01*
Y3383500D01*
G75*
G02*
X5097938Y3343260I-40240J0D01*
G01*
X4957938D01*
G75*
G02*
X4917698Y3383500I0J40240D01*
G01*
Y3563500D01*
X4884178D01*
Y3383500D01*
G75*
G02*
X4843938Y3343260I-40240J0D01*
G01*
X4703938D01*
G75*
G02*
X4663698Y3383500I0J40240D01*
G01*
Y3563500D01*
X4634938D01*
Y3383500D01*
G75*
G02*
X4589938Y3338500I-45000J0D01*
G01*
X4449938D01*
G75*
G02*
X4404938Y3383500I0J45000D01*
G01*
Y3563500D01*
X4376178D01*
Y3383500D01*
G75*
G02*
X4335938Y3343260I-40240J0D01*
G01*
X4195938D01*
G75*
G02*
X4155698Y3383500I0J40240D01*
G01*
Y3563500D01*
X4122178D01*
Y3383500D01*
G75*
G02*
X4081938Y3343260I-40240J0D01*
G01*
X3941938D01*
G75*
G02*
X3901698Y3383500I0J40240D01*
G01*
Y3563500D01*
X3868178D01*
Y3383500D01*
G75*
G02*
X3827938Y3343260I-40240J0D01*
G01*
X3687938D01*
G75*
G02*
X3647698Y3383500I0J40240D01*
G01*
Y3563500D01*
X3614178D01*
Y3383500D01*
G75*
G02*
X3573938Y3343260I-40240J0D01*
G01*
X3433938D01*
G75*
G02*
X3393698Y3383500I0J40240D01*
G01*
Y3563500D01*
X3364938D01*
Y3383500D01*
G75*
G02*
X3319938Y3338500I-45000J0D01*
G01*
X3179938D01*
G75*
G02*
X3134938Y3383500I0J45000D01*
G01*
Y3563500D01*
X3106178D01*
Y3383500D01*
G75*
G02*
X3065938Y3343260I-40240J0D01*
G01*
X2925938D01*
G75*
G02*
X2885698Y3383500I0J40240D01*
G01*
Y3563500D01*
X2852178D01*
Y3383500D01*
G75*
G02*
X2811938Y3343260I-40240J0D01*
G01*
X2671938D01*
G75*
G02*
X2631698Y3383500I0J40240D01*
G01*
Y3563500D01*
X2598178D01*
Y3383500D01*
G75*
G02*
X2557938Y3343260I-40240J0D01*
G01*
X2417938D01*
G75*
G02*
X2377698Y3383500I0J40240D01*
G01*
Y3563500D01*
X2344178D01*
Y3383500D01*
G75*
G02*
X2303938Y3343260I-40240J0D01*
G01*
X2163938D01*
G75*
G02*
X2123698Y3383500I0J40240D01*
G01*
Y3563500D01*
X2094938D01*
Y3383500D01*
G75*
G02*
X2049938Y3338500I-45000J0D01*
G01*
X1909938D01*
G75*
G02*
X1864938Y3383500I0J45000D01*
G01*
Y3563500D01*
X1836178D01*
Y3383500D01*
G75*
G02*
X1797928Y3343309I-40240J0D01*
G01*
G37*
X9589060Y2912625D02*
G36*
X9589060Y2912625D02*
Y2738000D01*
X9793378D01*
Y2912625D01*
X9589060D01*
G37*
X9915769D02*
G36*
X9915769Y2912625D02*
X9945581D01*
G75*
G02*
X9931069Y2927925I20920J34374D01*
G01*
X9915769Y2912625D01*
G37*
X2178214Y6198750D02*
G36*
X2178214Y6198750D02*
X9326260D01*
G75*
G02*
X9476740I75240J0D01*
G01*
X10048500D01*
Y6243750D01*
G75*
G02*
X10093500Y6288750I45000J0D01*
G01*
X10233500D01*
G75*
G02*
X10278500Y6243750I0J-45000D01*
G01*
Y6198750D01*
X10633481D01*
X10503541Y6328690D01*
X10270610D01*
G75*
G02*
X10233500Y6304010I-37110J15560D01*
G01*
X10093500D01*
G75*
G02*
X10053260Y6344250I0J40240D01*
G01*
Y6373375D01*
X2339271D01*
G75*
G02*
X2325024Y6345560I-49771J7937D01*
G01*
X2178214Y6198750D01*
G37*
X9358777Y3563500D02*
G36*
X9358777Y3563500D02*
X10737940D01*
Y3658750D01*
X9439708D01*
X9364958Y3584000D01*
G75*
G02*
X9358777Y3563500I-74394J11249D01*
G01*
G37*
X9439708Y3658750D02*
G36*
X9439708Y3658750D02*
X10737940D01*
Y3801625D01*
X9493810D01*
Y3737936D01*
G75*
G02*
X9475890Y3694932I-60560J0D01*
G01*
X9439708Y3658750D01*
G37*
X9493810Y4150875D02*
G36*
X9493810Y4150875D02*
Y3801625D01*
X10737940D01*
Y4016730D01*
G75*
G02*
X10737520Y4023875I60560J7145D01*
G01*
G75*
G02*
X10737940Y4031020I60980J0D01*
G01*
Y4150875D01*
X9493810D01*
G37*
X9317794Y4420750D02*
G36*
X9317794Y4420750D02*
G75*
G02*
X9333985Y4401935I-20919J-34375D01*
G01*
X9353875D01*
G75*
G02*
X9396879Y4384015I0J-60560D01*
G01*
X9475890Y4305004D01*
G75*
G02*
X9493810Y4262000I-42640J-43004D01*
G01*
Y4150875D01*
X10737940D01*
Y4420750D01*
X9317794D01*
G37*
X9287435Y4439601D02*
G36*
X9287435Y4439601D02*
Y4426615D01*
X9296875D01*
G75*
G02*
X9317794Y4420750I0J-40240D01*
G01*
X10737940D01*
Y4547750D01*
X9376019D01*
X9301269Y4473000D01*
G75*
G02*
X9287435Y4439601I-74394J11250D01*
G01*
G37*
X9376019Y4547750D02*
G36*
X9376019Y4547750D02*
X10737940D01*
Y4658875D01*
X9475817D01*
G75*
G02*
X9460015Y4631746I-58442J15875D01*
G01*
X9376019Y4547750D01*
G37*
X9350935Y3550346D02*
G36*
X9350935Y3550346D02*
Y3537615D01*
X9360375D01*
G75*
G02*
X9397485Y3512935I0J-40240D01*
G01*
X9417375D01*
G75*
G02*
X9460379Y3495015I0J-60560D01*
G01*
X9571140Y3384254D01*
G75*
G02*
X9589060Y3341250I-42640J-43004D01*
G01*
Y3261875D01*
X10808106D01*
X10798096Y3271885D01*
X10728500D01*
G75*
G02*
X10688260Y3312125I0J40240D01*
G01*
Y3402125D01*
G75*
G02*
X10728500Y3442365I40240J0D01*
G01*
X10735913D01*
G75*
G02*
X10723260Y3484125I62587J41760D01*
G01*
G75*
G02*
X10737940Y3528774I75240J0D01*
G01*
Y3563500D01*
X9358777D01*
G75*
G02*
X9350935Y3550346I-68212J31751D01*
G01*
G37*
X9475817Y4658875D02*
G36*
X9475817Y4658875D02*
X10737940D01*
Y5002500D01*
G75*
G02*
X10755860Y5045504I60560J0D01*
G01*
X10813731Y5103375D01*
X9477935D01*
Y4674750D01*
G75*
G02*
X9475817Y4658875I-60560J1D01*
G01*
G37*
X9589060Y2738000D02*
G36*
X9589060Y2738000D02*
Y2127365D01*
X9793378D01*
Y2283764D01*
G75*
G02*
X9753698Y2324000I560J40236D01*
G01*
Y2434000D01*
G75*
G02*
X9793938Y2474240I40240J0D01*
G01*
X9913938D01*
G75*
G02*
X9954178Y2434000I0J-40240D01*
G01*
Y2324000D01*
G75*
G02*
X9914498Y2283764I-40240J0D01*
G01*
Y2127365D01*
X10912565D01*
Y2738000D01*
X10147521D01*
G75*
G02*
X10106500Y2711500I-41021J18500D01*
G01*
X9966500D01*
G75*
G02*
X9925479Y2738000I0J45000D01*
G01*
X9914498D01*
Y2684236D01*
G75*
G02*
X9954178Y2644000I-560J-40236D01*
G01*
Y2534000D01*
G75*
G02*
X9913938Y2493760I-40240J0D01*
G01*
X9793938D01*
G75*
G02*
X9753698Y2534000I0J40240D01*
G01*
Y2644000D01*
G75*
G02*
X9793378Y2684236I40240J0D01*
G01*
Y2738000D01*
X9589060D01*
G37*
X9914498Y2911354D02*
G36*
X9914498Y2911354D02*
Y2738000D01*
X9925479D01*
G75*
G02*
X9921500Y2756500I41021J18501D01*
G01*
Y2846500D01*
G75*
G02*
X9966500Y2891500I45000J0D01*
G01*
X10106500D01*
G75*
G02*
X10151500Y2846500I0J-45000D01*
G01*
Y2756500D01*
G75*
G02*
X10147521Y2738000I-45000J1D01*
G01*
X10912565D01*
Y2912625D01*
X10127419D01*
G75*
G02*
X10106500Y2906760I-20919J34375D01*
G01*
X9966500D01*
G75*
G02*
X9945581Y2912625I0J40240D01*
G01*
X9915769D01*
X9914498Y2911354D01*
G37*
X9589060Y3261875D02*
G36*
X9589060Y3261875D02*
Y2912625D01*
X9793378D01*
Y2936438D01*
G75*
G02*
X9811298Y2979442I60560J0D01*
G01*
X9866496Y3034640D01*
G75*
G02*
X9909500Y3052560I43004J-42640D01*
G01*
X9929390D01*
G75*
G02*
X9966500Y3077240I37110J-15560D01*
G01*
X9975940D01*
Y3106101D01*
G75*
G02*
X9961260Y3150750I60560J44649D01*
G01*
G75*
G02*
X10111740I75240J0D01*
G01*
G75*
G02*
X10097060Y3106101I-75240J0D01*
G01*
Y3077240D01*
X10106500D01*
G75*
G02*
X10146740Y3037000I0J-40240D01*
G01*
Y2947000D01*
G75*
G02*
X10127419Y2912625I-40240J0D01*
G01*
X10912565D01*
Y3112499D01*
G75*
G02*
X10868500Y3076625I-44065J9126D01*
G01*
X10728500D01*
G75*
G02*
X10683500Y3121625I0J45000D01*
G01*
Y3211625D01*
G75*
G02*
X10728500Y3256625I45000J0D01*
G01*
X10813356D01*
X10808106Y3261875D01*
X9589060D01*
G37*
X9343658Y5341500D02*
G36*
X9343658Y5341500D02*
G75*
G02*
X9349254Y5336515I-37407J-47626D01*
G01*
X9460015Y5225754D01*
G75*
G02*
X9477935Y5182750I-42640J-43004D01*
G01*
Y5103375D01*
X10813731D01*
X10847010Y5136654D01*
Y5148375D01*
G75*
G02*
X10887250Y5188615I40240J0D01*
G01*
X10896690D01*
Y5201601D01*
G75*
G02*
X10882010Y5246250I60560J44649D01*
G01*
G75*
G02*
X10946000Y5320644I75240J0D01*
G01*
X10966856Y5341500D01*
X9343658D01*
G37*
X9271560Y5500250D02*
G36*
X9271560Y5500250D02*
Y5481399D01*
G75*
G02*
X9286240Y5436750I-60560J-44649D01*
G01*
G75*
G02*
X9271560Y5392101I-75240J0D01*
G01*
Y5379115D01*
X9281000D01*
G75*
G02*
X9318620Y5353158I0J-40240D01*
G01*
G75*
G02*
X9343658Y5341500I-12370J-59283D01*
G01*
X10966856D01*
X10991940Y5366584D01*
Y5500250D01*
X9271560D01*
G37*
Y5595500D02*
G36*
X9271560Y5595500D02*
Y5500250D01*
X10991940D01*
Y5595500D01*
X9271560D01*
G37*
Y5738375D02*
G36*
X9271560Y5738375D02*
Y5595500D01*
X10991940D01*
Y5738375D01*
X10977000D01*
Y5693375D01*
G75*
G02*
X10932000Y5648375I-45000J0D01*
G01*
X10792000D01*
G75*
G02*
X10747000Y5693375I0J45000D01*
G01*
Y5738375D01*
X9271560D01*
G37*
Y5779499D02*
G36*
X9271560Y5779499D02*
Y5738375D01*
X10747000D01*
Y5783375D01*
G75*
G02*
X10792000Y5828375I45000J0D01*
G01*
X10932000D01*
G75*
G02*
X10977000Y5783375I0J-45000D01*
G01*
Y5738375D01*
X10991940D01*
Y5833625D01*
X9500625D01*
Y5788625D01*
G75*
G02*
X9455625Y5743625I-45000J0D01*
G01*
X9315625D01*
G75*
G02*
X9271560Y5779499I0J45000D01*
G01*
G37*
X9370769Y5923625D02*
G36*
X9370769Y5923625D02*
X9455625D01*
G75*
G02*
X9500625Y5878625I0J-45000D01*
G01*
Y5833625D01*
X10991940D01*
Y5833865D01*
X10964982Y5860823D01*
G75*
G02*
X10932000Y5843635I-32983J23052D01*
G01*
X10792000D01*
G75*
G02*
X10751760Y5883875I0J40240D01*
G01*
Y5973875D01*
G75*
G02*
X10792000Y6014115I40240J0D01*
G01*
X10799413D01*
G75*
G02*
X10787606Y6044625I62587J41760D01*
G01*
X10633481Y6198750D01*
X10278500D01*
Y6153750D01*
G75*
G02*
X10233500Y6108750I-45000J0D01*
G01*
X10093500D01*
G75*
G02*
X10048500Y6153750I0J45000D01*
G01*
Y6198750D01*
X9476740D01*
G75*
G02*
X9462060Y6154101I-75240J0D01*
G01*
Y6108847D01*
G75*
G02*
X9495865Y6069125I-6435J-39722D01*
G01*
Y5979125D01*
G75*
G02*
X9455625Y5938885I-40240J0D01*
G01*
X9386029D01*
X9370769Y5923625D01*
G37*
X10630144Y6373375D02*
G36*
X10630144Y6373375D02*
X10804769Y6198750D01*
X12293690D01*
Y6373375D01*
X10630144D01*
G37*
X10804769Y6198750D02*
G36*
X10804769Y6198750D02*
X10873250Y6130269D01*
G75*
G02*
X10937240Y6055875I-11250J-74394D01*
G01*
G75*
G02*
X10924587Y6014115I-75240J0D01*
G01*
X10932000D01*
G75*
G02*
X10969110Y5989435I0J-40240D01*
G01*
X10982574D01*
G75*
G02*
X11025578Y5971515I0J-60560D01*
G01*
X11095140Y5901953D01*
G75*
G02*
X11113060Y5858949I-42640J-43004D01*
G01*
Y5833625D01*
X12332106D01*
X12311610Y5854121D01*
G75*
G02*
X12293690Y5897125I42640J43004D01*
G01*
Y6198750D01*
X10804769D01*
G37*
X11113060Y5833625D02*
G36*
X11113060Y5833625D02*
Y5738375D01*
X12339346D01*
G75*
G02*
X12378855Y5775985I40154J-2625D01*
G01*
G75*
G02*
X12375106Y5790625I70645J25891D01*
G01*
X12332106Y5833625D01*
X11113060D01*
G37*
Y5738375D02*
G36*
X11113060Y5738375D02*
Y5595500D01*
X12459106D01*
X12449096Y5605510D01*
X12379500D01*
G75*
G02*
X12339260Y5645750I0J40240D01*
G01*
Y5735750D01*
G75*
G02*
X12339346Y5738375I40240J-4D01*
G01*
X11113060D01*
G37*
X10859060Y3912049D02*
G36*
X10859060Y3912049D02*
Y3801625D01*
X12334500D01*
Y3814875D01*
G75*
G02*
X12379500Y3859875I45000J0D01*
G01*
X12464356D01*
X12449096Y3875135D01*
X12379500D01*
G75*
G02*
X12339260Y3915375I0J40240D01*
G01*
Y4005375D01*
G75*
G02*
X12378855Y4045610I40240J0D01*
G01*
G75*
G02*
X12374260Y4071500I70645J25891D01*
G01*
G75*
G02*
X12438250Y4145894I75240J0D01*
G01*
X12443231Y4150875D01*
X11067490D01*
Y4137625D01*
G75*
G02*
X11027250Y4097385I-40240J0D01*
G01*
X10957654D01*
X10942394Y4082125D01*
X11027250D01*
G75*
G02*
X11072250Y4037125I0J-45000D01*
G01*
Y3947125D01*
G75*
G02*
X11027250Y3902125I-45000J0D01*
G01*
X10887250D01*
G75*
G02*
X10859060Y3912049I0J45000D01*
G01*
G37*
X11113060Y5595500D02*
G36*
X11113060Y5595500D02*
Y5500250D01*
X12334500D01*
Y5545250D01*
G75*
G02*
X12379500Y5590250I45000J0D01*
G01*
X12464356D01*
X12459106Y5595500D01*
X11113060D01*
G37*
X10859060Y4832799D02*
G36*
X10859060Y4832799D02*
Y4658875D01*
X12350375D01*
Y4735625D01*
G75*
G02*
X12395375Y4780625I45000J0D01*
G01*
X12480231D01*
X12464971Y4795885D01*
X12395375D01*
G75*
G02*
X12355135Y4836125I0J40240D01*
G01*
Y4926125D01*
G75*
G02*
X12394730Y4966360I40240J0D01*
G01*
G75*
G02*
X12390135Y4992250I70645J25891D01*
G01*
G75*
G02*
X12454125Y5066644I75240J0D01*
G01*
X12490856Y5103375D01*
X11067490D01*
Y5058375D01*
G75*
G02*
X11027250Y5018135I-40240J0D01*
G01*
X10899779D01*
X10884431Y5002787D01*
G75*
G02*
X10887250Y5002875I2813J-44912D01*
G01*
X11027250D01*
G75*
G02*
X11072250Y4957875I0J-45000D01*
G01*
Y4867875D01*
G75*
G02*
X11027250Y4822875I-45000J0D01*
G01*
X10887250D01*
G75*
G02*
X10859060Y4832799I0J45000D01*
G01*
G37*
Y3563500D02*
G36*
X10859060Y3563500D02*
Y3528774D01*
G75*
G02*
X10873740Y3484125I-60560J-44649D01*
G01*
G75*
G02*
X10861087Y3442365I-75240J0D01*
G01*
X10868500D01*
G75*
G02*
X10908740Y3402125I0J-40240D01*
G01*
Y3332529D01*
X10979394Y3261875D01*
X12365412D01*
G75*
G02*
X12422375Y3304519I68213J-31750D01*
G01*
X12501315Y3383459D01*
Y3563500D01*
X10859060D01*
G37*
Y3658750D02*
G36*
X10859060Y3658750D02*
Y3563500D01*
X12501315D01*
Y3658750D01*
X10859060D01*
G37*
Y3801625D02*
G36*
X10859060Y3801625D02*
Y3658750D01*
X12501315D01*
Y3679875D01*
X12379500D01*
G75*
G02*
X12334500Y3724875I0J45000D01*
G01*
Y3801625D01*
X10859060D01*
G37*
Y4420750D02*
G36*
X10859060Y4420750D02*
Y4256341D01*
G75*
G02*
X10887250Y4267865I28190J-28716D01*
G01*
X10894663D01*
G75*
G02*
X10882010Y4309625I62587J41760D01*
G01*
G75*
G02*
X11032490I75240J0D01*
G01*
G75*
G02*
X11019837Y4267865I-75240J0D01*
G01*
X11027250D01*
G75*
G02*
X11067490Y4227625I0J-40240D01*
G01*
Y4150875D01*
X12443231D01*
X12579440Y4287084D01*
Y4420750D01*
X10859060D01*
G37*
Y4547750D02*
G36*
X10859060Y4547750D02*
Y4420750D01*
X12579440D01*
Y4547750D01*
X10859060D01*
G37*
Y4658875D02*
G36*
X10859060Y4658875D02*
Y4547750D01*
X12579440D01*
Y4636499D01*
G75*
G02*
X12535375Y4600625I-44065J9126D01*
G01*
X12395375D01*
G75*
G02*
X12350375Y4645625I0J45000D01*
G01*
Y4658875D01*
X10859060D01*
G37*
X11017810Y5201601D02*
G36*
X11017810Y5201601D02*
Y5188615D01*
X11027250D01*
G75*
G02*
X11067490Y5148375I0J-40240D01*
G01*
Y5103375D01*
X12490856D01*
X12579440Y5191959D01*
Y5341500D01*
X11113060D01*
G75*
G02*
X11095140Y5298496I-60560J0D01*
G01*
X11031644Y5235000D01*
G75*
G02*
X11017810Y5201601I-74394J11250D01*
G01*
G37*
X11113060Y5500250D02*
G36*
X11113060Y5500250D02*
Y5341500D01*
X12579440D01*
Y5475166D01*
X12564500Y5490106D01*
Y5455250D01*
G75*
G02*
X12519500Y5410250I-45000J0D01*
G01*
X12379500D01*
G75*
G02*
X12334500Y5455250I0J45000D01*
G01*
Y5500250D01*
X11113060D01*
G37*
X11033685Y2738000D02*
G36*
X11033685Y2738000D02*
Y2127365D01*
X12642940D01*
Y2738000D01*
X11033685D01*
G37*
Y2912625D02*
G36*
X11033685Y2912625D02*
Y2738000D01*
X12642940D01*
Y2912625D01*
X12548625D01*
Y2867625D01*
G75*
G02*
X12503625Y2822625I-45000J0D01*
G01*
X12363625D01*
G75*
G02*
X12318625Y2867625I0J45000D01*
G01*
Y2912625D01*
X11033685D01*
G37*
X10979394Y3261875D02*
G36*
X10979394Y3261875D02*
X11015765Y3225504D01*
G75*
G02*
X11033685Y3182500I-42640J-43004D01*
G01*
Y2912625D01*
X12318625D01*
Y2957625D01*
G75*
G02*
X12363625Y3002625I45000J0D01*
G01*
X12503625D01*
G75*
G02*
X12548625Y2957625I0J-45000D01*
G01*
Y2912625D01*
X12642940D01*
Y2919291D01*
X12532318Y3029913D01*
G75*
G02*
X12503625Y3017885I-28694J28212D01*
G01*
X12363625D01*
G75*
G02*
X12323385Y3058125I0J40240D01*
G01*
Y3148125D01*
G75*
G02*
X12363625Y3188365I40240J0D01*
G01*
X12371038D01*
G75*
G02*
X12358385Y3230125I62587J41760D01*
G01*
G75*
G02*
X12365412Y3261875I75240J0D01*
G01*
X10979394D01*
G37*
X12700560Y5500250D02*
G36*
X12700560Y5500250D02*
Y5341500D01*
X12926635D01*
Y5402375D01*
G75*
G02*
X12962393Y5442365I40240J0D01*
G01*
G75*
G02*
X12957708Y5468500I70555J26135D01*
G01*
G75*
G02*
X12964735Y5500250I75240J0D01*
G01*
X12700560D01*
G37*
Y4658875D02*
G36*
X12700560Y4658875D02*
Y4547750D01*
X13248640D01*
G75*
G02*
X13244135Y4566250I35735J18500D01*
G01*
Y4656250D01*
G75*
G02*
X13244221Y4658875I40240J-4D01*
G01*
X12700560D01*
G37*
X12662144Y5103375D02*
G36*
X12662144Y5103375D02*
X12925854D01*
G75*
G02*
X12921875Y5121875I41021J18501D01*
G01*
Y5211875D01*
G75*
G02*
X12966875Y5256875I45000J0D01*
G01*
X13106875D01*
G75*
G02*
X13151875Y5211875I0J-45000D01*
G01*
Y5121875D01*
G75*
G02*
X13147896Y5103375I-45000J1D01*
G01*
X13284606D01*
X13115014Y5272967D01*
G75*
G02*
X13106875Y5272135I-8140J39408D01*
G01*
X12966875D01*
G75*
G02*
X12926635Y5312375I0J40240D01*
G01*
Y5341500D01*
X12700560D01*
Y5166875D01*
G75*
G02*
X12682640Y5123871I-60560J0D01*
G01*
X12662144Y5103375D01*
G37*
X12536020Y4966360D02*
G36*
X12536020Y4966360D02*
G75*
G02*
X12575615Y4926125I-645J-40235D01*
G01*
Y4856529D01*
X12682640Y4749504D01*
G75*
G02*
X12700560Y4706500I-42640J-43004D01*
G01*
Y4658875D01*
X13244221D01*
G75*
G02*
X13279893Y4696240I40154J-2625D01*
G01*
G75*
G02*
X13275208Y4722375I70555J26135D01*
G01*
G75*
G02*
X13289888Y4767024I75240J0D01*
G01*
Y5098093D01*
X13284606Y5103375D01*
X13147896D01*
G75*
G02*
X13106875Y5076875I-41021J18500D01*
G01*
X12966875D01*
G75*
G02*
X12925854Y5103375I0J45000D01*
G01*
X12662144D01*
X12539769Y4981000D01*
G75*
G02*
X12536020Y4966360I-74394J11251D01*
G01*
G37*
X12700560Y4547750D02*
G36*
X12700560Y4547750D02*
Y4420750D01*
X13239375D01*
Y4465750D01*
G75*
G02*
X13284375Y4510750I45000J0D01*
G01*
X13424375D01*
G75*
G02*
X13469375Y4465750I0J-45000D01*
G01*
Y4420750D01*
X13586231D01*
X13459806Y4547175D01*
G75*
G02*
X13424375Y4526010I-35431J19075D01*
G01*
X13284375D01*
G75*
G02*
X13248640Y4547750I0J40240D01*
G01*
X12700560D01*
G37*
X12520145Y4045610D02*
G36*
X12520145Y4045610D02*
G75*
G02*
X12559740Y4005375I-645J-40235D01*
G01*
Y3935779D01*
X12604515Y3891004D01*
G75*
G02*
X12622435Y3848000I-42640J-43004D01*
G01*
Y3801625D01*
X13545846D01*
G75*
G02*
X13545760Y3804250I40154J2629D01*
G01*
Y3894250D01*
G75*
G02*
X13586000Y3934490I40240J0D01*
G01*
X13605361D01*
G75*
G02*
X13592708Y3976250I62587J41760D01*
G01*
G75*
G02*
X13607388Y4020899I75240J0D01*
G01*
Y4150875D01*
X12614519D01*
X12523894Y4060250D01*
G75*
G02*
X12520145Y4045610I-74394J11251D01*
G01*
G37*
X12614519Y4150875D02*
G36*
X12614519Y4150875D02*
X13607388D01*
Y4399593D01*
X13586231Y4420750D01*
X13469375D01*
Y4375750D01*
G75*
G02*
X13424375Y4330750I-45000J0D01*
G01*
X13284375D01*
G75*
G02*
X13239375Y4375750I0J45000D01*
G01*
Y4420750D01*
X12700560D01*
Y4262000D01*
G75*
G02*
X12682640Y4218996I-60560J0D01*
G01*
X12614519Y4150875D01*
G37*
X12764060Y2738000D02*
G36*
X12764060Y2738000D02*
Y2127365D01*
X13992315D01*
Y2738000D01*
X12764060D01*
G37*
X12551019Y3261875D02*
G36*
X12551019Y3261875D02*
X14071690D01*
Y3563500D01*
X12622435D01*
Y3358375D01*
G75*
G02*
X12604515Y3315371I-60560J0D01*
G01*
X12551019Y3261875D01*
G37*
X12622435Y3658750D02*
G36*
X12622435Y3658750D02*
Y3563500D01*
X14071690D01*
Y3658750D01*
X13771000D01*
Y3613750D01*
G75*
G02*
X13726000Y3568750I-45000J0D01*
G01*
X13586000D01*
G75*
G02*
X13541000Y3613750I0J45000D01*
G01*
Y3658750D01*
X12622435D01*
G37*
Y3801625D02*
G36*
X12622435Y3801625D02*
Y3658750D01*
X13541000D01*
Y3703750D01*
G75*
G02*
X13586000Y3748750I45000J0D01*
G01*
X13726000D01*
G75*
G02*
X13771000Y3703750I0J-45000D01*
G01*
Y3658750D01*
X14071690D01*
Y3744791D01*
X14027791Y3788690D01*
X13763110D01*
G75*
G02*
X13726000Y3764010I-37110J15560D01*
G01*
X13586000D01*
G75*
G02*
X13545846Y3801625I0J40240D01*
G01*
X12622435D01*
G37*
X12764060Y2912625D02*
G36*
X12764060Y2912625D02*
Y2738000D01*
X13992315D01*
Y2801500D01*
G75*
G02*
X14010235Y2844504I60560J0D01*
G01*
X14078356Y2912625D01*
X12764060D01*
G37*
X13630519Y4547750D02*
G36*
X13630519Y4547750D02*
X13710588Y4467681D01*
G75*
G02*
X13728508Y4424677I-42640J-43004D01*
G01*
Y4420750D01*
X14230440D01*
Y4547750D01*
X13630519D01*
G37*
X13518783Y4658875D02*
G36*
X13518783Y4658875D02*
G75*
G02*
X13524379Y4653890I-37407J-47626D01*
G01*
X13630519Y4547750D01*
X14230440D01*
Y4658875D01*
X13518783D01*
G37*
X13217769Y5341500D02*
G36*
X13217769Y5341500D02*
X13393088Y5166181D01*
G75*
G02*
X13411008Y5123177I-42640J-43004D01*
G01*
Y5103375D01*
X14262190D01*
Y5341500D01*
X13217769D01*
G37*
X13101161Y5500250D02*
G36*
X13101161Y5500250D02*
G75*
G02*
X13108188Y5468500I-68213J-31750D01*
G01*
G75*
G02*
X13103595Y5442615I-75240J0D01*
G01*
X13106875D01*
G75*
G02*
X13146407Y5409893I0J-40240D01*
G01*
G75*
G02*
X13159254Y5400015I-30159J-52517D01*
G01*
X13217769Y5341500D01*
X14262190D01*
Y5500250D01*
X13101161D01*
G37*
X12630394Y5595500D02*
G36*
X12630394Y5595500D02*
X12682640Y5543254D01*
G75*
G02*
X12700560Y5500250I-42640J-43004D01*
G01*
X12964735D01*
G75*
G02*
X13101161I68213J-31750D01*
G01*
X14262190D01*
Y5595500D01*
X12630394D01*
G37*
X13728508Y4420750D02*
G36*
X13728508Y4420750D02*
Y4150875D01*
X14268856D01*
X14248360Y4171371D01*
G75*
G02*
X14230440Y4214375I42640J43004D01*
G01*
Y4420750D01*
X13728508D01*
G37*
X12496212Y3188365D02*
G36*
X12496212Y3188365D02*
X12503625D01*
G75*
G02*
X12540735Y3163685I0J-40240D01*
G01*
X12544750D01*
G75*
G02*
X12587754Y3145765I0J-60560D01*
G01*
X12746140Y2987379D01*
G75*
G02*
X12764060Y2944375I-42640J-43004D01*
G01*
Y2912625D01*
X14078356D01*
X14136871Y2971140D01*
G75*
G02*
X14179875Y2989060I43004J-42640D01*
G01*
X14247390D01*
G75*
G02*
X14283855Y3013735I37110J-15560D01*
G01*
G75*
G02*
X14280106Y3028375I70645J25891D01*
G01*
X14089610Y3218871D01*
G75*
G02*
X14071690Y3261875I42640J43004D01*
G01*
X12551019D01*
X12508019Y3218875D01*
G75*
G02*
X12496212Y3188365I-74394J11250D01*
G01*
G37*
X12414810Y6373375D02*
G36*
X12414810Y6373375D02*
Y6198750D01*
X14341565D01*
Y6373375D01*
X12675625D01*
Y6328375D01*
G75*
G02*
X12630625Y6283375I-45000J0D01*
G01*
X12490625D01*
G75*
G02*
X12445625Y6328375I0J45000D01*
G01*
Y6373375D01*
X12414810D01*
G37*
Y6198750D02*
G36*
X12414810Y6198750D02*
Y5922209D01*
X12460750Y5876269D01*
G75*
G02*
X12517713Y5833625I-11250J-74394D01*
G01*
X14343683D01*
G75*
G02*
X14341565Y5849500I58442J15876D01*
G01*
Y6198750D01*
X12414810D01*
G37*
X14192810Y3744791D02*
G36*
X14192810Y3744791D02*
Y3658750D01*
X14350709D01*
G75*
G02*
X14334750Y3693125I29041J34375D01*
G01*
Y3783125D01*
G75*
G02*
X14338729Y3801625I45000J-1D01*
G01*
X14249644D01*
X14192810Y3744791D01*
G37*
X12559654Y5738375D02*
G36*
X12559654Y5738375D02*
G75*
G02*
X12559740Y5735750I-40154J-2629D01*
G01*
Y5666154D01*
X12630394Y5595500D01*
X14262190D01*
Y5643125D01*
G75*
G02*
X14280110Y5686129I60560J0D01*
G01*
X14311496Y5717515D01*
G75*
G02*
X14354500Y5735435I43004J-42640D01*
G01*
X14358515D01*
G75*
G02*
X14359890Y5738375I37108J-15564D01*
G01*
X12559654D01*
G37*
X13411008Y5103375D02*
G36*
X13411008Y5103375D02*
Y4767024D01*
G75*
G02*
X13425688Y4722375I-60560J-44649D01*
G01*
G75*
G02*
X13421095Y4696490I-75240J0D01*
G01*
X13424375D01*
G75*
G02*
X13461485Y4671810I0J-40240D01*
G01*
X13481375D01*
G75*
G02*
X13518783Y4658875I0J-60560D01*
G01*
X14230440D01*
Y4785875D01*
G75*
G02*
X14248360Y4828879I60560J0D01*
G01*
X14311496Y4892015D01*
G75*
G02*
X14342130Y4908658I43004J-42640D01*
G01*
G75*
G02*
X14379105Y4934610I37620J-14283D01*
G01*
G75*
G02*
X14375356Y4949250I70645J25891D01*
G01*
X14280110Y5044496D01*
G75*
G02*
X14262190Y5087500I42640J43004D01*
G01*
Y5103375D01*
X13411008D01*
G37*
X13728508Y4150875D02*
G36*
X13728508Y4150875D02*
Y4020899D01*
G75*
G02*
X13743188Y3976250I-60560J-44649D01*
G01*
G75*
G02*
X13730375Y3934251I-75240J0D01*
G01*
G75*
G02*
X13763110Y3909810I-4375J-40001D01*
G01*
X14052875D01*
G75*
G02*
X14095879Y3891890I0J-60560D01*
G01*
X14132250Y3855519D01*
X14247996Y3971265D01*
G75*
G02*
X14291000Y3989185I43004J-42640D01*
G01*
X14342640D01*
G75*
G02*
X14379750Y4013865I37110J-15560D01*
G01*
X14387163D01*
G75*
G02*
X14375356Y4044375I62587J41760D01*
G01*
X14268856Y4150875D01*
X13728508D01*
G37*
X12517713Y5833625D02*
G36*
X12517713Y5833625D02*
G75*
G02*
X12524740Y5801875I-68213J-31750D01*
G01*
G75*
G02*
X12520145Y5775985I-75240J1D01*
G01*
G75*
G02*
X12559654Y5738375I-645J-40235D01*
G01*
X14359890D01*
G75*
G02*
X14394980Y5760110I35735J-18500D01*
G01*
G75*
G02*
X14391231Y5774750I70645J25891D01*
G01*
X14359485Y5806496D01*
G75*
G02*
X14343683Y5833625I42640J43004D01*
G01*
X12517713D01*
G37*
X14113435Y2738000D02*
G36*
X14113435Y2738000D02*
Y2127365D01*
X16802190D01*
Y2738000D01*
X14469500D01*
Y2693000D01*
G75*
G02*
X14424500Y2648000I-45000J0D01*
G01*
X14284500D01*
G75*
G02*
X14239500Y2693000I0J45000D01*
G01*
Y2738000D01*
X14113435D01*
G37*
Y2776416D02*
G36*
X14113435Y2776416D02*
Y2738000D01*
X14239500D01*
Y2783000D01*
G75*
G02*
X14284500Y2828000I45000J0D01*
G01*
X14424500D01*
G75*
G02*
X14469500Y2783000I0J-45000D01*
G01*
Y2738000D01*
X16802190D01*
Y2896750D01*
G75*
G02*
X16804308Y2912625I60560J-1D01*
G01*
X14464740D01*
Y2883500D01*
G75*
G02*
X14424500Y2843260I-40240J0D01*
G01*
X14284500D01*
G75*
G02*
X14247390Y2867940I0J40240D01*
G01*
X14204959D01*
X14113435Y2776416D01*
G37*
X14217894Y3261875D02*
G36*
X14217894Y3261875D02*
X14365750Y3114019D01*
G75*
G02*
X14429740Y3039625I-11250J-74394D01*
G01*
G75*
G02*
X14425145Y3013735I-75240J1D01*
G01*
G75*
G02*
X14464740Y2973500I-645J-40235D01*
G01*
Y2912625D01*
X16804308D01*
G75*
G02*
X16820110Y2939754I58442J-15875D01*
G01*
X17010246Y3129890D01*
G75*
G02*
X17053250Y3147810I43004J-42640D01*
G01*
X17089015D01*
G75*
G02*
X17126125Y3172490I37110J-15560D01*
G01*
X17139062D01*
Y3181223D01*
G75*
G02*
X17124382Y3225872I60560J44649D01*
G01*
G75*
G02*
X17133555Y3261875I75240J0D01*
G01*
X14217894D01*
G37*
X14192810Y3563500D02*
G36*
X14192810Y3563500D02*
Y3286959D01*
X14217894Y3261875D01*
X17133555D01*
G75*
G02*
X17139062Y3270521I66067J-36004D01*
G01*
Y3563500D01*
X14192810D01*
G37*
Y3658750D02*
G36*
X14192810Y3658750D02*
Y3563500D01*
X17139062D01*
Y3658750D01*
X14548791D01*
G75*
G02*
X14519750Y3648125I-29041J34375D01*
G01*
X14379750D01*
G75*
G02*
X14350709Y3658750I0J45000D01*
G01*
X14192810D01*
G37*
X14548791D02*
G36*
X14548791Y3658750D02*
X17139062D01*
Y3801625D01*
X14560771D01*
G75*
G02*
X14564750Y3783125I-41021J-18501D01*
G01*
Y3693125D01*
G75*
G02*
X14548791Y3658750I-45000J0D01*
G01*
G37*
X17260182Y3795913D02*
G36*
X17260182Y3795913D02*
Y3658750D01*
X17323229D01*
G75*
G02*
X17319250Y3677250I41021J18501D01*
G01*
Y3767250D01*
G75*
G02*
X17335209Y3801625I45000J0D01*
G01*
X17265894D01*
X17260182Y3795913D01*
G37*
X14249644Y3801625D02*
G36*
X14249644Y3801625D02*
X14338729D01*
G75*
G02*
X14379750Y3828125I41021J-18500D01*
G01*
X14519750D01*
G75*
G02*
X14560771Y3801625I0J-45000D01*
G01*
X17139062D01*
Y3820997D01*
G75*
G02*
X17156982Y3864001I60560J0D01*
G01*
X17248371Y3955390D01*
G75*
G02*
X17291375Y3973310I43004J-42640D01*
G01*
X17327140D01*
G75*
G02*
X17364250Y3997990I37110J-15560D01*
G01*
X17373690D01*
Y4010976D01*
G75*
G02*
X17359010Y4055625I60560J44649D01*
G01*
G75*
G02*
X17373690Y4100274I75240J0D01*
G01*
Y4150875D01*
X14440144D01*
X14461000Y4130019D01*
G75*
G02*
X14524990Y4055625I-11250J-74394D01*
G01*
G75*
G02*
X14512337Y4013865I-75240J0D01*
G01*
X14519750D01*
G75*
G02*
X14559990Y3973625I0J-40240D01*
G01*
Y3883625D01*
G75*
G02*
X14519750Y3843385I-40240J0D01*
G01*
X14379750D01*
G75*
G02*
X14342640Y3868065I0J40240D01*
G01*
X14316084D01*
X14249644Y3801625D01*
G37*
X14351560Y4420750D02*
G36*
X14351560Y4420750D02*
Y4239459D01*
X14440144Y4150875D01*
X17373690D01*
Y4420750D01*
X14351560D01*
G37*
Y4547750D02*
G36*
X14351560Y4547750D02*
Y4420750D01*
X17373690D01*
Y4547750D01*
X14351560D01*
G37*
Y4578799D02*
G36*
X14351560Y4578799D02*
Y4547750D01*
X17373690D01*
Y4611250D01*
G75*
G02*
X17391610Y4654254I60560J0D01*
G01*
X17396231Y4658875D01*
X14564750D01*
Y4613875D01*
G75*
G02*
X14519750Y4568875I-45000J0D01*
G01*
X14379750D01*
G75*
G02*
X14351560Y4578799I0J45000D01*
G01*
G37*
X17567519Y4658875D02*
G36*
X17567519Y4658875D02*
X17613206D01*
G75*
G02*
X17597015Y4677690I20919J34375D01*
G01*
X17586334D01*
X17567519Y4658875D01*
G37*
X14351560Y4760791D02*
G36*
X14351560Y4760791D02*
Y4738951D01*
G75*
G02*
X14379750Y4748875I28190J-35076D01*
G01*
X14519750D01*
G75*
G02*
X14564750Y4703875I0J-45000D01*
G01*
Y4658875D01*
X17396231D01*
X17518246Y4780890D01*
G75*
G02*
X17561250Y4798810I43004J-42640D01*
G01*
X17597015D01*
G75*
G02*
X17634125Y4823490I37110J-15560D01*
G01*
X17641538D01*
G75*
G02*
X17628885Y4865250I62587J41760D01*
G01*
G75*
G02*
X17643565Y4909899I75240J0D01*
G01*
Y5103375D01*
X14392519D01*
X14461000Y5034894D01*
G75*
G02*
X14524990Y4960500I-11250J-74394D01*
G01*
G75*
G02*
X14520395Y4934610I-75240J1D01*
G01*
G75*
G02*
X14559990Y4894375I-645J-40235D01*
G01*
Y4804375D01*
G75*
G02*
X14519750Y4764135I-40240J0D01*
G01*
X14379750D01*
G75*
G02*
X14360054Y4769285I0J40240D01*
G01*
X14351560Y4760791D01*
G37*
X14383310Y5341500D02*
G36*
X14383310Y5341500D02*
Y5112584D01*
X14392519Y5103375D01*
X17643565D01*
Y5341500D01*
X14383310D01*
G37*
Y5396093D02*
G36*
X14383310Y5396093D02*
Y5341500D01*
X17643565D01*
Y5468500D01*
G75*
G02*
X17652555Y5500250I60560J0D01*
G01*
X14580625D01*
Y5439375D01*
G75*
G02*
X14535625Y5394375I-45000J0D01*
G01*
X14395625D01*
G75*
G02*
X14383310Y5396093I0J45000D01*
G01*
G37*
Y5591566D02*
G36*
X14383310Y5591566D02*
Y5572657D01*
G75*
G02*
X14395625Y5574375I12315J-43282D01*
G01*
X14535625D01*
G75*
G02*
X14580625Y5529375I0J-45000D01*
G01*
Y5500250D01*
X17652555D01*
G75*
G02*
X17661485Y5511504I51570J-31750D01*
G01*
X17724621Y5574640D01*
G75*
G02*
X17767625Y5592560I43004J-42640D01*
G01*
X17819265D01*
G75*
G02*
X17820640Y5595500I37108J-15564D01*
G01*
X14556544D01*
G75*
G02*
X14535625Y5589635I-20919J34375D01*
G01*
X14395625D01*
G75*
G02*
X14383310Y5591566I1J40240D01*
G01*
G37*
X14556544Y5595500D02*
G36*
X14556544Y5595500D02*
X17820640D01*
G75*
G02*
X17856375Y5617240I35735J-18500D01*
G01*
X17863788D01*
G75*
G02*
X17851135Y5659000I62587J41760D01*
G01*
G75*
G02*
X17865815Y5703649I75240J0D01*
G01*
Y5738375D01*
X14571360D01*
G75*
G02*
X14575865Y5719875I-35735J-18500D01*
G01*
Y5629875D01*
G75*
G02*
X14556544Y5595500I-40240J0D01*
G01*
G37*
X14523873Y5833625D02*
G36*
X14523873Y5833625D02*
G75*
G02*
X14540865Y5786000I-58248J-47626D01*
G01*
G75*
G02*
X14536270Y5760110I-75240J1D01*
G01*
G75*
G02*
X14571360Y5738375I-645J-40235D01*
G01*
X17865815D01*
Y5833625D01*
X14523873D01*
G37*
X17265894Y3801625D02*
G36*
X17265894Y3801625D02*
X17335209D01*
G75*
G02*
X17364250Y3812250I29041J-34375D01*
G01*
X17504250D01*
G75*
G02*
X17533291Y3801625I0J-45000D01*
G01*
X17963954D01*
G75*
G02*
X17963106Y3806250I73546J15875D01*
G01*
X17917166Y3852190D01*
X17541360D01*
G75*
G02*
X17504250Y3827510I-37110J15560D01*
G01*
X17364250D01*
G75*
G02*
X17327140Y3852190I0J40240D01*
G01*
X17316459D01*
X17265894Y3801625D01*
G37*
X17533291D02*
G36*
X17533291Y3801625D02*
G75*
G02*
X17549250Y3767250I-29041J-34375D01*
G01*
Y3677250D01*
G75*
G02*
X17545271Y3658750I-45000J1D01*
G01*
X17927260D01*
Y3735500D01*
G75*
G02*
X17967500Y3775740I40240J0D01*
G01*
X17974913D01*
G75*
G02*
X17963954Y3801625I62587J41760D01*
G01*
X17533291D01*
G37*
X14462685Y6198750D02*
G36*
X14462685Y6198750D02*
Y5874584D01*
X14476875Y5860394D01*
G75*
G02*
X14523873Y5833625I-11250J-74394D01*
G01*
X17865815D01*
Y5913000D01*
G75*
G02*
X17883735Y5956004I60560J0D01*
G01*
X17994496Y6066765D01*
G75*
G02*
X18037500Y6084685I43004J-42640D01*
G01*
X18105015D01*
G75*
G02*
X18142125Y6109365I37110J-15560D01*
G01*
X18151565D01*
Y6121101D01*
G75*
G02*
X18136885Y6165750I60560J44649D01*
G01*
G75*
G02*
X18144508Y6198750I75240J0D01*
G01*
X14462685D01*
G37*
X17764685Y5443416D02*
G36*
X17764685Y5443416D02*
Y5341500D01*
X17811375D01*
Y5386500D01*
G75*
G02*
X17856375Y5431500I45000J0D01*
G01*
X17996375D01*
G75*
G02*
X18041375Y5386500I0J-45000D01*
G01*
Y5341500D01*
X18387721D01*
G75*
G02*
X18427875Y5379115I40154J-2625D01*
G01*
X18437315D01*
Y5392101D01*
G75*
G02*
X18422635Y5436750I60560J44649D01*
G01*
G75*
G02*
X18457517Y5500250I75240J0D01*
G01*
X18036615D01*
Y5487000D01*
G75*
G02*
X17996375Y5446760I-40240J0D01*
G01*
X17856375D01*
G75*
G02*
X17819265Y5471440I0J40240D01*
G01*
X17792709D01*
X17764685Y5443416D01*
G37*
Y5341500D02*
G36*
X17764685Y5341500D02*
Y5103375D01*
X18382875D01*
Y5148375D01*
G75*
G02*
X18427875Y5193375I45000J0D01*
G01*
X18512731D01*
X18497471Y5208635D01*
X18427875D01*
G75*
G02*
X18387635Y5248875I0J40240D01*
G01*
Y5338875D01*
G75*
G02*
X18387721Y5341500I40240J-4D01*
G01*
X18041375D01*
Y5296500D01*
G75*
G02*
X17996375Y5251500I-45000J0D01*
G01*
X17856375D01*
G75*
G02*
X17811375Y5296500I0J45000D01*
G01*
Y5341500D01*
X17764685D01*
G37*
X17494810Y4586166D02*
G36*
X17494810Y4586166D02*
Y4547750D01*
X17589125D01*
Y4592750D01*
G75*
G02*
X17634125Y4637750I45000J0D01*
G01*
X17774125D01*
G75*
G02*
X17819125Y4592750I0J-45000D01*
G01*
Y4547750D01*
X18530510D01*
Y4576875D01*
G75*
G02*
X18570750Y4617115I40240J0D01*
G01*
X18578187D01*
Y4630101D01*
G75*
G02*
X18565201Y4658875I60560J44649D01*
G01*
X17795044D01*
G75*
G02*
X17774125Y4653010I-20919J34375D01*
G01*
X17634125D01*
G75*
G02*
X17613206Y4658875I0J40240D01*
G01*
X17567519D01*
X17494810Y4586166D01*
G37*
X17764685Y5103375D02*
G36*
X17764685Y5103375D02*
Y4909899D01*
G75*
G02*
X17779365Y4865250I-60560J-44649D01*
G01*
G75*
G02*
X17766712Y4823490I-75240J0D01*
G01*
X17774125D01*
G75*
G02*
X17814365Y4783250I0J-40240D01*
G01*
Y4693250D01*
G75*
G02*
X17795044Y4658875I-40240J0D01*
G01*
X18565201D01*
G75*
G02*
X18563507Y4674750I73546J15876D01*
G01*
G75*
G02*
X18578187Y4719399I75240J0D01*
G01*
Y5014572D01*
G75*
G02*
X18567875Y5013375I-10310J43803D01*
G01*
X18427875D01*
G75*
G02*
X18382875Y5058375I0J45000D01*
G01*
Y5103375D01*
X17764685D01*
G37*
X17494810Y4547750D02*
G36*
X17494810Y4547750D02*
Y4420750D01*
X18541709D01*
G75*
G02*
X18570750Y4431375I29041J-34375D01*
G01*
X18703231D01*
X18687971Y4446635D01*
X18570750D01*
G75*
G02*
X18530510Y4486875I0J40240D01*
G01*
Y4547750D01*
X17819125D01*
Y4502750D01*
G75*
G02*
X17774125Y4457750I-45000J0D01*
G01*
X17634125D01*
G75*
G02*
X17589125Y4502750I0J45000D01*
G01*
Y4547750D01*
X17494810D01*
G37*
X18100087Y3775740D02*
G36*
X18100087Y3775740D02*
X18107500D01*
G75*
G02*
X18147740Y3735500I0J-40240D01*
G01*
Y3658750D01*
X18721096D01*
G75*
G02*
X18721010Y3661375I40154J2629D01*
G01*
Y3751375D01*
G75*
G02*
X18761250Y3791615I40240J0D01*
G01*
X18770690D01*
Y3801625D01*
X18111046D01*
G75*
G02*
X18100087Y3775740I-73546J15875D01*
G01*
G37*
X17494810Y4150875D02*
G36*
X17494810Y4150875D02*
Y4100274D01*
G75*
G02*
X17509490Y4055625I-60560J-44649D01*
G01*
G75*
G02*
X17494810Y4010976I-75240J0D01*
G01*
Y3997990D01*
X17504250D01*
G75*
G02*
X17541360Y3973310I0J-40240D01*
G01*
X17942250D01*
G75*
G02*
X17985254Y3955390I0J-60560D01*
G01*
X18048750Y3891894D01*
G75*
G02*
X18112740Y3817500I-11250J-74394D01*
G01*
G75*
G02*
X18111046Y3801625I-75240J1D01*
G01*
X18770690D01*
Y3804601D01*
G75*
G02*
X18756010Y3849250I60560J44649D01*
G01*
G75*
G02*
X18770690Y3893899I75240J0D01*
G01*
Y4150875D01*
X17494810D01*
G37*
Y4420750D02*
G36*
X17494810Y4420750D02*
Y4150875D01*
X18770690D01*
Y4363916D01*
X18755750Y4378856D01*
Y4296375D01*
G75*
G02*
X18710750Y4251375I-45000J0D01*
G01*
X18570750D01*
G75*
G02*
X18525750Y4296375I0J45000D01*
G01*
Y4386375D01*
G75*
G02*
X18541709Y4420750I45000J0D01*
G01*
X17494810D01*
G37*
X17260182Y3658750D02*
G36*
X17260182Y3658750D02*
Y3563500D01*
X17926479D01*
G75*
G02*
X17967500Y3590000I41021J-18500D01*
G01*
X18107500D01*
G75*
G02*
X18148521Y3563500I0J-45000D01*
G01*
X18716327D01*
G75*
G02*
X18761250Y3605875I44923J-2625D01*
G01*
X18851528D01*
X18836268Y3621135D01*
X18761250D01*
G75*
G02*
X18721096Y3658750I0J40240D01*
G01*
X18147740D01*
Y3645500D01*
G75*
G02*
X18107500Y3605260I-40240J0D01*
G01*
X17967500D01*
G75*
G02*
X17927260Y3645500I0J40240D01*
G01*
Y3658750D01*
X17545271D01*
G75*
G02*
X17504250Y3632250I-41021J18500D01*
G01*
X17364250D01*
G75*
G02*
X17323229Y3658750I0J45000D01*
G01*
X17260182D01*
G37*
X16964269Y2912625D02*
G36*
X16964269Y2912625D02*
X17081125D01*
Y2941750D01*
G75*
G02*
X17126125Y2986750I45000J0D01*
G01*
X17266125D01*
G75*
G02*
X17311125Y2941750I0J-45000D01*
G01*
Y2912625D01*
X18959135D01*
Y2973500D01*
G75*
G02*
X18999375Y3013740I40240J0D01*
G01*
X19022663D01*
G75*
G02*
X19010010Y3055500I62587J41760D01*
G01*
G75*
G02*
X19024690Y3100149I75240J0D01*
G01*
Y3261875D01*
X17265689D01*
G75*
G02*
X17274862Y3225872I-66067J-36003D01*
G01*
G75*
G02*
X17260182Y3181223I-75240J0D01*
G01*
Y3172490D01*
X17266125D01*
G75*
G02*
X17306365Y3132250I0J-40240D01*
G01*
Y3042250D01*
G75*
G02*
X17266125Y3002010I-40240J0D01*
G01*
X17126125D01*
G75*
G02*
X17089015Y3026690I0J40240D01*
G01*
X17078334D01*
X16964269Y2912625D01*
G37*
X17260182Y3563500D02*
G36*
X17260182Y3563500D02*
Y3270521D01*
G75*
G02*
X17265689Y3261875I-60560J-44650D01*
G01*
X19024690D01*
Y3432713D01*
X18946250Y3511153D01*
Y3470875D01*
G75*
G02*
X18901250Y3425875I-45000J0D01*
G01*
X18761250D01*
G75*
G02*
X18716250Y3470875I0J45000D01*
G01*
Y3560875D01*
G75*
G02*
X18716327Y3563500I45000J-6D01*
G01*
X18148521D01*
G75*
G02*
X18152500Y3545000I-41021J-18501D01*
G01*
Y3455000D01*
G75*
G02*
X18107500Y3410000I-45000J0D01*
G01*
X17967500D01*
G75*
G02*
X17922500Y3455000I0J45000D01*
G01*
Y3545000D01*
G75*
G02*
X17926479Y3563500I45000J-1D01*
G01*
X17260182D01*
G37*
X16923310Y2738000D02*
G36*
X16923310Y2738000D02*
Y2127365D01*
X19342190D01*
Y2738000D01*
X19184375D01*
Y2693000D01*
G75*
G02*
X19139375Y2648000I-45000J0D01*
G01*
X18999375D01*
G75*
G02*
X18954375Y2693000I0J45000D01*
G01*
Y2738000D01*
X16923310D01*
G37*
Y2871666D02*
G36*
X16923310Y2871666D02*
Y2738000D01*
X18954375D01*
Y2783000D01*
G75*
G02*
X18999375Y2828000I45000J0D01*
G01*
X19139375D01*
G75*
G02*
X19184375Y2783000I0J-45000D01*
G01*
Y2738000D01*
X19342190D01*
Y2760541D01*
X19234791Y2867940D01*
X19176485D01*
G75*
G02*
X19139375Y2843260I-37110J15560D01*
G01*
X18999375D01*
G75*
G02*
X18959135Y2883500I0J40240D01*
G01*
Y2912625D01*
X17311125D01*
Y2851750D01*
G75*
G02*
X17266125Y2806750I-45000J0D01*
G01*
X17126125D01*
G75*
G02*
X17081125Y2851750I0J45000D01*
G01*
Y2912625D01*
X16964269D01*
X16923310Y2871666D01*
G37*
X19463310Y2738000D02*
G36*
X19463310Y2738000D02*
Y2127365D01*
X20405815D01*
Y2738000D01*
X19463310D01*
G37*
X19361394Y2912625D02*
G36*
X19361394Y2912625D02*
X19445390Y2828629D01*
G75*
G02*
X19463310Y2785625I-42640J-43004D01*
G01*
Y2738000D01*
X20405815D01*
Y2912625D01*
X19361394D01*
G37*
X18969941Y3658750D02*
G36*
X18969941Y3658750D02*
X19065191Y3563500D01*
X20405815D01*
Y3658750D01*
X18969941D01*
G37*
X18891810Y3801625D02*
G36*
X18891810Y3801625D02*
Y3791615D01*
X18901250D01*
G75*
G02*
X18941490Y3751375I0J-40240D01*
G01*
Y3687201D01*
X18969941Y3658750D01*
X20405815D01*
Y3801625D01*
X18891810D01*
G37*
X18758144Y4547750D02*
G36*
X18758144Y4547750D02*
X18873890Y4432004D01*
G75*
G02*
X18882820Y4420750I-42640J-43004D01*
G01*
X20405815D01*
Y4547750D01*
X18758144D01*
G37*
X18699307Y4630101D02*
G36*
X18699307Y4630101D02*
Y4617115D01*
X18710750D01*
G75*
G02*
X18750990Y4576875I0J-40240D01*
G01*
Y4554904D01*
X18758144Y4547750D01*
X20405815D01*
Y4658875D01*
X18712293D01*
G75*
G02*
X18699307Y4630101I-73546J15875D01*
G01*
G37*
X18538233Y5500250D02*
G36*
X18538233Y5500250D02*
G75*
G02*
X18573115Y5436750I-40358J-63500D01*
G01*
G75*
G02*
X18558435Y5392101I-75240J0D01*
G01*
Y5379115D01*
X18567875D01*
G75*
G02*
X18608029Y5341500I0J-40240D01*
G01*
X20405815D01*
Y5500250D01*
X18538233D01*
G37*
X18032110Y5595500D02*
G36*
X18032110Y5595500D02*
G75*
G02*
X18036615Y5577000I-35735J-18500D01*
G01*
Y5500250D01*
X18457517D01*
G75*
G02*
X18538233I40358J-63500D01*
G01*
X20405815D01*
Y5595500D01*
X18032110D01*
G37*
X14462685Y6303374D02*
G36*
X14462685Y6303374D02*
Y6198750D01*
X18144508D01*
G75*
G02*
X18279742I67617J-33000D01*
G01*
X20405815D01*
Y6373375D01*
X14691750D01*
Y6312500D01*
G75*
G02*
X14646750Y6267500I-45000J0D01*
G01*
X14506750D01*
G75*
G02*
X14462685Y6303374I0J45000D01*
G01*
G37*
X18608029Y5341500D02*
G36*
X18608029Y5341500D02*
G75*
G02*
X18608115Y5338875I-40154J-2629D01*
G01*
Y5269279D01*
X18681387Y5196007D01*
G75*
G02*
X18699307Y5153003I-42640J-43004D01*
G01*
Y5103375D01*
X20445481D01*
X20423735Y5125121D01*
G75*
G02*
X20405815Y5168125I42640J43004D01*
G01*
Y5341500D01*
X18608029D01*
G37*
X17986935Y5738375D02*
G36*
X17986935Y5738375D02*
Y5703649D01*
G75*
G02*
X18001615Y5659000I-60560J-44649D01*
G01*
G75*
G02*
X17988962Y5617240I-75240J0D01*
G01*
X17996375D01*
G75*
G02*
X18032110Y5595500I0J-40240D01*
G01*
X20405815D01*
Y5627250D01*
G75*
G02*
X20423735Y5670254I60560J0D01*
G01*
X20486871Y5733390D01*
G75*
G02*
X20492467Y5738375I43003J-42641D01*
G01*
X17986935D01*
G37*
X18882820Y4420750D02*
G36*
X18882820Y4420750D02*
G75*
G02*
X18891810Y4389000I-51570J-31750D01*
G01*
Y4150875D01*
X20540731D01*
X20423735Y4267871D01*
G75*
G02*
X20405815Y4310875I42640J43004D01*
G01*
Y4420750D01*
X18882820D01*
G37*
X17986935Y5887916D02*
G36*
X17986935Y5887916D02*
Y5833625D01*
X18097125D01*
Y5878625D01*
G75*
G02*
X18142125Y5923625I45000J0D01*
G01*
X18282125D01*
G75*
G02*
X18327125Y5878625I0J-45000D01*
G01*
Y5833625D01*
X20556606D01*
X20423735Y5966496D01*
G75*
G02*
X20405815Y6009500I42640J43004D01*
G01*
Y6198750D01*
X18279742D01*
G75*
G02*
X18287365Y6165750I-67617J-33000D01*
G01*
G75*
G02*
X18272685Y6121101I-75240J0D01*
G01*
Y6109365D01*
X18282125D01*
G75*
G02*
X18322365Y6069125I0J-40240D01*
G01*
Y5979125D01*
G75*
G02*
X18282125Y5938885I-40240J0D01*
G01*
X18142125D01*
G75*
G02*
X18105015Y5963565I0J40240D01*
G01*
X18062584D01*
X17986935Y5887916D01*
G37*
X19065191Y3563500D02*
G36*
X19065191Y3563500D02*
X19127890Y3500801D01*
G75*
G02*
X19145810Y3457797I-42640J-43004D01*
G01*
Y3261875D01*
X20572481D01*
X20423735Y3410621D01*
G75*
G02*
X20405815Y3453625I42640J43004D01*
G01*
Y3563500D01*
X19065191D01*
G37*
X18891810Y4150875D02*
G36*
X18891810Y4150875D02*
Y3893899D01*
G75*
G02*
X18906490Y3849250I-60560J-44649D01*
G01*
G75*
G02*
X18891810Y3804601I-75240J0D01*
G01*
Y3801625D01*
X20405815D01*
Y3912750D01*
G75*
G02*
X20423735Y3955754I60560J0D01*
G01*
X20502746Y4034765D01*
G75*
G02*
X20545750Y4052685I43004J-42640D01*
G01*
X20549765D01*
G75*
G02*
X20586875Y4077365I37110J-15560D01*
G01*
X20595538D01*
G75*
G02*
X20583731Y4107875I62587J41760D01*
G01*
X20540731Y4150875D01*
X18891810D01*
G37*
X18699307Y5103375D02*
G36*
X18699307Y5103375D02*
Y4719399D01*
G75*
G02*
X18713987Y4674750I-60560J-44649D01*
G01*
G75*
G02*
X18712293Y4658875I-75240J1D01*
G01*
X20405815D01*
Y4785875D01*
G75*
G02*
X20423735Y4828879I60560J0D01*
G01*
X20486871Y4892015D01*
G75*
G02*
X20529875Y4909935I43004J-42640D01*
G01*
X20549765D01*
G75*
G02*
X20586875Y4934615I37110J-15560D01*
G01*
X20595538D01*
G75*
G02*
X20583731Y4965125I62587J41760D01*
G01*
X20445481Y5103375D01*
X18699307D01*
G37*
X17986935Y5833625D02*
G36*
X17986935Y5833625D02*
Y5738375D01*
X20492467D01*
G75*
G02*
X20529875Y5751310I37408J-47625D01*
G01*
X20565640D01*
G75*
G02*
X20595930Y5775408I37110J-15560D01*
G01*
G75*
G02*
X20583731Y5806500I62195J42342D01*
G01*
X20556606Y5833625D01*
X18327125D01*
Y5788625D01*
G75*
G02*
X18282125Y5743625I-45000J0D01*
G01*
X18142125D01*
G75*
G02*
X18097125Y5788625I0J45000D01*
G01*
Y5833625D01*
X17986935D01*
G37*
X19145810Y3261875D02*
G36*
X19145810Y3261875D02*
Y3100149D01*
G75*
G02*
X19160490Y3055500I-60560J-44649D01*
G01*
G75*
G02*
X19147304Y3012951I-75240J-1D01*
G01*
G75*
G02*
X19176485Y2989060I-7929J-39451D01*
G01*
X19259875D01*
G75*
G02*
X19302879Y2971140I0J-60560D01*
G01*
X19361394Y2912625D01*
X20405815D01*
Y3055500D01*
G75*
G02*
X20423735Y3098504I60560J0D01*
G01*
X20486871Y3161640D01*
G75*
G02*
X20529875Y3179560I43004J-42640D01*
G01*
X20533890D01*
G75*
G02*
X20571000Y3204240I37110J-15560D01*
G01*
X20597565D01*
Y3217226D01*
G75*
G02*
X20583731Y3250625I60560J44649D01*
G01*
X20572481Y3261875D01*
X19145810D01*
G37*
X20526935Y2738000D02*
G36*
X20526935Y2738000D02*
Y2127365D01*
X21548815D01*
Y2738000D01*
X20526935D01*
G37*
Y2874374D02*
G36*
X20526935Y2874374D02*
Y2738000D01*
X21548815D01*
Y2896750D01*
G75*
G02*
X21550933Y2912625I60560J-1D01*
G01*
X20756000D01*
Y2883500D01*
G75*
G02*
X20711000Y2838500I-45000J0D01*
G01*
X20571000D01*
G75*
G02*
X20526935Y2874374I0J45000D01*
G01*
G37*
Y3658750D02*
G36*
X20526935Y3658750D02*
Y3563500D01*
X21564690D01*
Y3658750D01*
X20526935D01*
G37*
Y4420750D02*
G36*
X20526935Y4420750D02*
Y4335959D01*
X20669375Y4193519D01*
G75*
G02*
X20726338Y4150875I-11250J-74394D01*
G01*
X21564690D01*
Y4420750D01*
X20526935D01*
G37*
Y4547750D02*
G36*
X20526935Y4547750D02*
Y4420750D01*
X21564690D01*
Y4547750D01*
X20526935D01*
G37*
Y5341500D02*
G36*
X20526935Y5341500D02*
Y5193209D01*
X20616769Y5103375D01*
X21564690D01*
Y5341500D01*
X20526935D01*
G37*
Y6198750D02*
G36*
X20526935Y6198750D02*
Y6034584D01*
X20669375Y5892144D01*
G75*
G02*
X20731671Y5833625I-11250J-74394D01*
G01*
X21564690D01*
Y6198750D01*
X20526935D01*
G37*
Y4658875D02*
G36*
X20526935Y4658875D02*
Y4547750D01*
X21564690D01*
Y4653625D01*
G75*
G02*
X21564918Y4658875I60560J0D01*
G01*
X20771875D01*
Y4613875D01*
G75*
G02*
X20726875Y4568875I-45000J0D01*
G01*
X20586875D01*
G75*
G02*
X20541875Y4613875I0J45000D01*
G01*
Y4658875D01*
X20526935D01*
G37*
Y3801625D02*
G36*
X20526935Y3801625D02*
Y3658750D01*
X21564690D01*
Y3780500D01*
G75*
G02*
X21568494Y3801625I60560J0D01*
G01*
X20771875D01*
Y3756625D01*
G75*
G02*
X20726875Y3711625I-45000J0D01*
G01*
X20586875D01*
G75*
G02*
X20541875Y3756625I0J45000D01*
G01*
Y3801625D01*
X20526935D01*
G37*
Y5500250D02*
G36*
X20526935Y5500250D02*
Y5341500D01*
X21564690D01*
Y5479125D01*
G75*
G02*
X21568494Y5500250I60560J0D01*
G01*
X20787750D01*
Y5455250D01*
G75*
G02*
X20742750Y5410250I-45000J0D01*
G01*
X20602750D01*
G75*
G02*
X20557750Y5455250I0J45000D01*
G01*
Y5500250D01*
X20526935D01*
G37*
Y3563500D02*
G36*
X20526935Y3563500D02*
Y3478709D01*
X20669375Y3336269D01*
G75*
G02*
X20733365Y3261875I-11250J-74394D01*
G01*
X21572931D01*
G75*
G02*
X21564690Y3292375I52319J30500D01*
G01*
Y3563500D01*
X20526935D01*
G37*
Y6373375D02*
G36*
X20526935Y6373375D02*
Y6198750D01*
X21564690D01*
Y6341625D01*
G75*
G02*
X21573680Y6373375I60560J0D01*
G01*
X20771875D01*
Y6296625D01*
G75*
G02*
X20726875Y6251625I-45000J0D01*
G01*
X20586875D01*
G75*
G02*
X20541875Y6296625I0J45000D01*
G01*
Y6373375D01*
X20526935D01*
G37*
X20720712Y5775990D02*
G36*
X20720712Y5775990D02*
X20742750D01*
G75*
G02*
X20782904Y5738375I0J-40240D01*
G01*
X21633606D01*
X21582610Y5789371D01*
G75*
G02*
X21564690Y5832375I42640J43004D01*
G01*
Y5833625D01*
X20731671D01*
G75*
G02*
X20733365Y5817750I-73546J-15876D01*
G01*
G75*
G02*
X20720712Y5775990I-75240J0D01*
G01*
G37*
X21685810Y3572874D02*
G36*
X21685810Y3572874D02*
Y3563500D01*
X21688854D01*
G75*
G02*
X21685810Y3572874I41020J18502D01*
G01*
G37*
X20526935Y5595500D02*
G36*
X20526935Y5595500D02*
Y5500250D01*
X20557750D01*
Y5545250D01*
G75*
G02*
X20602750Y5590250I45000J0D01*
G01*
X20742750D01*
G75*
G02*
X20787750Y5545250I0J-45000D01*
G01*
Y5500250D01*
X21568494D01*
G75*
G02*
X21582610Y5522129I56756J-21125D01*
G01*
X21635121Y5574640D01*
G75*
G02*
X21678125Y5592560I43004J-42640D01*
G01*
X21692765D01*
G75*
G02*
X21694140Y5595500I37108J-15564D01*
G01*
X20526935D01*
G37*
Y3030416D02*
G36*
X20526935Y3030416D02*
Y2982626D01*
G75*
G02*
X20571000Y3018500I44065J-9126D01*
G01*
X20711000D01*
G75*
G02*
X20756000Y2973500I0J-45000D01*
G01*
Y2912625D01*
X21550933D01*
G75*
G02*
X21566735Y2939754I58442J-15875D01*
G01*
X21661621Y3034640D01*
G75*
G02*
X21692255Y3051283I43004J-42640D01*
G01*
G75*
G02*
X21729875Y3077240I37620J-14283D01*
G01*
X21736038D01*
G75*
G02*
X21724231Y3107750I62587J41760D01*
G01*
X21582610Y3249371D01*
G75*
G02*
X21572931Y3261875I42640J43004D01*
G01*
X20733365D01*
G75*
G02*
X20718685Y3217226I-75240J0D01*
G01*
Y3203499D01*
G75*
G02*
X20751240Y3164000I-7685J-39499D01*
G01*
Y3074000D01*
G75*
G02*
X20711000Y3033760I-40240J0D01*
G01*
X20571000D01*
G75*
G02*
X20542307Y3045788I1J40240D01*
G01*
X20526935Y3030416D01*
G37*
Y3887666D02*
G36*
X20526935Y3887666D02*
Y3801625D01*
X20541875D01*
Y3846625D01*
G75*
G02*
X20586875Y3891625I45000J0D01*
G01*
X20726875D01*
G75*
G02*
X20771875Y3846625I0J-45000D01*
G01*
Y3801625D01*
X21568494D01*
G75*
G02*
X21582610Y3823504I56756J-21125D01*
G01*
X21619246Y3860140D01*
G75*
G02*
X21662250Y3878060I43004J-42640D01*
G01*
X21692765D01*
G75*
G02*
X21729875Y3902740I37110J-15560D01*
G01*
X21736038D01*
G75*
G02*
X21724231Y3933250I62587J41760D01*
G01*
X21582610Y4074871D01*
G75*
G02*
X21564690Y4117875I42640J43004D01*
G01*
Y4150875D01*
X20726338D01*
G75*
G02*
X20733365Y4119125I-68213J-31750D01*
G01*
G75*
G02*
X20720712Y4077365I-75240J0D01*
G01*
X20726875D01*
G75*
G02*
X20767115Y4037125I0J-40240D01*
G01*
Y3947125D01*
G75*
G02*
X20726875Y3906885I-40240J0D01*
G01*
X20586875D01*
G75*
G02*
X20558182Y3918913I1J40240D01*
G01*
X20526935Y3887666D01*
G37*
Y4760791D02*
G36*
X20526935Y4760791D02*
Y4658875D01*
X20541875D01*
Y4703875D01*
G75*
G02*
X20586875Y4748875I45000J0D01*
G01*
X20726875D01*
G75*
G02*
X20771875Y4703875I0J-45000D01*
G01*
Y4658875D01*
X21564918D01*
G75*
G02*
X21582610Y4696629I60332J-5250D01*
G01*
X21635121Y4749140D01*
G75*
G02*
X21678125Y4767060I43004J-42640D01*
G01*
X21692765D01*
G75*
G02*
X21729875Y4791740I37110J-15560D01*
G01*
X21736038D01*
G75*
G02*
X21724231Y4822250I62587J41760D01*
G01*
X21582610Y4963871D01*
G75*
G02*
X21564690Y5006875I42640J43004D01*
G01*
Y5103375D01*
X20616769D01*
X20669375Y5050769D01*
G75*
G02*
X20733365Y4976375I-11250J-74394D01*
G01*
G75*
G02*
X20720712Y4934615I-75240J0D01*
G01*
X20726875D01*
G75*
G02*
X20767115Y4894375I0J-40240D01*
G01*
Y4804375D01*
G75*
G02*
X20726875Y4764135I-40240J0D01*
G01*
X20586875D01*
G75*
G02*
X20551444Y4785300I0J40240D01*
G01*
X20526935Y4760791D01*
G37*
Y5602166D02*
G36*
X20526935Y5602166D02*
Y5595500D01*
X21694140D01*
G75*
G02*
X21729875Y5617240I35735J-18500D01*
G01*
X21736038D01*
G75*
G02*
X21724231Y5647750I62587J41760D01*
G01*
X21633606Y5738375D01*
X20782904D01*
G75*
G02*
X20782990Y5735750I-40154J-2629D01*
G01*
Y5645750D01*
G75*
G02*
X20742750Y5605510I-40240J0D01*
G01*
X20602750D01*
G75*
G02*
X20565640Y5630190I0J40240D01*
G01*
X20554959D01*
X20526935Y5602166D01*
G37*
X21685810Y4628541D02*
G36*
X21685810Y4628541D02*
Y4570126D01*
G75*
G02*
X21729875Y4606000I44065J-9126D01*
G01*
X21869875D01*
G75*
G02*
X21914875Y4561000I0J-45000D01*
G01*
Y4547750D01*
X22694265D01*
G75*
G02*
X22689760Y4566250I35735J18500D01*
G01*
Y4656250D01*
G75*
G02*
X22689846Y4658875I40240J-4D01*
G01*
X21910029D01*
G75*
G02*
X21869875Y4621260I-40154J2625D01*
G01*
X21729875D01*
G75*
G02*
X21696415Y4639146I0J40240D01*
G01*
X21685810Y4628541D01*
G37*
X21669935Y2738000D02*
G36*
X21669935Y2738000D02*
Y2108370D01*
G75*
G02*
X21684653Y2095615I-60558J-84747D01*
G01*
X22357430D01*
X22999815Y2738000D01*
X21910896D01*
G75*
G02*
X21869875Y2711500I-41021J18500D01*
G01*
X21729875D01*
G75*
G02*
X21688854Y2738000I0J45000D01*
G01*
X21669935D01*
G37*
X22905735Y4547750D02*
G36*
X22905735Y4547750D02*
X23110123D01*
X23107183Y4550690D01*
X22907110D01*
G75*
G02*
X22905735Y4547750I-37108J15564D01*
G01*
G37*
X21669935Y2871666D02*
G36*
X21669935Y2871666D02*
Y2738000D01*
X21688854D01*
G75*
G02*
X21684875Y2756500I41021J18501D01*
G01*
Y2846500D01*
G75*
G02*
X21729875Y2891500I45000J0D01*
G01*
X21869875D01*
G75*
G02*
X21914875Y2846500I0J-45000D01*
G01*
Y2756500D01*
G75*
G02*
X21910896Y2738000I-45000J1D01*
G01*
X22999815D01*
X23174440Y2912625D01*
X21890794D01*
G75*
G02*
X21869875Y2906760I-20919J34375D01*
G01*
X21729875D01*
G75*
G02*
X21710179Y2911910I0J40240D01*
G01*
X21669935Y2871666D01*
G37*
X21685810Y4461874D02*
G36*
X21685810Y4461874D02*
Y4420750D01*
X22685000D01*
Y4465750D01*
G75*
G02*
X22730000Y4510750I45000J0D01*
G01*
X22870000D01*
G75*
G02*
X22915000Y4465750I0J-45000D01*
G01*
Y4420750D01*
X23237123D01*
X23110123Y4547750D01*
X22905735D01*
G75*
G02*
X22870000Y4526010I-35735J18500D01*
G01*
X22730000D01*
G75*
G02*
X22694265Y4547750I0J40240D01*
G01*
X21914875D01*
Y4471000D01*
G75*
G02*
X21869875Y4426000I-45000J0D01*
G01*
X21729875D01*
G75*
G02*
X21685810Y4461874I0J45000D01*
G01*
G37*
Y4420750D02*
G36*
X21685810Y4420750D02*
Y4150875D01*
X23249221D01*
G75*
G02*
X23247527Y4166750I73546J15876D01*
G01*
G75*
G02*
X23262207Y4211399I75240J0D01*
G01*
Y4395666D01*
X23237123Y4420750D01*
X22915000D01*
Y4375750D01*
G75*
G02*
X22870000Y4330750I-45000J0D01*
G01*
X22730000D01*
G75*
G02*
X22685000Y4375750I0J45000D01*
G01*
Y4420750D01*
X21685810D01*
G37*
X23169675Y4658875D02*
G36*
X23169675Y4658875D02*
G75*
G02*
X23175271Y4653890I-37407J-47626D01*
G01*
X23262207Y4566954D01*
Y4658875D01*
X23169675D01*
G37*
X21685810Y4150875D02*
G36*
X21685810Y4150875D02*
Y4142959D01*
X21809875Y4018894D01*
G75*
G02*
X21873865Y3944500I-11250J-74394D01*
G01*
G75*
G02*
X21861212Y3902740I-75240J0D01*
G01*
X21869875D01*
G75*
G02*
X21910115Y3862500I0J-40240D01*
G01*
Y3801625D01*
X23212854D01*
G75*
G02*
X23208875Y3820125I41021J18501D01*
G01*
Y3910125D01*
G75*
G02*
X23253875Y3955125I45000J0D01*
G01*
X23393875D01*
G75*
G02*
X23438875Y3910125I0J-45000D01*
G01*
Y3820125D01*
G75*
G02*
X23434896Y3801625I-45000J1D01*
G01*
X23603356D01*
X23422568Y3982413D01*
G75*
G02*
X23393875Y3970385I-28694J28212D01*
G01*
X23253875D01*
G75*
G02*
X23213635Y4010625I0J40240D01*
G01*
Y4100625D01*
G75*
G02*
X23252134Y4140827I40240J0D01*
G01*
G75*
G02*
X23249221Y4150875I70633J25923D01*
G01*
X21685810D01*
G37*
X21741394Y3261875D02*
G36*
X21741394Y3261875D02*
X21809875Y3193394D01*
G75*
G02*
X21873865Y3119000I-11250J-74394D01*
G01*
G75*
G02*
X21861212Y3077240I-75240J0D01*
G01*
X21869875D01*
G75*
G02*
X21910115Y3037000I0J-40240D01*
G01*
Y2947000D01*
G75*
G02*
X21890794Y2912625I-40240J0D01*
G01*
X23174440D01*
X23495220Y3233405D01*
G75*
G02*
X23546404Y3254490I50905J-50905D01*
G01*
X23605029D01*
G75*
G02*
X23613956Y3261875I29846J-26990D01*
G01*
X21741394D01*
G37*
X21685810Y3563500D02*
G36*
X21685810Y3563500D02*
Y3317459D01*
X21741394Y3261875D01*
X23613956D01*
G75*
G02*
X23633134Y3267702I20919J-34375D01*
G01*
G75*
G02*
X23628527Y3293625I70633J25924D01*
G01*
G75*
G02*
X23643207Y3338274I75240J0D01*
G01*
Y3563500D01*
X21910896D01*
G75*
G02*
X21869875Y3537000I-41021J18500D01*
G01*
X21729875D01*
G75*
G02*
X21688854Y3563500I0J45000D01*
G01*
X21685810D01*
G37*
X21910896D02*
G36*
X21910896Y3563500D02*
X23643207D01*
Y3658750D01*
X21914875D01*
Y3582000D01*
G75*
G02*
X21910896Y3563500I-45000J1D01*
G01*
G37*
X21685810Y3755416D02*
G36*
X21685810Y3755416D02*
Y3681126D01*
G75*
G02*
X21729875Y3717000I44065J-9126D01*
G01*
X21869875D01*
G75*
G02*
X21914875Y3672000I0J-45000D01*
G01*
Y3658750D01*
X23643207D01*
Y3761774D01*
X23603356Y3801625D01*
X23434896D01*
G75*
G02*
X23393875Y3775125I-41021J18500D01*
G01*
X23253875D01*
G75*
G02*
X23212854Y3801625I0J45000D01*
G01*
X21910115D01*
Y3772500D01*
G75*
G02*
X21869875Y3732260I-40240J0D01*
G01*
X21729875D01*
G75*
G02*
X21692765Y3756940I0J40240D01*
G01*
X21687334D01*
X21685810Y3755416D01*
G37*
Y5103375D02*
G36*
X21685810Y5103375D02*
Y5031959D01*
X21809875Y4907894D01*
G75*
G02*
X21873865Y4833500I-11250J-74394D01*
G01*
G75*
G02*
X21861212Y4791740I-75240J0D01*
G01*
X21869875D01*
G75*
G02*
X21910115Y4751500I0J-40240D01*
G01*
Y4661500D01*
G75*
G02*
X21910029Y4658875I-40240J4D01*
G01*
X22689846D01*
G75*
G02*
X22728912Y4696475I40154J-2625D01*
G01*
G75*
G02*
X22724760Y4721124I71088J24649D01*
G01*
Y4721125D01*
G75*
G02*
X22875240I75240J0D01*
G01*
Y4721124D01*
G75*
G02*
X22871088Y4696475I-75240J0D01*
G01*
G75*
G02*
X22907110Y4671810I-1088J-40225D01*
G01*
X23132267D01*
G75*
G02*
X23169675Y4658875I0J-60560D01*
G01*
X23262207D01*
Y4689517D01*
G75*
G02*
X23280127Y4732521I60560J0D01*
G01*
X23503121Y4955515D01*
G75*
G02*
X23546125Y4973435I43004J-42640D01*
G01*
X23613640D01*
G75*
G02*
X23650105Y4998110I37110J-15560D01*
G01*
G75*
G02*
X23645510Y5024000I70645J25891D01*
G01*
G75*
G02*
X23660190Y5068649I75240J0D01*
G01*
Y5103375D01*
X21685810D01*
G37*
Y5287374D02*
G36*
X21685810Y5287374D02*
Y5103375D01*
X23660190D01*
Y5341500D01*
X21914875D01*
Y5296500D01*
G75*
G02*
X21869875Y5251500I-45000J0D01*
G01*
X21729875D01*
G75*
G02*
X21685810Y5287374I0J45000D01*
G01*
G37*
Y5454041D02*
G36*
X21685810Y5454041D02*
Y5395626D01*
G75*
G02*
X21729875Y5431500I44065J-9126D01*
G01*
X21869875D01*
G75*
G02*
X21914875Y5386500I0J-45000D01*
G01*
Y5341500D01*
X23660190D01*
Y5468500D01*
G75*
G02*
X23669180Y5500250I60560J0D01*
G01*
X21910115D01*
Y5487000D01*
G75*
G02*
X21869875Y5446760I-40240J0D01*
G01*
X21729875D01*
G75*
G02*
X21696415Y5464646I0J40240D01*
G01*
X21685810Y5454041D01*
G37*
X21905610Y5595500D02*
G36*
X21905610Y5595500D02*
G75*
G02*
X21910115Y5577000I-35735J-18500D01*
G01*
Y5500250D01*
X23669180D01*
G75*
G02*
X23678110Y5511504I51570J-31750D01*
G01*
X23709496Y5542890D01*
G75*
G02*
X23752500Y5560810I43004J-42640D01*
G01*
X23756515D01*
G75*
G02*
X23792537Y5585475I37110J-15560D01*
G01*
G75*
G02*
X23789820Y5595500I71088J24647D01*
G01*
X21905610D01*
G37*
X21804894Y5738375D02*
G36*
X21804894Y5738375D02*
X21809875Y5733394D01*
G75*
G02*
X21873865Y5659000I-11250J-74394D01*
G01*
G75*
G02*
X21861212Y5617240I-75240J0D01*
G01*
X21869875D01*
G75*
G02*
X21905610Y5595500I0J-40240D01*
G01*
X23789820D01*
G75*
G02*
X23788385Y5610124I73805J14625D01*
G01*
G75*
G02*
X23803065Y5654774I75240J1D01*
G01*
Y5738375D01*
X21804894D01*
G37*
X21709644Y5833625D02*
G36*
X21709644Y5833625D02*
X21804894Y5738375D01*
X23803065D01*
Y5833625D01*
X21709644D01*
G37*
X21685810Y6144624D02*
G36*
X21685810Y6144624D02*
Y5857459D01*
X21709644Y5833625D01*
X23803065D01*
Y6198750D01*
X21914875D01*
Y6153750D01*
G75*
G02*
X21869875Y6108750I-45000J0D01*
G01*
X21729875D01*
G75*
G02*
X21685810Y6144624I0J45000D01*
G01*
G37*
Y6316541D02*
G36*
X21685810Y6316541D02*
Y6252876D01*
G75*
G02*
X21729875Y6288750I44065J-9126D01*
G01*
X21869875D01*
G75*
G02*
X21914875Y6243750I0J-45000D01*
G01*
Y6198750D01*
X23803065D01*
Y6300666D01*
X23730356Y6373375D01*
X23661048D01*
G75*
G02*
X23661125Y6370750I-44923J-2631D01*
G01*
Y6280750D01*
G75*
G02*
X23616125Y6235750I-45000J0D01*
G01*
X23476125D01*
G75*
G02*
X23431125Y6280750I0J45000D01*
G01*
Y6370750D01*
G75*
G02*
X23431202Y6373375I45000J-6D01*
G01*
X22803798D01*
G75*
G02*
X22758875Y6331000I-44923J2625D01*
G01*
X22618875D01*
G75*
G02*
X22573952Y6373375I0J45000D01*
G01*
X21910115D01*
Y6344250D01*
G75*
G02*
X21869875Y6304010I-40240J0D01*
G01*
X21729875D01*
G75*
G02*
X21694444Y6325175I0J40240D01*
G01*
X21685810Y6316541D01*
G37*
X1385800Y1250500D02*
G36*
X1385800Y1250500D02*
Y941300D01*
X2002036D01*
G75*
G02*
X2000188Y959188I85652J17888D01*
G01*
Y1009188D01*
G75*
G02*
X2175188I87500J0D01*
G01*
Y959188D01*
G75*
G02*
X2173340Y941300I-87500J0D01*
G01*
X2866036D01*
G75*
G02*
X2864188Y959188I85652J17888D01*
G01*
Y1009188D01*
G75*
G02*
X3039188I87500J0D01*
G01*
Y959188D01*
G75*
G02*
X3037340Y941300I-87500J0D01*
G01*
X31204200D01*
Y1250500D01*
X31090240D01*
G75*
G02*
X30699760I-195240J0D01*
G01*
X2989956D01*
G75*
G02*
X2913420I-38268J78688D01*
G01*
X2705332D01*
X2673817Y1218985D01*
G75*
G02*
X2630813Y1201065I-43004J42640D01*
G01*
X2408563D01*
G75*
G02*
X2365559Y1218985I0J60560D01*
G01*
X2334044Y1250500D01*
X2125956D01*
G75*
G02*
X2049420I-38268J78688D01*
G01*
X1890240D01*
G75*
G02*
X1499760I-195240J0D01*
G01*
X1385800D01*
G37*
X2253121Y1891939D02*
G36*
X2253121Y1891939D02*
X2276905Y1868155D01*
G75*
G02*
X2297991Y1817250I-50905J-50906D01*
G01*
X2297990Y1816971D01*
Y1720071D01*
X2306260Y1711801D01*
Y1735250D01*
G75*
G02*
X2346500Y1775490I40240J0D01*
G01*
X2486500D01*
G75*
G02*
X2503813Y1771575I0J-40240D01*
G01*
G75*
G02*
X2521125Y1775490I17313J-36325D01*
G01*
X2661125D01*
G75*
G02*
X2694313Y1758006I0J-40240D01*
G01*
G75*
G02*
X2727500Y1775490I33188J-22756D01*
G01*
X2867500D01*
G75*
G02*
X2905446Y1748642I0J-40240D01*
G01*
G75*
G02*
X2937688Y1762250I32242J-31392D01*
G01*
X3117688D01*
G75*
G02*
X3162688Y1717250I0J-45000D01*
G01*
Y1617250D01*
G75*
G02*
X3117688Y1572250I-45000J0D01*
G01*
X2937688D01*
G75*
G02*
X2892808Y1613965I0J45000D01*
G01*
G75*
G02*
X2867500Y1605010I-25308J31285D01*
G01*
X2814070D01*
X2808248Y1599188D01*
X2824688D01*
G75*
G02*
X2869688Y1554188I0J-45000D01*
G01*
Y1409721D01*
G75*
G02*
X3039188Y1379188I82000J-30533D01*
G01*
Y1329188D01*
G75*
G02*
X2989956Y1250500I-87500J0D01*
G01*
X30699760D01*
G75*
G02*
X31090240I195240J0D01*
G01*
X31204200D01*
Y1891939D01*
X3148971D01*
G75*
G02*
X3117688Y1877010I-31283J25311D01*
G01*
X3084158D01*
X3014737Y1807589D01*
G75*
G02*
X2941188Y1777010I-73549J73161D01*
G01*
X2797500D01*
G75*
G02*
X2738372Y1795510I0J103740D01*
G01*
X2727500D01*
G75*
G02*
X2697369Y1809078I0J40240D01*
G01*
G75*
G02*
X2661125Y1790750I-36244J26672D01*
G01*
X2521125D01*
G75*
G02*
X2503813Y1794214I2J45000D01*
G01*
G75*
G02*
X2486500Y1790750I-17314J41536D01*
G01*
X2346500D01*
G75*
G02*
X2301500Y1835750I0J45000D01*
G01*
Y1891939D01*
X2253121D01*
G37*
X3148971D02*
G36*
X3148971Y1891939D02*
X31204200D01*
Y2738000D01*
X23203435D01*
X22438155Y1972720D01*
G75*
G02*
X22386971Y1951635I-50905J50905D01*
G01*
X21684653D01*
G75*
G02*
X21600031Y1919885I-75278J71990D01*
G01*
X20475719D01*
G75*
G02*
X20457031I-9344J103740D01*
G01*
X19412094D01*
G75*
G02*
X19393406I-9344J103740D01*
G01*
X16872094D01*
G75*
G02*
X16853406I-9344J103740D01*
G01*
X14062219D01*
G75*
G02*
X14043531I-9344J103740D01*
G01*
X12712844D01*
G75*
G02*
X12694156I-9344J103740D01*
G01*
X10975162D01*
G75*
G02*
X10971088I-2037J103740D01*
G01*
X9863282D01*
G75*
G02*
X9844594I-9344J103740D01*
G01*
X9537844D01*
G75*
G02*
X9519156I-9344J103740D01*
G01*
X3157928D01*
Y1917250D01*
G75*
G02*
X3148971Y1891939I-40240J0D01*
G01*
G37*
X23203435Y2738000D02*
G36*
X23203435Y2738000D02*
X31204200D01*
Y2912625D01*
X23803916D01*
G75*
G02*
X23774875Y2902000I-29041J34375D01*
G01*
X23634875D01*
G75*
G02*
X23605834Y2912625I0J45000D01*
G01*
X23378060D01*
X23203435Y2738000D01*
G37*
X23378060Y2912625D02*
G36*
X23378060Y2912625D02*
X23605834D01*
G75*
G02*
X23589875Y2947000I29041J34375D01*
G01*
Y3037000D01*
G75*
G02*
X23634875Y3082000I45000J0D01*
G01*
X23774875D01*
G75*
G02*
X23819875Y3037000I0J-45000D01*
G01*
Y2947000D01*
G75*
G02*
X23803916Y2912625I-45000J0D01*
G01*
X31204200D01*
Y3261875D01*
X23795794D01*
G75*
G02*
X23815115Y3227500I-20919J-34375D01*
G01*
Y3137500D01*
G75*
G02*
X23774875Y3097260I-40240J0D01*
G01*
X23634875D01*
G75*
G02*
X23605029Y3110510I0J40240D01*
G01*
X23575945D01*
X23378060Y2912625D01*
G37*
X23764327Y3563500D02*
G36*
X23764327Y3563500D02*
Y3338274D01*
G75*
G02*
X23779007Y3293625I-60560J-44649D01*
G01*
G75*
G02*
X23774414Y3267740I-75240J0D01*
G01*
X23774875D01*
G75*
G02*
X23795794Y3261875I0J-40240D01*
G01*
X31204200D01*
Y3563500D01*
X23764327D01*
G37*
Y3658750D02*
G36*
X23764327Y3658750D02*
Y3563500D01*
X31204200D01*
Y3658750D01*
X23764327D01*
G37*
X23762499Y3801625D02*
G36*
X23762499Y3801625D02*
G75*
G02*
X23764327Y3786858I-58732J-14767D01*
G01*
Y3658750D01*
X31204200D01*
Y3801625D01*
X23762499D01*
G37*
X23393414Y4140865D02*
G36*
X23393414Y4140865D02*
X23393875D01*
G75*
G02*
X23430985Y4116185I0J-40240D01*
G01*
X23435000D01*
G75*
G02*
X23478004Y4098265I0J-60560D01*
G01*
X23746407Y3829862D01*
G75*
G02*
X23762499Y3801625I-42640J-43004D01*
G01*
X31204200D01*
Y4150875D01*
X23396313D01*
G75*
G02*
X23393414Y4140865I-73546J15875D01*
G01*
G37*
X23383327Y4413605D02*
G36*
X23383327Y4413605D02*
Y4211399D01*
G75*
G02*
X23398007Y4166750I-60560J-44649D01*
G01*
G75*
G02*
X23396313Y4150875I-75240J1D01*
G01*
X31204200D01*
Y4420750D01*
X23383747D01*
G75*
G02*
X23383327Y4413605I-60980J0D01*
G01*
G37*
Y4547750D02*
G36*
X23383327Y4547750D02*
Y4427895D01*
G75*
G02*
X23383747Y4420750I-60560J-7145D01*
G01*
X31204200D01*
Y4547750D01*
X23383327D01*
G37*
Y4658875D02*
G36*
X23383327Y4658875D02*
Y4547750D01*
X31204200D01*
Y4658875D01*
X23831771D01*
G75*
G02*
X23790750Y4632375I-41021J18500D01*
G01*
X23650750D01*
G75*
G02*
X23609729Y4658875I0J45000D01*
G01*
X23383327D01*
G37*
Y4664433D02*
G36*
X23383327Y4664433D02*
Y4658875D01*
X23609729D01*
G75*
G02*
X23605750Y4677375I41021J18501D01*
G01*
Y4767375D01*
G75*
G02*
X23650750Y4812375I45000J0D01*
G01*
X23790750D01*
G75*
G02*
X23835750Y4767375I0J-45000D01*
G01*
Y4677375D01*
G75*
G02*
X23831771Y4658875I-45000J1D01*
G01*
X31204200D01*
Y5103375D01*
X23781310D01*
Y5068649D01*
G75*
G02*
X23795990Y5024000I-60560J-44649D01*
G01*
G75*
G02*
X23791395Y4998110I-75240J1D01*
G01*
G75*
G02*
X23830990Y4957875I-645J-40235D01*
G01*
Y4867875D01*
G75*
G02*
X23790750Y4827635I-40240J0D01*
G01*
X23650750D01*
G75*
G02*
X23613640Y4852315I0J40240D01*
G01*
X23571209D01*
X23383327Y4664433D01*
G37*
X23781310Y5221468D02*
G36*
X23781310Y5221468D02*
Y5103375D01*
X31204200D01*
Y5341500D01*
X23978625D01*
Y5264750D01*
G75*
G02*
X23933625Y5219750I-45000J0D01*
G01*
X23793625D01*
G75*
G02*
X23781310Y5221468I0J45000D01*
G01*
G37*
Y5416941D02*
G36*
X23781310Y5416941D02*
Y5398032D01*
G75*
G02*
X23793625Y5399750I12315J-43282D01*
G01*
X23933625D01*
G75*
G02*
X23978625Y5354750I0J-45000D01*
G01*
Y5341500D01*
X31204200D01*
Y5500250D01*
X23973865D01*
Y5455250D01*
G75*
G02*
X23933625Y5415010I-40240J0D01*
G01*
X23793625D01*
G75*
G02*
X23781310Y5416941I1J40240D01*
G01*
G37*
X23934713Y5585475D02*
G36*
X23934713Y5585475D02*
G75*
G02*
X23973865Y5545250I-1088J-40225D01*
G01*
Y5500250D01*
X31204200D01*
Y5595500D01*
X23937430D01*
G75*
G02*
X23934713Y5585475I-73805J14622D01*
G01*
G37*
X23924185Y5738375D02*
G36*
X23924185Y5738375D02*
Y5654774D01*
G75*
G02*
X23938865Y5610124I-60560J-44649D01*
G01*
G75*
G02*
X23937430Y5595500I-75240J1D01*
G01*
X31204200D01*
Y5738375D01*
X23924185D01*
G37*
Y5833625D02*
G36*
X23924185Y5833625D02*
Y5738375D01*
X31204200D01*
Y5833625D01*
X23924185D01*
G37*
Y6198750D02*
G36*
X23924185Y6198750D02*
Y5833625D01*
X31204200D01*
Y6198750D01*
X23924185D01*
G37*
X23901644Y6373375D02*
G36*
X23901644Y6373375D02*
X23906265Y6368754D01*
G75*
G02*
X23924185Y6325750I-42640J-43004D01*
G01*
Y6198750D01*
X31204200D01*
Y6373375D01*
X23901644D01*
G37*
X2080185Y7663541D02*
G36*
X2080185Y7663541D02*
Y7640423D01*
G75*
G02*
X2214489Y7611625I64065J-28798D01*
G01*
G75*
G02*
X2209886Y7586615I-70239J-1D01*
G01*
G75*
G02*
X2224445Y7585140I238J-70240D01*
G01*
G75*
G02*
X2219260Y7611625I65055J26486D01*
G01*
G75*
G02*
X2359740I70240J0D01*
G01*
G75*
G02*
X2339900Y7562702I-70240J0D01*
G01*
Y7473751D01*
X2364712Y7448939D01*
G75*
G02*
X2371302Y7440875I-35522J-35754D01*
G01*
X2371500D01*
X2461500D01*
G75*
G02*
X2506500Y7395875I0J-45000D01*
G01*
Y7255875D01*
G75*
G02*
X2461500Y7210875I-45000J0D01*
G01*
X2379588D01*
Y7183000D01*
G75*
G02*
X2364712Y7147248I-50400J0D01*
G01*
X2339900Y7122436D01*
Y6506895D01*
G75*
G02*
X2340320Y6500375I-50400J-6520D01*
G01*
G75*
G02*
X2339900Y6493855I-50820J0D01*
G01*
Y6381312D01*
G75*
G02*
X2339271Y6373375I-50400J1D01*
G01*
X10053260D01*
Y6434250D01*
G75*
G02*
X10093500Y6474490I40240J0D01*
G01*
X10100913D01*
G75*
G02*
X10088260Y6516250I62587J41760D01*
G01*
G75*
G02*
X10238740I75240J0D01*
G01*
G75*
G02*
X10226087Y6474490I-75240J0D01*
G01*
X10233500D01*
G75*
G02*
X10270610Y6449810I0J-40240D01*
G01*
X10528625D01*
G75*
G02*
X10571629Y6431890I0J-60560D01*
G01*
X10630144Y6373375D01*
X12293690D01*
Y6452750D01*
G75*
G02*
X12311610Y6495754I60560J0D01*
G01*
X12422371Y6606515D01*
G75*
G02*
X12453005Y6623158I43004J-42640D01*
G01*
G75*
G02*
X12490625Y6649115I37620J-14283D01*
G01*
X12491228D01*
G75*
G02*
X12486635Y6675000I70647J25885D01*
G01*
G75*
G02*
X12637115I75240J0D01*
G01*
G75*
G02*
X12632506Y6649071I-75240J0D01*
G01*
G75*
G02*
X12670865Y6608875I-1881J-40196D01*
G01*
Y6518875D01*
G75*
G02*
X12630625Y6478635I-40240J0D01*
G01*
X12490625D01*
G75*
G02*
X12470929Y6483785I0J40240D01*
G01*
X12414810Y6427666D01*
Y6373375D01*
X12445625D01*
Y6418375D01*
G75*
G02*
X12490625Y6463375I45000J0D01*
G01*
X12630625D01*
G75*
G02*
X12675625Y6418375I0J-45000D01*
G01*
Y6373375D01*
X14341565D01*
Y6484500D01*
G75*
G02*
X14359485Y6527504I60560J0D01*
G01*
X14422621Y6590640D01*
G75*
G02*
X14465625Y6608560I43004J-42640D01*
G01*
X14469640D01*
G75*
G02*
X14506750Y6633240I37110J-15560D01*
G01*
X14515413D01*
G75*
G02*
X14502760Y6675000I62587J41760D01*
G01*
G75*
G02*
X14653240I75240J0D01*
G01*
G75*
G02*
X14640587Y6633240I-75240J0D01*
G01*
X14646750D01*
G75*
G02*
X14686990Y6593000I0J-40240D01*
G01*
Y6503000D01*
G75*
G02*
X14646750Y6462760I-40240J0D01*
G01*
X14506750D01*
G75*
G02*
X14478057Y6474788I1J40240D01*
G01*
X14462685Y6459416D01*
Y6411626D01*
G75*
G02*
X14506750Y6447500I44065J-9126D01*
G01*
X14646750D01*
G75*
G02*
X14691750Y6402500I0J-45000D01*
G01*
Y6373375D01*
X20405815D01*
Y6484500D01*
G75*
G02*
X20423735Y6527504I60560J0D01*
G01*
X20470996Y6574765D01*
G75*
G02*
X20514000Y6592685I43004J-42640D01*
G01*
X20549765D01*
G75*
G02*
X20586875Y6617365I37110J-15560D01*
G01*
X20587478D01*
G75*
G02*
X20582885Y6643250I70647J25885D01*
G01*
G75*
G02*
X20733365I75240J0D01*
G01*
G75*
G02*
X20728756Y6617321I-75240J0D01*
G01*
G75*
G02*
X20767115Y6577125I-1881J-40196D01*
G01*
Y6487125D01*
G75*
G02*
X20726875Y6446885I-40240J0D01*
G01*
X20586875D01*
G75*
G02*
X20549765Y6471565I0J40240D01*
G01*
X20539084D01*
X20526935Y6459416D01*
Y6373375D01*
X20541875D01*
Y6386625D01*
G75*
G02*
X20586875Y6431625I45000J0D01*
G01*
X20726875D01*
G75*
G02*
X20771875Y6386625I0J-45000D01*
G01*
Y6373375D01*
X21573680D01*
G75*
G02*
X21582610Y6384629I51570J-31750D01*
G01*
X21629871Y6431890D01*
G75*
G02*
X21672875Y6449810I43004J-42640D01*
G01*
X21692765D01*
G75*
G02*
X21727994Y6474446I37110J-15560D01*
G01*
G75*
G02*
X21723385Y6500375I70631J25929D01*
G01*
G75*
G02*
X21873865I75240J0D01*
G01*
G75*
G02*
X21869272Y6474490I-75240J0D01*
G01*
X21869875D01*
G75*
G02*
X21910115Y6434250I0J-40240D01*
G01*
Y6373375D01*
X22573952D01*
G75*
G02*
X22573875Y6376000I44923J2631D01*
G01*
Y6466000D01*
G75*
G02*
X22618875Y6511000I45000J0D01*
G01*
X22758875D01*
G75*
G02*
X22803875Y6466000I0J-45000D01*
G01*
Y6376000D01*
G75*
G02*
X22803798Y6373375I-45000J6D01*
G01*
X23431202D01*
G75*
G02*
X23476125Y6415750I44923J-2625D01*
G01*
X23616125D01*
G75*
G02*
X23661048Y6373375I0J-45000D01*
G01*
X23730356D01*
X23651556Y6452175D01*
G75*
G02*
X23616125Y6431010I-35431J19075D01*
G01*
X23476125D01*
G75*
G02*
X23435885Y6471250I0J40240D01*
G01*
Y6550940D01*
X22795985D01*
G75*
G02*
X22758875Y6526260I-37110J15560D01*
G01*
X22618875D01*
G75*
G02*
X22578635Y6566500I0J40240D01*
G01*
Y6656500D01*
G75*
G02*
X22618875Y6696740I40240J0D01*
G01*
X22619349D01*
G75*
G02*
X22613635Y6725500I69526J28761D01*
G01*
G75*
G02*
X22764115I75240J0D01*
G01*
G75*
G02*
X22758401Y6696740I-75240J1D01*
G01*
X22758875D01*
G75*
G02*
X22795985Y6672060I0J-40240D01*
G01*
X23485591D01*
G75*
G02*
X23621365Y6627375I60534J-44685D01*
G01*
G75*
G02*
X23616770Y6601485I-75240J1D01*
G01*
G75*
G02*
X23653235Y6576810I-645J-40235D01*
G01*
X23673125D01*
G75*
G02*
X23716129Y6558890I0J-60560D01*
G01*
X23901644Y6373375D01*
X31204200D01*
Y8214875D01*
X2633500D01*
Y8144875D01*
G75*
G02*
X2588500Y8099875I-45000J0D01*
G01*
X2498500D01*
G75*
G02*
X2453500Y8144875I0J45000D01*
G01*
Y8214875D01*
X2438240D01*
Y8144875D01*
G75*
G02*
X2413560Y8107765I-40240J0D01*
G01*
Y8022000D01*
G75*
G02*
X2395640Y7978996I-60560J0D01*
G01*
X2080185Y7663541D01*
G37*
X1385800Y8450500D02*
G36*
X1385800Y8450500D02*
Y8214875D01*
X2169010D01*
G75*
G02*
X2267787Y8286339I75240J0D01*
G01*
G75*
G02*
X2308000Y8325115I40213J-1464D01*
G01*
X2398000D01*
G75*
G02*
X2438240Y8284875I0J-40240D01*
G01*
Y8214875D01*
X2453500D01*
Y8284875D01*
G75*
G02*
X2498500Y8329875I45000J0D01*
G01*
X2588500D01*
G75*
G02*
X2633500Y8284875I0J-45000D01*
G01*
Y8214875D01*
X31204200D01*
Y8450500D01*
X31090240D01*
G75*
G02*
X30699760I-195240J0D01*
G01*
X1890240D01*
G75*
G02*
X1499760I-195240J0D01*
G01*
X1385800D01*
G37*
Y8759700D02*
G36*
X1385800Y8759700D02*
Y8450500D01*
X1499760D01*
G75*
G02*
X1890240I195240J0D01*
G01*
X30699760D01*
G75*
G02*
X31090240I195240J0D01*
G01*
X31204200D01*
Y8759700D01*
X1385800D01*
G37*
D02*
D15*
X1432625Y1603813D02*
Y1543813D01*
Y1658813D02*
Y1718813D01*
Y2467813D02*
Y2407813D01*
Y2522813D02*
Y2582813D01*
X1485125Y1631313D02*
X1545125D01*
X1485125Y2495313D02*
X1545125D01*
X1750125Y1631313D02*
X1690125D01*
X1750125Y2495313D02*
X1690125D01*
X1802625Y1603813D02*
Y1543813D01*
Y2522813D02*
Y2582813D01*
X1817625Y1793313D02*
X1757625D01*
X1817625Y2333313D02*
X1757625D01*
X1855125Y1631313D02*
X1915125D01*
X1855125Y2495313D02*
X1915125D01*
X1902625Y1773313D02*
Y1713313D01*
Y2353313D02*
Y2413313D01*
X1924938Y3563500D02*
X1864938D01*
X1924938Y5595500D02*
X1864938D01*
X1979938Y3398500D02*
Y3338500D01*
Y3728500D02*
Y3788500D01*
Y5430500D02*
Y5370500D01*
Y5760500D02*
Y5820500D01*
X1987625Y1793313D02*
X2047625D01*
X1987625Y2333313D02*
X2047625D01*
X2034938Y3563500D02*
X2094938D01*
X2034938Y5595500D02*
X2094938D01*
X2060188Y984188D02*
X2000188D01*
X2060188Y1354188D02*
X2000188D01*
X2087688Y1036688D02*
Y1096688D01*
Y1301688D02*
Y1241688D01*
Y1406688D02*
Y1466688D01*
X2115188Y984188D02*
X2175188D01*
X2229688Y1454188D02*
X2169688D01*
X2249688Y1369188D02*
Y1309188D01*
X2291250Y2031563D02*
X2231250D01*
X2291250Y2206188D02*
X2231250D01*
X2321250Y2261188D02*
Y2321188D01*
X2351250Y2031563D02*
X2411250D01*
X2351250Y2206188D02*
X2411250D01*
X2361500Y1880750D02*
X2301500D01*
X2416500Y1850750D02*
Y1790750D01*
Y1910750D02*
Y1970750D01*
Y7270875D02*
Y7210875D01*
Y7380875D02*
Y7440875D01*
X2446500Y7325875D02*
X2506500D01*
X2513500Y8214875D02*
X2453500D01*
X2543500Y8159875D02*
Y8099875D01*
Y8269875D02*
Y8329875D01*
X2573500Y8214875D02*
X2633500D01*
X2591125Y1850750D02*
Y1790750D01*
Y1910750D02*
Y1970750D01*
X2789688Y1369188D02*
Y1309188D01*
X2809688Y1454188D02*
X2869688D01*
X2924188Y984188D02*
X2864188D01*
X2951688Y1036688D02*
Y1096688D01*
Y1301688D02*
Y1241688D01*
Y1406688D02*
Y1466688D01*
X2979188Y984188D02*
X3039188D01*
X2979188Y1354188D02*
X3039188D01*
X3027688Y1632250D02*
Y1572250D01*
Y1702250D02*
Y1762250D01*
X3102688Y1667250D02*
X3162688D01*
X3194938Y3563500D02*
X3134938D01*
X3194938Y5595500D02*
X3134938D01*
X3249938Y3398500D02*
Y3338500D01*
Y3728500D02*
Y3788500D01*
Y5430500D02*
Y5370500D01*
Y5760500D02*
Y5820500D01*
X3304938Y3563500D02*
X3364938D01*
X3304938Y5595500D02*
X3364938D01*
X4464938Y3563500D02*
X4404938D01*
X4464938Y5595500D02*
X4404938D01*
X4519938Y3398500D02*
Y3338500D01*
Y3728500D02*
Y3788500D01*
Y5430500D02*
Y5370500D01*
Y5760500D02*
Y5820500D01*
X4574938Y3563500D02*
X4634938D01*
X4574938Y5595500D02*
X4634938D01*
X5734938Y3563500D02*
X5674938D01*
X5734938Y5595500D02*
X5674938D01*
X5789938Y3398500D02*
Y3338500D01*
Y3728500D02*
Y3788500D01*
Y5430500D02*
Y5370500D01*
Y5760500D02*
Y5820500D01*
X5844938Y3563500D02*
X5904938D01*
X5844938Y5595500D02*
X5904938D01*
X9156000Y5103375D02*
X9096000D01*
X9171875Y4150875D02*
X9111875D01*
X9211000Y5073375D02*
Y5013375D01*
Y5133375D02*
Y5193375D01*
X9226875Y4120875D02*
Y4060875D01*
Y4180875D02*
Y4240875D01*
X9235375Y3261875D02*
X9175375D01*
X9266000Y5103375D02*
X9326000D01*
X9281875Y4150875D02*
X9341875D01*
X9290375Y3231875D02*
Y3171875D01*
Y3291875D02*
Y3351875D01*
X9345375Y3261875D02*
X9405375D01*
X9385625Y5803625D02*
Y5743625D01*
Y5863625D02*
Y5923625D01*
X9440625Y5833625D02*
X9500625D01*
X9981500Y2801500D02*
X9921500D01*
X10036500Y2771500D02*
Y2711500D01*
Y2831500D02*
Y2891500D01*
X10091500Y2801500D02*
X10151500D01*
X10108500Y6198750D02*
X10048500D01*
X10163500Y6168750D02*
Y6108750D01*
Y6228750D02*
Y6288750D01*
X10218500Y6198750D02*
X10278500D01*
X10743500Y3166625D02*
X10683500D01*
X10798500Y3136625D02*
Y3076625D01*
Y3196625D02*
Y3256625D01*
X10807000Y5738375D02*
X10747000D01*
X10862000Y5708375D02*
Y5648375D01*
Y5768375D02*
Y5828375D01*
X10917000Y5738375D02*
X10977000D01*
X10957250Y3962125D02*
Y3902125D01*
Y4022125D02*
Y4082125D01*
Y4882875D02*
Y4822875D01*
Y4942875D02*
Y5002875D01*
X11012250Y3992125D02*
X11072250D01*
X11012250Y4912875D02*
X11072250D01*
X12378625Y2912625D02*
X12318625D01*
X12394500Y3769875D02*
X12334500D01*
X12394500Y5500250D02*
X12334500D01*
X12410375Y4690625D02*
X12350375D01*
X12433625Y2882625D02*
Y2822625D01*
Y2942625D02*
Y3002625D01*
X12449500Y3739875D02*
Y3679875D01*
Y3799875D02*
Y3859875D01*
Y5470250D02*
Y5410250D01*
Y5530250D02*
Y5590250D01*
X12465375Y4660625D02*
Y4600625D01*
Y4720625D02*
Y4780625D01*
X12488625Y2912625D02*
X12548625D01*
X12505625Y6373375D02*
X12445625D01*
X12560625Y6343375D02*
Y6283375D01*
Y6403375D02*
Y6463375D01*
X12615625Y6373375D02*
X12675625D01*
X12981875Y5166875D02*
X12921875D01*
X13036875Y5136875D02*
Y5076875D01*
Y5196875D02*
Y5256875D01*
X13091875Y5166875D02*
X13151875D01*
X13299375Y4420750D02*
X13239375D01*
X13354375Y4390750D02*
Y4330750D01*
Y4450750D02*
Y4510750D01*
X13409375Y4420750D02*
X13469375D01*
X13601000Y3658750D02*
X13541000D01*
X13656000Y3628750D02*
Y3568750D01*
Y3688750D02*
Y3748750D01*
X13711000Y3658750D02*
X13771000D01*
X14299500Y2738000D02*
X14239500D01*
X14354500Y2708000D02*
Y2648000D01*
Y2768000D02*
Y2828000D01*
X14394750Y3738125D02*
X14334750D01*
X14409500Y2738000D02*
X14469500D01*
X14449750Y3708125D02*
Y3648125D01*
Y3768125D02*
Y3828125D01*
Y4628875D02*
Y4568875D01*
Y4688875D02*
Y4748875D01*
X14465625Y5454375D02*
Y5394375D01*
Y5514375D02*
Y5574375D01*
X14504750Y3738125D02*
X14564750D01*
X14504750Y4658875D02*
X14564750D01*
X14520625Y5484375D02*
X14580625D01*
X14576750Y6327500D02*
Y6267500D01*
Y6387500D02*
Y6447500D01*
X14631750Y6357500D02*
X14691750D01*
X17141125Y2896750D02*
X17081125D01*
X17196125Y2866750D02*
Y2806750D01*
Y2926750D02*
Y2986750D01*
X17251125Y2896750D02*
X17311125D01*
X17379250Y3722250D02*
X17319250D01*
X17434250Y3692250D02*
Y3632250D01*
Y3752250D02*
Y3812250D01*
X17489250Y3722250D02*
X17549250D01*
X17649125Y4547750D02*
X17589125D01*
X17704125Y4517750D02*
Y4457750D01*
Y4577750D02*
Y4637750D01*
X17759125Y4547750D02*
X17819125D01*
X17871375Y5341500D02*
X17811375D01*
X17926375Y5311500D02*
Y5251500D01*
Y5371500D02*
Y5431500D01*
X17981375Y5341500D02*
X18041375D01*
X17982500Y3500000D02*
X17922500D01*
X18037500Y3470000D02*
Y3410000D01*
Y3530000D02*
Y3590000D01*
X18092500Y3500000D02*
X18152500D01*
X18157125Y5833625D02*
X18097125D01*
X18212125Y5803625D02*
Y5743625D01*
Y5863625D02*
Y5923625D01*
X18267125Y5833625D02*
X18327125D01*
X18442875Y5103375D02*
X18382875D01*
X18497875Y5073375D02*
Y5013375D01*
Y5133375D02*
Y5193375D01*
X18585750Y4341375D02*
X18525750D01*
X18640750Y4311375D02*
Y4251375D01*
Y4371375D02*
Y4431375D01*
X18695750Y4341375D02*
X18755750D01*
X18776250Y3515875D02*
X18716250D01*
X18831250Y3485875D02*
Y3425875D01*
Y3545875D02*
Y3605875D01*
X18886250Y3515875D02*
X18946250D01*
X19014375Y2738000D02*
X18954375D01*
X19069375Y2708000D02*
Y2648000D01*
Y2768000D02*
Y2828000D01*
X19124375Y2738000D02*
X19184375D01*
X20601875Y3801625D02*
X20541875D01*
X20601875Y4658875D02*
X20541875D01*
X20601875Y6341625D02*
X20541875D01*
X20617750Y5500250D02*
X20557750D01*
X20641000Y2898500D02*
Y2838500D01*
Y2958500D02*
Y3018500D01*
X20656875Y3771625D02*
Y3711625D01*
Y3831625D02*
Y3891625D01*
Y4628875D02*
Y4568875D01*
Y4688875D02*
Y4748875D01*
Y6311625D02*
Y6251625D01*
Y6371625D02*
Y6431625D01*
X20672750Y5470250D02*
Y5410250D01*
Y5530250D02*
Y5590250D01*
X20696000Y2928500D02*
X20756000D01*
X20711875Y3801625D02*
X20771875D01*
X20711875Y4658875D02*
X20771875D01*
X20711875Y6341625D02*
X20771875D01*
X20727750Y5500250D02*
X20787750D01*
X21744875Y2801500D02*
X21684875D01*
X21799875Y2771500D02*
Y2711500D01*
Y2831500D02*
Y2891500D01*
Y3597000D02*
Y3537000D01*
Y3657000D02*
Y3717000D01*
Y4486000D02*
Y4426000D01*
Y4546000D02*
Y4606000D01*
Y5311500D02*
Y5251500D01*
Y5371500D02*
Y5431500D01*
Y6168750D02*
Y6108750D01*
Y6228750D02*
Y6288750D01*
X21854875Y2801500D02*
X21914875D01*
X21854875Y3627000D02*
X21914875D01*
X21854875Y4516000D02*
X21914875D01*
X21854875Y5341500D02*
X21914875D01*
X21854875Y6198750D02*
X21914875D01*
X22633875Y6421000D02*
X22573875D01*
X22688875Y6391000D02*
Y6331000D01*
Y6451000D02*
Y6511000D01*
X22743875Y6421000D02*
X22803875D01*
X22745000Y4420750D02*
X22685000D01*
X22800000Y4390750D02*
Y4330750D01*
Y4450750D02*
Y4510750D01*
X22855000Y4420750D02*
X22915000D01*
X23268875Y3865125D02*
X23208875D01*
X23323875Y3835125D02*
Y3775125D01*
Y3895125D02*
Y3955125D01*
X23378875Y3865125D02*
X23438875D01*
X23491125Y6325750D02*
X23431125D01*
X23546125Y6295750D02*
Y6235750D01*
Y6355750D02*
Y6415750D01*
X23601125Y6325750D02*
X23661125D01*
X23649875Y2992000D02*
X23589875D01*
X23665750Y4722375D02*
X23605750D01*
X23704875Y2962000D02*
Y2902000D01*
Y3022000D02*
Y3082000D01*
X23720750Y4692375D02*
Y4632375D01*
Y4752375D02*
Y4812375D01*
X23759875Y2992000D02*
X23819875D01*
X23775750Y4722375D02*
X23835750D01*
X23863625Y5279750D02*
Y5219750D01*
Y5339750D02*
Y5399750D01*
X23918625Y5309750D02*
X23978625D01*
D02*
D16*
X1813250Y5095438D03*
Y6333688D03*
X2244250Y8214875D03*
X9211000Y5436750D03*
X9226875Y4484250D03*
X9290564Y3595250D03*
X9401500Y6198750D03*
X10036500Y3150750D03*
X10163500Y6516250D03*
X10798500Y3484125D03*
X10862000Y6055875D03*
X10957250Y4309625D03*
Y5246250D03*
X12433625Y3230125D03*
X12449500Y4071500D03*
Y5801875D03*
X12465375Y4992250D03*
X12561875Y6675000D03*
X13032948Y5468500D03*
X13350448Y4722375D03*
X13667948Y3976250D03*
X14354500Y3039625D03*
X14449750Y4055625D03*
Y4960500D03*
X14465625Y5786000D03*
X14578000Y6675000D03*
X17199622Y3225872D03*
X17434250Y4055625D03*
X17704125Y4865250D03*
X17926375Y5659000D03*
X18037500Y3817500D03*
X18212125Y6165750D03*
X18497875Y5436750D03*
X18638747Y4674750D03*
X18831250Y3849250D03*
X19085250Y3055500D03*
X20658125Y3261875D03*
Y4119125D03*
Y4976375D03*
Y5817750D03*
Y6643250D03*
X21798625Y3119000D03*
Y3944500D03*
Y4833500D03*
Y5659000D03*
Y6500375D03*
X22688875Y6725500D03*
X22800000Y4721125D03*
X23322767Y4166750D03*
X23546125Y6627375D03*
X23703767Y3293625D03*
X23720750Y5024000D03*
X23863625Y5610125D03*
D02*
D17*
X1902625Y2013313D02*
X2112500D01*
X2130750Y2031563D01*
X1902625Y2113313D02*
X2037875D01*
X2130750Y2206188D01*
X1902625Y2213313D02*
X1733063D01*
X1702125Y2182375D01*
Y1953001D01*
X1741813Y1913313D01*
X1902625D01*
X1979937Y6500375D02*
X1964063D01*
X1916438Y6548000D01*
Y6706750D01*
X2019625Y7103625D02*
Y6976625D01*
X1916438Y6873438D01*
Y6706750D01*
X2210125Y7103625D02*
Y7310000D01*
X2226000Y7325875D01*
X2353000Y8214875D02*
Y8022000D01*
X2019625Y7688625D01*
Y7103625D01*
X2353000Y8214875D02*
X2244250D01*
X2369688Y1454188D02*
Y1300500D01*
X2408563Y1261625D01*
X2630813D01*
X2669688Y1300500D01*
Y1454188D01*
X2469688D02*
Y1573562D01*
X2416500Y1626750D01*
Y1690250D01*
X2569688Y1454188D02*
Y1668813D01*
X2591125Y1690250D01*
X3892875Y5293875D02*
X2313313D01*
X2233938Y5373250D01*
Y5595500D01*
X9211000Y5293875D02*
X9306250D01*
X9417375Y5182750D01*
Y4674750D01*
X9226875Y4484250D01*
X9211000Y5436750D02*
Y5293875D01*
X9226875Y4341375D02*
X9353875D01*
X9433250Y4262000D01*
Y3737936D01*
X9290564Y3595250D01*
X9226875Y4484250D02*
Y4341375D01*
X9290375Y3452375D02*
Y3595061D01*
X9290564Y3595250D01*
X9385625Y6024125D02*
X9211000Y5849500D01*
Y5436750D01*
X9401500Y6198750D02*
Y6040000D01*
X9385625Y6024125D01*
X9528500Y2023625D02*
Y3341250D01*
X9417375Y3452375D01*
X9290375D01*
X9853938Y2379000D02*
Y2023625D01*
Y2589000D02*
Y2936438D01*
X9909500Y2992000D01*
X10036500D01*
Y3150750D01*
X10163500Y6389250D02*
X10528625D01*
X10862000Y6055875D01*
X10163500Y6516250D02*
Y6389250D01*
X10798500Y3357125D02*
X10973125Y3182500D01*
Y2023625D01*
X10798500Y3484125D02*
Y4023875D01*
Y3484125D02*
Y3357125D01*
Y4023875D02*
X10957250Y4182625D01*
X10862000Y5928875D02*
X10982574D01*
X11052500Y5858949D01*
Y5341500D01*
X10957250Y5246250D01*
X10862000Y6055875D02*
Y5928875D01*
X10957250Y4182625D02*
Y4309625D01*
Y5103375D02*
X10899375D01*
X10798500Y5002500D01*
Y4023875D01*
X10957250Y5246250D02*
Y5103375D01*
X12433625Y3103125D02*
X12544750D01*
X12703500Y2944375D01*
Y2023625D01*
X12433625Y3230125D02*
Y3103125D01*
X12449500Y3960375D02*
X12561875Y3848000D01*
Y3358375D01*
X12433625Y3230125D01*
X12449500Y4071500D02*
Y3960375D01*
Y5690750D02*
X12640000Y5500250D01*
Y5166875D01*
X12465375Y4992250D01*
X12449500Y5801875D02*
Y5690750D01*
X12465375Y4881125D02*
X12640000Y4706500D01*
Y4262000D01*
X12449500Y4071500D01*
X12465375Y4881125D02*
X12417750D01*
X12465375Y4928750D01*
Y4992250D01*
X12560625Y6563875D02*
X12465375D01*
X12354250Y6452750D01*
Y5897125D01*
X12449500Y5801875D01*
X12561875Y6675000D02*
Y6565125D01*
X12560625Y6563875D01*
X13032948Y5468500D02*
Y5361302D01*
X13036875Y5357375D01*
X13116250D01*
X13350448Y5123177D01*
Y4722375D01*
Y4615177D01*
X13354375Y4611250D01*
X13481375D01*
X13667948Y4424677D01*
Y3976250D01*
X13656000Y3849250D02*
X14052875D01*
X14132250Y3769875D01*
X13667948Y3976250D02*
Y3861198D01*
X13656000Y3849250D01*
X14132250Y3769875D02*
Y3261875D01*
X14354500Y3039625D01*
Y2928500D02*
X14179875D01*
X14052875Y2801500D01*
Y2023625D01*
X14354500Y3039625D02*
Y2928500D01*
X14449750Y3928625D02*
X14291000D01*
X14132250Y3769875D01*
X14449750Y4055625D02*
Y3928625D01*
Y4849375D02*
X14354500D01*
X14291000Y4785875D01*
Y4214375D01*
X14449750Y4055625D01*
Y4960500D02*
Y4849375D01*
X14465625Y5674875D02*
X14354500D01*
X14322750Y5643125D01*
Y5087500D01*
X14449750Y4960500D01*
X14465625Y5786000D02*
Y5674875D01*
X14576750Y6548000D02*
X14465625D01*
X14402125Y6484500D01*
Y5849500D01*
X14465625Y5786000D01*
X14578000Y6675000D02*
Y6549250D01*
X14576750Y6548000D01*
X17196125Y3087250D02*
X17053250D01*
X16862750Y2896750D01*
Y2023625D01*
X17199622Y3225872D02*
Y3090747D01*
X17196125Y3087250D01*
X17434250Y3912750D02*
X17942250D01*
X18037500Y3817500D01*
X17434250Y3912750D02*
X17291375D01*
X17199622Y3820997D01*
Y3225872D01*
X17434250Y4055625D02*
Y3912750D01*
X17704125Y4738250D02*
X17561250D01*
X17434250Y4611250D01*
Y4055625D01*
X17704125Y4865250D02*
Y4738250D01*
X17926375Y5532000D02*
X17767625D01*
X17704125Y5468500D01*
Y4865250D01*
X17926375Y5659000D02*
Y5532000D01*
X18037500Y3817500D02*
Y3690500D01*
X18212125Y6024125D02*
X18037500D01*
X17926375Y5913000D01*
Y5659000D01*
X18212125Y6165750D02*
Y6024125D01*
X18497875Y5293875D02*
X18638747Y5153003D01*
Y4674750D01*
X18497875Y5436750D02*
Y5293875D01*
X18638747Y4674750D02*
Y4533878D01*
X18640750Y4531875D01*
X18688375D01*
X18831250Y4389000D01*
Y3849250D01*
Y3706375D02*
X18836672D01*
X19085250Y3457797D01*
Y3055500D01*
X18831250Y3849250D02*
Y3706375D01*
X19069375Y2928500D02*
X19259875D01*
X19402750Y2785625D01*
Y2023625D01*
X19085250Y3055500D02*
Y2944375D01*
X19069375Y2928500D01*
X20641000Y3119000D02*
X20529875D01*
X20466375Y3055500D01*
Y2023625D01*
X20656875Y3992125D02*
X20545750D01*
X20466375Y3912750D01*
Y3453625D01*
X20658125Y3261875D01*
X20656875Y4849375D02*
X20529875D01*
X20466375Y4785875D01*
Y4310875D01*
X20658125Y4119125D01*
X20656875Y6532125D02*
X20514000D01*
X20466375Y6484500D01*
Y6009500D01*
X20658125Y5817750D01*
Y3261875D02*
Y3136125D01*
X20641000Y3119000D01*
X20658125Y4119125D02*
Y3993375D01*
X20656875Y3992125D01*
X20658125Y4976375D02*
Y4850625D01*
X20656875Y4849375D01*
X20658125Y5817750D02*
Y5705375D01*
X20672750Y5690750D01*
X20658125Y6643250D02*
Y6533375D01*
X20656875Y6532125D01*
X20672750Y5690750D02*
X20529875D01*
X20466375Y5627250D01*
Y5168125D01*
X20658125Y4976375D01*
X21609375Y2023625D02*
Y2896750D01*
X21704625Y2992000D01*
X21799875D01*
X21798625Y3119000D02*
Y2993250D01*
X21799875Y2992000D01*
X21798625Y3944500D02*
Y3818750D01*
X21799875Y3817500D01*
X21798625Y4833500D02*
Y4707750D01*
X21799875Y4706500D01*
X21798625Y5659000D02*
Y5533250D01*
X21799875Y5532000D01*
X21798625Y6500375D02*
Y6390500D01*
X21799875Y6389250D01*
Y3817500D02*
X21662250D01*
X21625250Y3780500D01*
Y3292375D01*
X21798625Y3119000D01*
X21799875Y4706500D02*
X21678125D01*
X21625250Y4653625D01*
Y4117875D01*
X21798625Y3944500D01*
X21799875Y5532000D02*
X21678125D01*
X21625250Y5479125D01*
Y5006875D01*
X21798625Y4833500D01*
X21799875Y6389250D02*
X21672875D01*
X21625250Y6341625D01*
Y5832375D01*
X21798625Y5659000D01*
X22688875Y6611500D02*
X23530250D01*
X23546125Y6627375D01*
X22688875Y6725500D02*
Y6611500D01*
X22800000Y4611250D02*
X23132267D01*
X23322767Y4420750D01*
X22800000Y4721125D02*
Y4611250D01*
X23322767Y4166750D02*
Y4056733D01*
X23323875Y4055625D01*
X23322767Y4420750D02*
Y4166750D01*
X23323875Y4055625D02*
X23435000D01*
X23703767Y3786858D01*
Y3293625D01*
X23546125Y6516250D02*
X23673125D01*
X23863625Y6325750D01*
Y5610125D01*
X23546125Y6627375D02*
Y6516250D01*
X23703767Y3293625D02*
Y3183608D01*
X23704875Y3182500D01*
X23720750Y4912875D02*
X23546125D01*
X23322767Y4689517D01*
Y4420750D01*
X23720750Y5024000D02*
Y4912875D01*
X23863625Y5500250D02*
X23752500D01*
X23720750Y5468500D01*
Y5024000D01*
X23863625Y5610125D02*
Y5500250D01*
D02*
D18*
X2797500Y1880750D02*
X2941188D01*
X3027688Y1967250D01*
X3083250Y2023625D01*
X9528500D01*
X9853938D01*
X10973125D01*
X12703500D01*
X14052875D01*
X16862750D01*
X19402750D01*
X20466375D01*
X21609375D01*
D02*
D19*
X1725938Y3563500D02*
Y3142813D01*
X2678438Y2190313D01*
X2804625D01*
X3027688Y1967250D01*
X1813250Y5095438D02*
X2487938Y4420750D01*
Y3563500D01*
X1979937Y6500375D02*
X1813250Y6333688D01*
X2019625Y6500375D02*
X1979937D01*
X2369688Y1454188D02*
Y1546563D01*
X2226000Y1690251D01*
Y1817250D01*
X2129937Y1913313D01*
X1902625D01*
X2669688Y1454188D02*
Y1562438D01*
X2797500Y1690250D01*
X23704875Y3182500D02*
X23546125D01*
X22387250Y2023625D01*
X21609375D01*
D02*
D70*
X1390800Y946670D03*
Y2626670D03*
Y3186670D03*
Y4306670D03*
Y4866670D03*
Y5986670D03*
Y6546670D03*
Y7106670D03*
Y7666670D03*
Y8226670D03*
X1577306Y8754700D03*
X1950800Y946300D03*
X2137306Y8754700D03*
X2144250Y7611625D03*
X2210125Y7516375D03*
X2289500Y7611625D03*
X2469750Y2152250D03*
X2565000Y2057000D03*
X2697306Y8754700D03*
X3070800Y946300D03*
X3257306Y8754700D03*
X3630800Y946300D03*
X3817306Y8754700D03*
X3892875Y5293875D03*
X4190800Y946300D03*
X4377306Y8754700D03*
X4750800Y946300D03*
X4937306Y8754700D03*
X5310800Y946300D03*
X5497306Y8754700D03*
X5870800Y946300D03*
X6057306Y8754700D03*
X6430800Y946300D03*
X6617306Y8754700D03*
X6990800Y946300D03*
X7177306Y8754700D03*
X7550800Y946300D03*
X7737306Y8754700D03*
X8110800Y946300D03*
X8297306Y8754700D03*
X8670800Y946300D03*
X8857306Y8754700D03*
X9230800Y946300D03*
X9417306Y8754700D03*
X9790800Y946300D03*
X9977306Y8754700D03*
X10350800Y946300D03*
X10537306Y8754700D03*
X10910800Y946300D03*
X11097306Y8754700D03*
X11470800Y946300D03*
X11657306Y8754700D03*
X12030800Y946300D03*
X12217306Y8754700D03*
X12590800Y946300D03*
X12777306Y8754700D03*
X13150800Y946300D03*
X13337306Y8754700D03*
X13710800Y946300D03*
X13897306Y8754700D03*
X14270800Y946300D03*
X14457306Y8754700D03*
X14830800Y946300D03*
X15017306Y8754700D03*
X15390800Y946300D03*
X15577306Y8754700D03*
X15950800Y946300D03*
X16137306Y8754700D03*
X16510800Y946300D03*
X16697306Y8754700D03*
X17070800Y946300D03*
X17257306Y8754700D03*
X17630800Y946300D03*
X17817306Y8754700D03*
X18190800Y946300D03*
X18377306Y8754700D03*
X18750800Y946300D03*
X18937306Y8754700D03*
X19310800Y946300D03*
X19497306Y8754700D03*
X19870800Y946300D03*
X20057306Y8754700D03*
X20430800Y946300D03*
X20617306Y8754700D03*
X20990800Y946300D03*
X21177306Y8754700D03*
X21550800Y946300D03*
X21737306Y8754700D03*
X22110800Y946300D03*
X22297306Y8754700D03*
X22670800Y946300D03*
X22857306Y8754700D03*
X23230800Y946300D03*
X23417306Y8754700D03*
X23790800Y946300D03*
X23977306Y8754700D03*
X24350800Y946300D03*
X24537306Y8754700D03*
X24910800Y946300D03*
X25097306Y8754700D03*
X25470800Y946300D03*
X25657306Y8754700D03*
X26030800Y946300D03*
X26217306Y8754700D03*
X26590800Y946300D03*
X26777306Y8754700D03*
X27150800Y946300D03*
X27337306Y8754700D03*
X27710800Y946300D03*
X27897306Y8754700D03*
X28270800Y946300D03*
X28457306Y8754700D03*
X28830800Y946300D03*
X29017306Y8754700D03*
X29390800Y946300D03*
X29577306Y8754700D03*
X29950800Y946300D03*
X30137306Y8754700D03*
X30510800Y946300D03*
X30697306Y8754700D03*
X31199200Y1226300D03*
Y1786300D03*
Y2346300D03*
Y2906300D03*
Y3466300D03*
Y4026300D03*
Y4586300D03*
Y5146300D03*
Y5706300D03*
Y6266300D03*
Y6826300D03*
Y7386300D03*
Y7946300D03*
Y8506300D03*
D02*
D71*
X1471938Y5595500D02*
Y5698688D01*
X2114875Y6341625D01*
Y6706750D01*
X1725938Y5595500D02*
Y5817750D01*
X2289500Y6381312D01*
Y6500375D01*
X2106938Y6706750D02*
X2114875D01*
Y7582250D01*
X2144250Y7611625D01*
X2210125Y6500375D02*
X2289500D01*
X2210125Y7516375D02*
X2226000Y7500500D01*
Y7325875D01*
X2289500Y7611625D02*
Y7452875D01*
X2329188Y7413187D01*
Y7183000D01*
X2289500Y7143312D01*
Y6500375D01*
D02*
D20*
X2416500Y1690250D03*
Y1880750D03*
X2591125Y1690250D03*
Y1880750D03*
X2797500Y1690250D03*
Y1880750D03*
X9211000Y5103375D03*
Y5293875D03*
X9226875Y4150875D03*
Y4341375D03*
X9290375Y3261875D03*
Y3452375D03*
X9385625Y5833625D03*
Y6024125D03*
X10036500Y2801500D03*
Y2992000D03*
X10163500Y6198750D03*
Y6389250D03*
X10798500Y3166625D03*
Y3357125D03*
X10862000Y5738375D03*
Y5928875D03*
X10957250Y3992125D03*
Y4182625D03*
Y4912875D03*
Y5103375D03*
X12433625Y2912625D03*
Y3103125D03*
X12449500Y3769875D03*
Y3960375D03*
Y5500250D03*
Y5690750D03*
X12465375Y4690625D03*
Y4881125D03*
X12560625Y6373375D03*
Y6563875D03*
X13036875Y5166875D03*
Y5357375D03*
X13354375Y4420750D03*
Y4611250D03*
X13656000Y3658750D03*
Y3849250D03*
X14354500Y2738000D03*
Y2928500D03*
X14449750Y3738125D03*
Y3928625D03*
Y4658875D03*
Y4849375D03*
X14465625Y5484375D03*
Y5674875D03*
X14576750Y6357500D03*
Y6548000D03*
X17196125Y2896750D03*
Y3087250D03*
X17434250Y3722250D03*
Y3912750D03*
X17704125Y4547750D03*
Y4738250D03*
X17926375Y5341500D03*
Y5532000D03*
X18037500Y3500000D03*
Y3690500D03*
X18212125Y5833625D03*
Y6024125D03*
X18497875Y5103375D03*
Y5293875D03*
X18640750Y4341375D03*
Y4531875D03*
X18831250Y3515875D03*
Y3706375D03*
X19069375Y2738000D03*
Y2928500D03*
X20641000D03*
Y3119000D03*
X20656875Y3801625D03*
Y3992125D03*
Y4658875D03*
Y4849375D03*
Y6341625D03*
Y6532125D03*
X20672750Y5500250D03*
Y5690750D03*
X21799875Y2801500D03*
Y2992000D03*
Y3627000D03*
Y3817500D03*
Y4516000D03*
Y4706500D03*
Y5341500D03*
Y5532000D03*
Y6198750D03*
Y6389250D03*
X22688875Y6421000D03*
Y6611500D03*
X22800000Y4420750D03*
Y4611250D03*
X23323875Y3865125D03*
Y4055625D03*
X23546125Y6325750D03*
Y6516250D03*
X23704875Y2992000D03*
Y3182500D03*
X23720750Y4722375D03*
Y4912875D03*
X23863625Y5309750D03*
Y5500250D03*
D02*
D21*
X2249688Y1454188D03*
X2369688D03*
X2469688D03*
X2569688D03*
X2669688D03*
X2789688D03*
D02*
D22*
X2087688Y984188D03*
Y1354188D03*
X2951688Y984188D03*
Y1354188D03*
D02*
D23*
X3027688Y1667250D03*
Y1967250D03*
D02*
D24*
X1471938Y3563500D03*
Y5595500D03*
X1725938Y3563500D03*
Y5595500D03*
X1979938Y3563500D03*
Y5595500D03*
X2233938Y3563500D03*
Y5595500D03*
X2487938Y3563500D03*
Y5595500D03*
X2741938Y3563500D03*
Y5595500D03*
X2995938Y3563500D03*
Y5595500D03*
X3249938Y3563500D03*
Y5595500D03*
X3503938Y3563500D03*
Y5595500D03*
X3757938Y3563500D03*
Y5595500D03*
X4011938Y3563500D03*
Y5595500D03*
X4265938Y3563500D03*
Y5595500D03*
X4519938Y3563500D03*
Y5595500D03*
X4773938Y3563500D03*
Y5595500D03*
X5027938Y3563500D03*
Y5595500D03*
X5281938Y3563500D03*
Y5595500D03*
X5535938Y3563500D03*
Y5595500D03*
X5789938Y3563500D03*
Y5595500D03*
X6043938Y3563500D03*
Y5595500D03*
X6297938Y3563500D03*
Y5595500D03*
D02*
D25*
X1916438Y6706750D03*
X2019625Y6500375D03*
Y7103625D03*
X2106938Y6706750D03*
X2130750Y2031563D03*
Y2206188D03*
X2210125Y6500375D03*
Y7103625D03*
X2226000Y7325875D03*
X2321250Y2031563D03*
Y2206188D03*
X2353000Y8214875D03*
X2416500Y7325875D03*
X2543500Y8214875D03*
D02*
D26*
X1902625Y1793313D03*
Y1913313D03*
Y2013313D03*
Y2113313D03*
Y2213313D03*
Y2333313D03*
D02*
D27*
X1432625Y1631313D03*
Y2495313D03*
X1802625Y1631313D03*
Y2495313D03*
D02*
D28*
X9853938Y2379000D03*
Y2589000D03*
X0Y0D02*
M02*
